<svg xmlns="http://www.w3.org/2000/svg" width="34.603" height="10.046" viewBox="0 0 34.603 10.046">
  <path id="ellipsis-h-alt" d="M25.3,188.046a.977.977,0,1,1-.977.977.98.98,0,0,1,.977-.977m0-4.046a5.023,5.023,0,1,0,5.023,5.023A5.02,5.02,0,0,0,25.3,184Zm12.279,4.046a.977.977,0,1,1-.977.977.98.98,0,0,1,.977-.977m0-4.046a5.023,5.023,0,1,0,5.023,5.023A5.02,5.02,0,0,0,37.58,184Zm-24.557,4.046a.977.977,0,1,1-.977.977.98.98,0,0,1,.977-.977m0-4.046a5.023,5.023,0,1,0,5.023,5.023A5.02,5.02,0,0,0,13.023,184Z" transform="translate(-8 -184)"/>
</svg>
