<svg id="appstore" xmlns="http://www.w3.org/2000/svg" width="173.905" height="46.385" viewBox="0 0 173.905 46.385">
  <path id="Path_3957" data-name="Path 3957" d="M46.567,30.567a9.215,9.215,0,0,1,4.39-7.732,9.441,9.441,0,0,0-7.435-4.019c-3.128-.329-6.162,1.871-7.755,1.871-1.625,0-4.079-1.839-6.723-1.785a9.9,9.9,0,0,0-8.332,5.08c-3.6,6.236-.916,15.4,2.536,20.442,1.727,2.47,3.745,5.225,6.386,5.128,2.584-.1,3.549-1.645,6.667-1.645,3.089,0,4,1.645,6.69,1.583,2.773-.043,4.519-2.48,6.186-4.971A20.374,20.374,0,0,0,52,38.76a8.915,8.915,0,0,1-5.438-8.193ZM41.478,15.5A9.068,9.068,0,0,0,43.555,9a9.243,9.243,0,0,0-5.976,3.09,8.63,8.63,0,0,0-2.131,6.26,7.635,7.635,0,0,0,6.03-2.85Z" transform="translate(-19 -9)" fill="#fece2f"/>
  <path id="Path_3958" data-name="Path 3958" d="M61.249,40.16H57.638L55.66,33.946H48.784L46.9,40.16H43.384L50.2,19h4.208L61.249,40.16Zm-6.185-8.821-1.789-5.524q-.284-.847-1.067-3.985h-.064q-.315,1.349-1,3.985l-1.759,5.524Zm23.674,1.006a8.637,8.637,0,0,1-2.115,6.15,6.2,6.2,0,0,1-4.7,2.009,4.709,4.709,0,0,1-4.357-2.164v8h-3.39V29.919q0-2.444-.126-5.014h2.982l.189,2.418h.064a6.032,6.032,0,0,1,9.654-.6A8.434,8.434,0,0,1,78.737,32.345Zm-3.454.124a6.287,6.287,0,0,0-1-3.674,3.474,3.474,0,0,0-2.951-1.505,3.526,3.526,0,0,0-2.276.831A3.857,3.857,0,0,0,67.718,30.3a4.424,4.424,0,0,0-.157,1.032v2.545a4.081,4.081,0,0,0,1.021,2.811,3.389,3.389,0,0,0,2.652,1.146,3.475,3.475,0,0,0,2.982-1.475,6.493,6.493,0,0,0,1.068-3.893Zm21-.124a8.636,8.636,0,0,1-2.115,6.15,6.2,6.2,0,0,1-4.705,2.009,4.709,4.709,0,0,1-4.357-2.164v8h-3.39V29.919q0-2.444-.126-5.014h2.981l.189,2.418h.064a6.034,6.034,0,0,1,9.655-.6,8.443,8.443,0,0,1,1.8,5.621Zm-3.455.124A6.288,6.288,0,0,0,91.826,28.8a3.468,3.468,0,0,0-2.948-1.505,3.541,3.541,0,0,0-2.279.831A3.854,3.854,0,0,0,85.267,30.3a4.524,4.524,0,0,0-.159,1.032v2.545a4.094,4.094,0,0,0,1.019,2.811,3.4,3.4,0,0,0,2.656,1.146,3.471,3.471,0,0,0,2.981-1.475,6.491,6.491,0,0,0,1.069-3.893Zm23.077,1.757a5.65,5.65,0,0,1-1.881,4.4,8.339,8.339,0,0,1-5.764,1.852,10.063,10.063,0,0,1-5.48-1.318l.784-2.825a9.433,9.433,0,0,0,4.9,1.319,4.623,4.623,0,0,0,2.982-.863,2.82,2.82,0,0,0,1.07-2.305,2.955,2.955,0,0,0-.881-2.167,8.17,8.17,0,0,0-2.92-1.631q-5.558-2.072-5.559-6.06a5.35,5.35,0,0,1,1.962-4.268,7.761,7.761,0,0,1,5.2-1.664,10.271,10.271,0,0,1,4.8,1l-.851,2.763a8.4,8.4,0,0,0-4.066-.973,4.135,4.135,0,0,0-2.8.879,2.515,2.515,0,0,0-.851,1.917,2.59,2.59,0,0,0,.975,2.071,10.98,10.98,0,0,0,3.075,1.631,10.427,10.427,0,0,1,4.018,2.572A5.361,5.361,0,0,1,115.91,34.226Zm11.237-6.777H123.41v7.406q0,2.826,1.978,2.823a5.959,5.959,0,0,0,1.506-.157l.094,2.574a7.685,7.685,0,0,1-2.636.375,4.064,4.064,0,0,1-3.14-1.226,6.009,6.009,0,0,1-1.131-4.113V27.443h-2.226V24.9h2.226V22.106l3.33-1v3.8h3.737v2.55Zm16.827,4.958a8.366,8.366,0,0,1-2.01,5.775,7.166,7.166,0,0,1-5.588,2.323,6.831,6.831,0,0,1-5.354-2.226,8.112,8.112,0,0,1-1.994-5.618,8.3,8.3,0,0,1,2.056-5.806,7.128,7.128,0,0,1,5.543-2.26,6.973,6.973,0,0,1,5.4,2.229A8.007,8.007,0,0,1,143.974,32.407Zm-3.514.078a6.829,6.829,0,0,0-.908-3.6,3.356,3.356,0,0,0-3.047-1.817,3.4,3.4,0,0,0-3.109,1.817,6.942,6.942,0,0,0-.91,3.663,6.809,6.809,0,0,0,.91,3.6,3.477,3.477,0,0,0,6.127-.03A6.854,6.854,0,0,0,140.46,32.485ZM155,27.886a5.913,5.913,0,0,0-1.069-.094,3.2,3.2,0,0,0-2.764,1.351,5.089,5.089,0,0,0-.846,3.012v8h-3.39V29.71q0-2.4-.1-4.8h2.953l.124,2.919H150a5.233,5.233,0,0,1,1.7-2.418,4.1,4.1,0,0,1,2.451-.817,5.423,5.423,0,0,1,.847.062l0,3.233Zm15.162,3.925a8.034,8.034,0,0,1-.124,1.537H159.865a4.423,4.423,0,0,0,1.477,3.456,5.044,5.044,0,0,0,3.326,1.065,11.245,11.245,0,0,0,4.115-.72l.532,2.351a12.723,12.723,0,0,1-5.116.943,7.414,7.414,0,0,1-5.574-2.086,7.708,7.708,0,0,1-2.025-5.6,8.735,8.735,0,0,1,1.886-5.742,6.5,6.5,0,0,1,5.334-2.446,5.689,5.689,0,0,1,5,2.446,8.234,8.234,0,0,1,1.345,4.8Zm-3.233-.879a4.6,4.6,0,0,0-.657-2.606,2.963,2.963,0,0,0-2.7-1.415,3.216,3.216,0,0,0-2.7,1.381,5.071,5.071,0,0,0-1,2.636Z" transform="translate(3.744 0.039)" fill="#fece2f"/>
  <path id="Path_3959" data-name="Path 3959" d="M46.849,20.306a21.658,21.658,0,0,1-2.438-.124V9.954a18.462,18.462,0,0,1,2.87-.216c3.888,0,5.678,1.912,5.678,5.03C52.96,18.363,50.845,20.306,46.849,20.306Zm.569-9.257a6.8,6.8,0,0,0-1.342.108v7.775a8.827,8.827,0,0,0,1.126.046c2.548,0,4-1.45,4-4.165,0-2.421-1.312-3.764-3.781-3.764Zm11.121,9.335a3.569,3.569,0,0,1-3.611-3.856,3.652,3.652,0,0,1,3.735-3.965A3.541,3.541,0,0,1,62.275,16.4,3.674,3.674,0,0,1,58.539,20.383Zm.064-6.6c-1.2,0-1.975,1.125-1.975,2.7,0,1.544.787,2.669,1.959,2.669s1.959-1.2,1.959-2.7C60.546,14.921,59.775,13.78,58.6,13.78ZM74.77,12.716l-2.345,7.5H70.9l-.972-3.256a24.77,24.77,0,0,1-.6-2.421H69.29a16.238,16.238,0,0,1-.6,2.421l-1.034,3.256H66.111l-2.207-7.5h1.713l.849,3.564q.3,1.273.509,2.407h.032c.123-.631.323-1.42.617-2.391l1.066-3.578h1.358l1.019,3.5c.246.849.447,1.682.6,2.469h.044a21.6,21.6,0,0,1,.509-2.469l.911-3.5,1.636,0Zm8.634,7.5H81.738v-4.3c0-1.326-.509-1.99-1.512-1.99a1.731,1.731,0,0,0-1.666,1.836v4.459H76.893V14.859c0-.663-.016-1.374-.062-2.145H78.3l.078,1.157h.046a2.694,2.694,0,0,1,2.377-1.31c1.574,0,2.608,1.2,2.608,3.162l0,4.489Zm4.6,0H86.332V9.276H88Zm6.076.17a3.57,3.57,0,0,1-3.611-3.856A3.651,3.651,0,0,1,94.2,12.562,3.54,3.54,0,0,1,97.809,16.4,3.672,3.672,0,0,1,94.075,20.383Zm.062-6.6c-1.2,0-1.975,1.125-1.975,2.7,0,1.544.789,2.669,1.957,2.669s1.959-1.2,1.959-2.7c0-1.526-.768-2.667-1.941-2.667Zm10.242,6.433-.121-.863h-.044a2.561,2.561,0,0,1-2.193,1.033,2.18,2.18,0,0,1-2.3-2.206c0-1.851,1.6-2.807,4.382-2.807v-.138c0-.987-.523-1.482-1.557-1.482a3.511,3.511,0,0,0-1.959.556l-.339-1.1a4.8,4.8,0,0,1,2.574-.649c1.959,0,2.948,1.033,2.948,3.1v2.761a11.315,11.315,0,0,0,.108,1.79l-1.5,0Zm-.229-3.734c-1.851,0-2.779.448-2.779,1.512a1.062,1.062,0,0,0,1.143,1.172,1.6,1.6,0,0,0,1.636-1.526V16.479Zm9.716,3.734-.078-1.2h-.046a2.514,2.514,0,0,1-2.407,1.373c-1.808,0-3.147-1.59-3.147-3.826,0-2.345,1.388-4,3.283-4a2.254,2.254,0,0,1,2.115,1.019h.033v-4.3h1.668v8.917c0,.725.017,1.4.062,2.02Zm-.247-4.411a1.814,1.814,0,0,0-1.755-1.944c-1.235,0-1.991,1.1-1.991,2.637,0,1.512.784,2.547,1.957,2.547a1.871,1.871,0,0,0,1.789-1.99Zm12.244,4.581a3.568,3.568,0,0,1-3.61-3.856,3.651,3.651,0,0,1,3.734-3.965A3.54,3.54,0,0,1,129.6,16.4,3.672,3.672,0,0,1,125.863,20.383Zm.062-6.6c-1.2,0-1.973,1.125-1.973,2.7,0,1.544.787,2.669,1.957,2.669s1.959-1.2,1.959-2.7C127.872,14.921,127.1,13.78,125.925,13.78Zm12.635,6.433h-1.668v-4.3c0-1.326-.509-1.99-1.512-1.99a1.729,1.729,0,0,0-1.665,1.836v4.459h-1.668V14.859c0-.663-.016-1.374-.062-2.145h1.466l.078,1.157h.046a2.693,2.693,0,0,1,2.376-1.312c1.574,0,2.609,1.2,2.609,3.162Zm11.212-6.247h-1.833v3.64c0,.927.321,1.389.97,1.389a3.276,3.276,0,0,0,.739-.078l.046,1.266a3.7,3.7,0,0,1-1.293.186c-1.313,0-2.1-.725-2.1-2.623v-3.78h-1.094V12.716H146.3V11.343l1.636-.494v1.866h1.833v1.251Zm8.822,6.247H156.93V15.94c0-1.342-.508-2.021-1.513-2.021a1.635,1.635,0,0,0-1.668,1.774v4.519h-1.664V9.276h1.664v4.5h.035a2.525,2.525,0,0,1,2.254-1.219c1.587,0,2.557,1.234,2.557,3.194v4.459Zm9.039-3.348h-5A2.153,2.153,0,0,0,165,19.086a5.628,5.628,0,0,0,2.02-.354l.261,1.157a6.263,6.263,0,0,1-2.516.463,3.481,3.481,0,0,1-3.734-3.779c0-2.3,1.422-4.027,3.547-4.027,1.915,0,3.117,1.42,3.117,3.564a3.192,3.192,0,0,1-.056.755ZM166.1,15.678c0-1.157-.584-1.974-1.649-1.974a1.977,1.977,0,0,0-1.823,1.974Z" transform="translate(4.701 -8.742)" fill="#fece2f"/>
</svg>
