<svg xmlns="http://www.w3.org/2000/svg" width="64.999" height="91" viewBox="0 0 64.999 91">
  <g id="GoUp-Farm" transform="translate(-246.501 -857)">
    <rect id="Rectangle_17" data-name="Rectangle 17" width="53" height="91" rx="10" transform="translate(252 857)" fill="#e3e3e3"/>
    <path id="pitchfork-up" d="M31.908,28.353l-.93.93C27.478,25.728,12.55,10.527,10.8,8.831,8.831,6.863,9.1,2.816,6.753.41a1.386,1.386,0,0,0-1.969,0L2.6,2.6.41,4.785a1.386,1.386,0,0,0,0,1.969C2.816,9.159,6.863,8.831,8.831,10.8c1.75,1.75,16.9,16.678,20.452,20.178l-.93.93c-1.586,1.586-.93,3.5.656,5.086l8.968,8.968.492-.492-7.6-9.077c-.875-1.148-1.039-1.859-.711-2.351l10.28,9.46.547-.547-9.3-10.444.383-.383.383-.383,10.5,9.3.547-.547L34.04,30.158c.492-.328,1.2-.164,2.351.711l9.077,7.6.492-.492-8.968-8.968C35.407,27.424,33.493,26.767,31.908,28.353ZM2.433,6.7,4.566,4.566,6.7,2.433a3,3,0,0,1,.219,4.484A3.06,3.06,0,0,1,2.433,6.7Z" transform="translate(279 934.999) rotate(-135)" fill="#414042"/>
  </g>
</svg>
