<svg xmlns="http://www.w3.org/2000/svg" width="317.94" height="43.574" viewBox="0 0 317.94 43.574">
  <g id="cp-logo" transform="translate(-157.368 -920.5)">
    <path id="Path_1" data-name="Path 1" d="M967.12,932.922a6.994,6.994,0,0,0,4.576-1.739,7.156,7.156,0,0,0,2.66-4.223,4.759,4.759,0,0,0-.851-4.186A4.625,4.625,0,0,0,969.638,921a7.152,7.152,0,0,0-4.611,1.774,7.456,7.456,0,0,0-2.591,4.186,4.922,4.922,0,0,0,.816,4.223A4.661,4.661,0,0,0,967.12,932.922Z" transform="translate(-589.14 0)" fill="#414042" stroke="#fff" stroke-width="1"/>
    <g id="Group_3" data-name="Group 3" transform="translate(157.871 927.739)">
      <g id="Group_1" data-name="Group 1">
        <path id="Path_2" data-name="Path 2" d="M178.56,966.76a2.3,2.3,0,0,1-2.449,2.093,1.65,1.65,0,0,1-1.418-.5,2.1,2.1,0,0,1-.142-1.595l2.553-11.992a2.912,2.912,0,0,1,.816-1.6,2.4,2.4,0,0,1,1.632-.5,1.75,1.75,0,0,1,1.437.479,1.974,1.974,0,0,1,.123,1.614l-.426,2.093h16l.781-3.795q.851-3.761-1.028-5.358a6.221,6.221,0,0,0-2.8-1.153,24.636,24.636,0,0,0-4.683-.372H172.531a23.749,23.749,0,0,0-4.523.372,9.72,9.72,0,0,0-3.227,1.188,6.32,6.32,0,0,0-2.128,2.128,10.025,10.025,0,0,0-1.188,3.193l-3.407,16.108q-.711,3.227,1.277,4.718t6.99,1.491h16.426a27.1,27.1,0,0,0,4.683-.353,10.771,10.771,0,0,0,3.335-1.1,6.137,6.137,0,0,0,2.146-1.916,7.93,7.93,0,0,0,1.153-2.839l1.207-5.749h-16Z" transform="translate(-157.871 -946.18)" fill="#ffce09" stroke="#fff" stroke-miterlimit="10" stroke-width="1"/>
        <path id="Path_3" data-name="Path 3" d="M316.824,970.156l.318-1.418H305.755l-4.825,22.635h11.743l2.8-13.161a4.569,4.569,0,0,1,1.56-2.165q1.385-1.2,5.109-1.276l1.384-6.423A8.82,8.82,0,0,0,316.824,970.156Z" transform="translate(-262.645 -962.385)" fill="#ffce09" stroke="#fff" stroke-miterlimit="10" stroke-width="1"/>
        <path id="Path_4" data-name="Path 4" d="M404.349,969.913,400.979,985.7a2.178,2.178,0,0,1-.674,1.33,2.06,2.06,0,0,1-1.349.409q-1.634,0-1.277-1.74l3.369-15.787H389.306l-3.442,16.177q-.71,3.227.977,4.932t5.764,1.7a17.829,17.829,0,0,0,3.76-.391,23.35,23.35,0,0,0,3.832-1.207l-1.525,7.095h11.387l6.032-28.311H404.349Z" transform="translate(-324.695 -963.559)" fill="#ffce09" stroke="#fff" stroke-miterlimit="10" stroke-width="1"/>
        <path id="Path_5" data-name="Path 5" d="M522.288,970.811a5.117,5.117,0,0,0-2.235-.886,20.392,20.392,0,0,0-3.6-.265H504.957a22.267,22.267,0,0,0-3.706.265,7.856,7.856,0,0,0-2.591.87,4.535,4.535,0,0,0-1.649,1.595,8.065,8.065,0,0,0-.923,2.449L493.6,986.624l-2.687,12.589h11.743l1.448-6.776h7.528a22.262,22.262,0,0,0,3.706-.265,7.8,7.8,0,0,0,2.607-.886,4.7,4.7,0,0,0,1.667-1.595,7.831,7.831,0,0,0,.923-2.43l2.625-12.417a5.892,5.892,0,0,0,.123-2.411A2.614,2.614,0,0,0,522.288,970.811ZM511.024,975.8l-2.235,10.536a2.24,2.24,0,0,1-.656,1.33,1.981,1.981,0,0,1-1.33.407q-1.634,0-1.277-1.739l2.235-10.536a2.4,2.4,0,0,1,.693-1.33,1.981,1.981,0,0,1,1.33-.409Q511.379,974.058,511.024,975.8Z" transform="translate(-401.783 -963.376)" fill="#ffce09" stroke="#fff" stroke-miterlimit="10" stroke-width="1"/>
        <path id="Path_6" data-name="Path 6" d="M634.893,953.024h-3.335l1.311-6.174H621.126l-1.311,6.174h-3.051l-.923,4.327h3.051l-3.9,18.308h11.743l3.9-18.308h3.334Z" transform="translate(-492.657 -946.671)" fill="#ffce09" stroke="#fff" stroke-miterlimit="10" stroke-width="1"/>
        <path id="Path_7" data-name="Path 7" d="M712.935,972.435a2.629,2.629,0,0,0-.993-1.614,5.117,5.117,0,0,0-2.234-.886,20.387,20.387,0,0,0-3.6-.265H694.612a22.262,22.262,0,0,0-3.706.265,7.855,7.855,0,0,0-2.591.87,4.534,4.534,0,0,0-1.648,1.6,8.059,8.059,0,0,0-.923,2.449l-2.625,12.417a6.086,6.086,0,0,0-.123,2.449,2.564,2.564,0,0,0,.977,1.595,5.173,5.173,0,0,0,2.219.87,20.357,20.357,0,0,0,3.6.265h11.494a22.255,22.255,0,0,0,3.706-.265,7.792,7.792,0,0,0,2.607-.886,4.7,4.7,0,0,0,1.667-1.595,7.835,7.835,0,0,0,.923-2.43l2.625-12.417A5.962,5.962,0,0,0,712.935,972.435ZM700.678,975.8l-2.235,10.536a2.24,2.24,0,0,1-.656,1.33,1.981,1.981,0,0,1-1.33.407q-1.634,0-1.277-1.74l2.235-10.536a2.4,2.4,0,0,1,.693-1.33,1.982,1.982,0,0,1,1.33-.409Q701.033,974.066,700.678,975.8Z" transform="translate(-542.408 -963.384)" fill="#ffce09" stroke="#fff" stroke-miterlimit="10" stroke-width="1"/>
      </g>
      <g id="Group_2" data-name="Group 2" transform="translate(169.909 0.177)">
        <path id="Path_8" data-name="Path 8" d="M833.373,950.231a3.353,3.353,0,0,0-1.33-1.935,7.169,7.169,0,0,0-2.855-1.1,24.339,24.339,0,0,0-4.523-.356H798.906l-6.136,28.809h15.752l1.632-7.7h10q5.6,0,8.087-1.525Q830.8,964.9,831.652,961l1.667-7.948A6.194,6.194,0,0,0,833.373,950.231Zm-16.3,5.2-.816,3.937a2.8,2.8,0,0,1-.886,1.6,2.884,2.884,0,0,1-1.774.46h-2.058l1.74-8.09H815.4a1.449,1.449,0,0,1,1.667,2.1Z" transform="translate(-792.77 -946.84)" fill="#414042" stroke="#fff" stroke-miterlimit="10" stroke-width="1"/>
        <path id="Path_9" data-name="Path 9" d="M944.735,969.92l-4.825,22.635h11.708l4.825-22.635Z" transform="translate(-900.533 -963.743)" fill="#414042" stroke="#fff" stroke-miterlimit="10" stroke-width="1"/>
        <path id="Path_10" data-name="Path 10" d="M1008.121,969.89a10.126,10.126,0,0,0-6.332,1.544,7.783,7.783,0,0,0-3.1,4.913l-2.058,9.72q-.71,3.228.977,4.932t5.764,1.7h4.611c.733,0,1.536-.013,2.411-.035l-.107.177a1.357,1.357,0,0,1-.8.977,6.492,6.492,0,0,1-2.253.265h-11l-.923,4.327h17.775a21.964,21.964,0,0,0,3.69-.265,7.587,7.587,0,0,0,2.572-.886,4.7,4.7,0,0,0,1.649-1.614,8.035,8.035,0,0,0,.923-2.449l4.967-23.309Zm5.607,6.848-1.916,8.941a2.293,2.293,0,0,1-.64,1.33,1.913,1.913,0,0,1-1.314.409,1.452,1.452,0,0,1-1.223-.409,1.711,1.711,0,0,1-.123-1.33l1.916-8.941a1.907,1.907,0,0,1,2.023-1.74,1.365,1.365,0,0,1,1.153.407A1.73,1.73,0,0,1,1013.727,976.739Z" transform="translate(-941.107 -963.714)" fill="#414042" stroke="#fff" stroke-miterlimit="10" stroke-width="1"/>
        <path id="Path_11" data-name="Path 11" d="M1113.939,971.434a7.785,7.785,0,0,0-3.1,4.913l-2.058,9.72q-.71,3.228.977,4.932t5.765,1.7h4.611c.733,0,1.536-.013,2.411-.035l-.107.177a1.356,1.356,0,0,1-.8.977,6.492,6.492,0,0,1-2.253.265h-11l-.923,4.327h17.775a21.974,21.974,0,0,0,3.691-.265,7.588,7.588,0,0,0,2.572-.886,4.7,4.7,0,0,0,1.648-1.614,8.033,8.033,0,0,0,.923-2.449l4.967-23.309h-18.768A10.133,10.133,0,0,0,1113.939,971.434Zm6.725,14.243,1.916-8.941A1.907,1.907,0,0,1,1124.6,975a1.365,1.365,0,0,1,1.154.407,1.712,1.712,0,0,1,.123,1.33l-1.916,8.941a2.293,2.293,0,0,1-.64,1.33,1.913,1.913,0,0,1-1.314.409,1.453,1.453,0,0,1-1.223-.409A1.7,1.7,0,0,1,1120.664,985.677Z" transform="translate(-1023.244 -963.714)" fill="#414042" stroke="#fff" stroke-miterlimit="10" stroke-width="1"/>
        <path id="Path_12" data-name="Path 12" d="M1246.688,969.913l-3.369,15.787a2.177,2.177,0,0,1-.674,1.33,2.059,2.059,0,0,1-1.349.409q-1.633,0-1.276-1.74l3.369-15.787h-11.743L1228.2,986.09q-.711,3.227.977,4.932t5.764,1.7a17.83,17.83,0,0,0,3.76-.391,23.351,23.351,0,0,0,3.832-1.207l-1.525,7.095H1252.4l6.032-28.311h-11.743Z" transform="translate(-1111.521 -963.736)" fill="#414042" stroke="#fff" stroke-miterlimit="10" stroke-width="1"/>
      </g>
    </g>
  </g>
</svg>
