<svg xmlns="http://www.w3.org/2000/svg" width="25.346" height="28.967" viewBox="0 0 25.346 28.967">
  <path id="discord" d="M16.816,13.759a1.483,1.483,0,1,1-1.477-1.608A1.543,1.543,0,0,1,16.816,13.759Zm-6.764-1.608a1.613,1.613,0,0,0,0,3.215,1.543,1.543,0,0,0,1.477-1.608A1.534,1.534,0,0,0,10.052,12.152ZM25.346,2.984V28.967c-3.649-3.225-2.482-2.157-6.72-6.1l.768,2.679H2.969A2.976,2.976,0,0,1,0,22.565V2.984A2.976,2.976,0,0,1,2.969,0H22.377A2.976,2.976,0,0,1,25.346,2.984Zm-4.128,13.73A19.4,19.4,0,0,0,19.133,8.27a7.162,7.162,0,0,0-4.07-1.521l-.2.232A9.639,9.639,0,0,1,18.467,8.82,12.307,12.307,0,0,0,7.647,8.4c-.536.246-.855.42-.855.42a9.771,9.771,0,0,1,3.809-1.9l-.145-.174A7.162,7.162,0,0,0,6.387,8.27,19.4,19.4,0,0,0,4.3,16.714a5.251,5.251,0,0,0,4.418,2.2s.536-.652.97-1.2A4.5,4.5,0,0,1,7.155,16c.213.149.564.342.594.362a10.558,10.558,0,0,0,9.038.507,8.288,8.288,0,0,0,1.666-.855,4.57,4.57,0,0,1-2.622,1.724c.435.55.956,1.173.956,1.173a5.294,5.294,0,0,0,4.432-2.2Z" fill="#fff"/>
</svg>
