<svg xmlns="http://www.w3.org/2000/svg" width="264.026" height="267.892" viewBox="0 0 264.026 267.892">
  <g id="cp-icon" transform="translate(-639.784 -500.33)">
    <g id="Group_18" data-name="Group 18" transform="translate(639.784 500.33)">
      <path id="Path_17" data-name="Path 17" d="M990.44,670.484c-29.352-18.2-21.626-40.036,6.847-63.934,0,0,6.8-4.968,11.949-8.825,9.321-7,24.678-9.786,35.966-6.646,6.785,1.89,20.516,9.646,17.9,15.419-.883,1.921-3.589,3.635-8.959,4.8,15.115,4.792-14.278,13.906-20.521,12.564-12.77,9.238-21.884,22.277-35.161,30.508C993.357,657.544,992.474,664.913,990.44,670.484Z" transform="translate(-800.37 -543.598)" fill="#e99868" fill-rule="evenodd"/>
      <path id="Path_18" data-name="Path 18" d="M994.106,636.929s6.9,1.255,11.138-1.534a91.335,91.335,0,0,0,16.772-15.177c6.512-7.338,8.05-7.508,8.05-7.508s-5.272,6.238-8.494,10.57c-3.238,4.312.759,1.152,2.938-1.4a31.94,31.94,0,0,1,9.7-7.467c4.89-2.654-1.017.108.356,3.909,1.384,3.759,4.6,2.773,7.39,4.513s3.357,3.021-.207,4.281c-3.6,1.25-3.475,1.446-8.3,6.269-4.818,4.849-9.5,9.708-11.391,11.665l-1.869,1.947a32.526,32.526,0,0,1,3.011-4.565c2.009-2.628,4.374-5.618,4.374-5.618a39.469,39.469,0,0,0-6.321,6.589,43.946,43.946,0,0,1-8.82,10.132,31.249,31.249,0,0,1-9.057,4.369,17.43,17.43,0,0,0,3.842-.5,16.492,16.492,0,0,0,2.546-.676,21.119,21.119,0,0,1-7.007,4.172,35.336,35.336,0,0,1-7.162,1.565,8.386,8.386,0,0,0,2.51,1.214c1.88.63,2.437.392,2.437.392s-3.243,3.594-3.919,4.322-3.8,4.926-3.8,4.926-11.784-5.892-11.138-16.938,5.7-22.969,9.409-23.01c3.739,0,11.8-.852,17.118-3.909a43.033,43.033,0,0,0,9.4-7.772s-4.3,7-10.493,10.049A102.238,102.238,0,0,1,994.106,636.929Z" transform="translate(-805.115 -554.678)" fill="#d96e53" fill-rule="evenodd"/>
      <path id="Path_19" data-name="Path 19" d="M1091.2,624.917c5.169-.284,35.548-7.467,19.587-12.507,5.37-1.167,8.071-2.881,8.959-4.8,3.181-6.951-14.2-14.428-18.275-15.517-8.076,3.16-16.622,16.07-7.384,22.3C1091.3,615.88,1085.93,621.065,1091.2,624.917Z" transform="translate(-857.017 -544.706)" fill="#ec3724" fill-rule="evenodd"/>
      <path id="Path_20" data-name="Path 20" d="M1091.874,610.783a12.185,12.185,0,0,0,9.848,5.453c6.868.31,15.161-3.088,16.23-3.449s3.042,1.828.966,3.976c-2.112,2.138-14.877,6.171-17.5,6.682s-6.444.191-7.5.764c-1.022.578-1.611,2.711,1.962,3.976s12.543-2.241,14.614-3.258a11.435,11.435,0,0,0,3.16-2.205s3.145,2.324-1.725,4.529c-4.88,2.241-16.772,5.8-18.977,5.815-2.179,0-4.188-1.73-3.981-3.733s2.406-5.195,3.444-5.753a15.931,15.931,0,0,1,1.554-.806s-3.93-1.807-4.472-5.283c-.522-3.491,2.365-7.911,2.365-7.911Z" transform="translate(-857.007 -553.165)" fill="#a41e23" fill-rule="evenodd"/>
      <path id="Path_21" data-name="Path 21" d="M1053.064,595.417c-15.156,1.157-26.031,7.777-35.28,14.7-5.489,4.11-2.587-.573,4.973-5.887,5.185-3.625,13.6-7.694,18.895-8.97-13.3,2.515-25.628,10-35.817,18.946-4.725,4.136,6.527-7.41,15.652-14.655,9.321-7.374,25.287-12.083,36.731-8.18C1057.288,592.081,1053.885,594.539,1053.064,595.417Z" transform="translate(-816.272 -543.68)" fill="#f7cc82" fill-rule="evenodd"/>
      <path id="Path_22" data-name="Path 22" d="M1099.64,600.159c.041-2.019.377-2.458,3.419-3.279a40.627,40.627,0,0,1,16.261,8.149C1112.911,603.144,1106.183,601.491,1099.64,600.159Z" transform="translate(-862.176 -547.023)" fill="#f2653d" fill-rule="evenodd"/>
      <path id="Path_23" data-name="Path 23" d="M1103.42,594.856a54.916,54.916,0,0,1,14.314,5.381c6.7,3.785,8.8,6.982,8.8,6.982s.16-4.5-4.839-8.495c-5.035-4.007-12.77-7.482-14.443-6.945C1105.615,592.321,1103.42,594.856,1103.42,594.856Z" transform="translate(-864.004 -544.529)" fill="#feca7f" fill-rule="evenodd"/>
      <path id="Path_24" data-name="Path 24" d="M1111.825,634.315s-8.587,1.291-9.755,1.931c-1.172.676,8.706.5,12.729-.775l4-1.26s-1.781-1.477-2.654-1.244C1115.243,633.215,1111.825,634.315,1111.825,634.315Z" transform="translate(-863.305 -564.463)" fill="#f2653d" fill-rule="evenodd"/>
      <path id="Path_25" data-name="Path 25" d="M1090.112,621.33a4.425,4.425,0,0,0,.077,2.907c.583,1.456,2.876,4.369,9.233,4.8a13.608,13.608,0,0,0,3.052-.139l-1.518-2.3a4.454,4.454,0,0,1-.578-.026c-7.694-.48-10.266-5.236-10.266-5.236Zm12.672,15.807c-8.515,2.205-11.825,1.957-12.569.826s-.547-3.532-.547-3.532,1.627,1.859,7.958,1.4a39.492,39.492,0,0,0,8.252-1.751l1.115,1.694A36.2,36.2,0,0,1,1102.784,637.137Zm-1.828-10.539,1.518,2.3c5.835-.785,12.316-4.24,12.316-4.24a40.783,40.783,0,0,1-13.834,1.936Zm12.45,4.766s-1.384,2.344-6.414,4.4l-1.115-1.694C1109.972,632.814,1113.406,631.363,1113.406,631.363Z" transform="translate(-857.342 -558.847)" fill="#f89a61" fill-rule="evenodd"/>
      <path id="Path_26" data-name="Path 26" d="M988.54,619.865c11.991-8.572,23.991-21.637,38.213-27,8.391-3.155,18.327-3.956,26.233-1.74a37.6,37.6,0,0,1,13.963,7.544c2.3,2.035,4.957,5.216,2.246,7.586-4.756,3-14.882,6.021-18.507,6.816a46.956,46.956,0,0,0,11.2-1.73c5.432,1.725,3.3,3.687-.547,5.654-4.962,2.546-14.185,5.9-19.9,4.647a3.564,3.564,0,0,1-.4.294,139.2,139.2,0,0,0-15.982,14.247c-6.011,5.918-11.98,11.8-19.1,16.235-4.265,2.649-5.763,7.715-7.2,12.584-.408,1.42-.826,2.82-1.3,4.09.687.238,1.384.491,2.081.749.485-1.348.914-2.778,1.338-4.214,1.3-4.467,2.7-9.156,6.233-11.361,7.369-4.565,13.411-10.534,19.473-16.514A138.779,138.779,0,0,1,1041.96,624c4.054.48,14.325-1.947,20.377-5.055a14.813,14.813,0,0,0,4.028-2.773c1.906-2.029,1.384-4.245-.831-5.618a14.5,14.5,0,0,0,5.112-2.644c3.9-3.439.8-8.216-2.277-10.9a39.366,39.366,0,0,0-14.789-7.994c-8.329-2.339-18.812-1.518-27.6,1.8C1011.607,596.219,999.193,609.831,988.54,619.865Z" transform="translate(-808.447 -542.571)" fill="#30111f"/>
      <path id="Path_27" data-name="Path 27" d="M755.581,745.329c-5.587-12.8-22.855-8.422-48.091,7.679,0,0,9.884-4.725,13.793-.909,3.945,3.821,5.469,8.644,14.862,5.36S755.581,745.329,755.581,745.329Z" transform="translate(-672.528 -615.205)" fill="#a41e23" fill-rule="evenodd"/>
      <path id="Path_28" data-name="Path 28" d="M738.21,767.577s10.369.377,15.259-.382c4.906-.733,5.634-1-.1,1.875C748.063,771.718,740.441,775.426,738.21,767.577Z" transform="translate(-687.384 -629.154)" fill="#a41e23" fill-rule="evenodd"/>
      <path id="Path_29" data-name="Path 29" d="M684.08,760.681c.021-.016,8.835-4.942,16.189-6.971,4.642-1.275,7.746-1.105,10.8,2.4s4.947,6.9,13.364,3.981c11.056-4.219,19.772-12.321,27.245-19.757-.041.031-18.445,14.34-27.637,17.557-7.023,2.437-8.784-.33-11.3-3.217-3.067-3.527-5.877-4.3-9.527-3.734C696.711,751.938,689.135,757.422,684.08,760.681Z" transform="translate(-661.206 -616.397)" fill="#30111f"/>
      <path id="Path_30" data-name="Path 30" d="M1007.716,698.07c-6.625,6.073-20.847,6.331-24.776-3.48C987.727,701.871,1003.007,702.754,1007.716,698.07Z" transform="translate(-805.739 -594.276)" fill="#1a121e"/>
      <path id="Path_31" data-name="Path 31" d="M839.062,873.306l65.69-24.766c-10.064,24-24.983,32.532-33.457,35.46-5.846,7.927-16.953,8.128-24.828,14.583C829.55,912.458,834.833,877.68,839.062,873.306Z" transform="translate(-734.103 -668.729)" fill="#e99868" fill-rule="evenodd"/>
      <path id="Path_32" data-name="Path 32" d="M844.152,909.58a29.219,29.219,0,0,1-1.776-5.685c-1.162-4.467,1.487-15.4,1.694-14.288s-.831,4.937.331,9.409,7.488,6.6,7.488,6.6-2.3,1.611-3.393,2.324-.294-.119-.279-1.374c0-1.275-.873-1.327-1.343.041-.465,1.332-.738,2.665-1.761,3.336-.346.227-.63.134-.873-.238l-.088-.124Zm23.2-11.707A25.7,25.7,0,0,1,860,901.055c-5.386,1.518-8.758-1.621-9.063-3.6-.284-1.993,3.759-9.295,4.606-9.569.826-.263,1.575,1.3,2.432,2.608.873,1.327.4,2.355,3.124,6.073a4.588,4.588,0,0,0,6.207,1.245l.041.062Zm-1.131-1.72-1.575-2.391a19.783,19.783,0,0,1-3.945-2.019,5.525,5.525,0,0,0,4.529,4.281c.351.057.7.108.991.129Zm-6.031-9.171c-.289.315-.413.646-.119.857.243.181.666.5,1.265.883Zm7.266,2-2.432-3.7c-2.758,1.162-2.866,1.327-2.04,1.776a24.83,24.83,0,0,0,4.472,1.921Zm-7.266-2a6.9,6.9,0,0,1,1.337-1.095,17.7,17.7,0,0,0,4.131,3.295,11.058,11.058,0,0,0,2.634,1.069l.47.718c-.367-.036-.8-.072-1.234-.124a14.928,14.928,0,0,1-6.2-2.122l-1.141-1.74Zm4.462,6.78a7.353,7.353,0,0,0,1.183.284,28.853,28.853,0,0,0,4.9-.078l.315.48a6.609,6.609,0,0,1-4.823,1.709l-1.575-2.4Zm3.171,3.739s-.16.134-.47.372l-.041-.067A2.593,2.593,0,0,0,867.818,897.5Zm31.35-26.692s-15.5,6.7-25.928,11.107c-3.95,1.663-6.548,2.685-8.211,3.377l2.432,3.7a20.622,20.622,0,0,0,3.883.842c4.105.511,13.416-5.179,12.564-4.059a15.463,15.463,0,0,1-2.716,2.5s2.117-.522,8.892-6.13c6.749-5.6,9.083-11.34,9.083-11.34Zm-30.885,19.442a22.47,22.47,0,0,0,3.883.744,11.948,11.948,0,0,1-3.413-.026l-.47-.718Zm3.248,3.656a3.728,3.728,0,0,1-.485.537l-.315-.48C871.241,893.944,871.53,893.908,871.53,893.908Z" transform="translate(-737.618 -679.499)" fill="#d96e53" fill-rule="evenodd"/>
      <path id="Path_33" data-name="Path 33" d="M857.516,912.487c-16.039-.945-14.51-17.273-6.677-28.1C840.1,891.552,839.68,914.5,857.516,912.487Z" transform="translate(-738.222 -686.066)" fill="#30111f"/>
      <path id="Path_34" data-name="Path 34" d="M846.243,926.947s-3.522,1.849-5.985-3.511a33.088,33.088,0,0,1-3.315-11.526c-.485-3.573-2.535,2.634-2.835,7.906s.935,10.224,2.628,11.386c1.7,1.121,3.537,1.069,5.861-.088a30.551,30.551,0,0,0,5.422-4.162Z" transform="translate(-733.74 -698.864)" fill="#a41e23" stroke="#22160f" stroke-miterlimit="10" stroke-width="0.03" fill-rule="evenodd"/>
      <path id="Path_35" data-name="Path 35" d="M836.167,907.942c.392-1.627.465,3.026,1.988,13.2.346,2.324-1.89,6.692-2.763,5.742-1.327-1.5-1.337-4.074-1.529-5.877C833.415,916.36,835.227,911.867,836.167,907.942Z" transform="translate(-733.61 -697.303)" fill="#f2653d" fill-rule="evenodd"/>
      <path id="Path_36" data-name="Path 36" d="M904.343,838.07c-9.481,30-31.675,39.307-35.378,40.216-3.109,4.224-7.983,6.186-12.972,8.221-4.018,1.611-8.1,3.269-11.645,6.166a14.624,14.624,0,0,1-5.52,3.067h0a3.632,3.632,0,0,1-2.339-.052,2.446,2.446,0,0,1-1.348-1.575c-3.279-6.594-.594-23.78,8.98-35.4-9.166,3.258-14.877,25.825-11.071,36.157a4.693,4.693,0,0,0,2.582,2.881,6.064,6.064,0,0,0,3.692.124h0a16.827,16.827,0,0,0,6.419-3.506c3.258-2.67,7.229-4.255,11.087-5.83,5.288-2.138,10.41-4.2,13.911-8.964C887.116,872.921,904.834,854.538,904.343,838.07Z" transform="translate(-732.672 -663.665)" fill="#30111f"/>
      <path id="Path_37" data-name="Path 37" d="M789.49,806.109c-11.226-21.239-15.765-46.32-26.992-67.559-17.944,16.85-28.308,33.539-30.751,52.465-6.336,4.575-13.963,12.109-11.768,26.429-4.725,7.591-3.749,15.987-.15,23.831,1.921,4.157,4.782,7.224,9.316,6.021,7.632-2.029,12.713-11.355,12.713-11.355C754.51,838.647,786.237,816.411,789.49,806.109Z" transform="translate(-677.018 -615.536)" fill="#e99868" fill-rule="evenodd"/>
      <path id="Path_38" data-name="Path 38" d="M742.243,887.519l-6.749-10.261c.129,3.181,2.06,7.3,6.749,10.261Zm5.05,7.679c-1.492.671-3.785,1.678-4.735,2.086a30.461,30.461,0,0,1-4.059,1.172l.826-1.539s-.687-1.043-2.592-.63c-1.885.4-4.472.263-7.142-3.806s-3.362-10.932-3.362-10.932a50.475,50.475,0,0,0,7.343,9.651c4.26,4.2,11.825,4.059,11.825,4.059l1.7-.341.191.279Zm-2.148-3.264a11.477,11.477,0,0,1-9.631-2.85,20.188,20.188,0,0,1-6.207-11.712s4.787,9.31,8.872,11.453a20.337,20.337,0,0,0,6.166,1.9l.8,1.214Zm-10.328-10.777a20.489,20.489,0,0,0,4.787,6.568c1.265,1.162.387.589.387.589a18.8,18.8,0,0,1-7.989-13.9c-.046-.873-.062-1.7-.026-2.5l1.472,2.241A16.21,16.21,0,0,0,734.818,881.157Zm20.635,7.643,2.319-.031a11.785,11.785,0,0,1-5.613-1.477,25.344,25.344,0,0,1-5.231-4.875s-2.009-1.823-4.332-4.312c-2.288-2.484-3.672-8.892-3.672-8.892a14.155,14.155,0,0,0-3.362,6.543,6.227,6.227,0,0,0-.067,1.508l6.749,10.261c.382.248.769.46,1.172.692a16.067,16.067,0,0,0,12.311,1.244l-.274-.661Zm-23.475-16.891c.2-7.513,3.635-10.86,4.178-11.221.563-.372,1.766,1.172,1.41,2.9-.418,2.019-1.41,2.546-2.184,4.023a15.373,15.373,0,0,0-1.931,6.532l-1.472-2.236Zm12.367,18.807a30.4,30.4,0,0,0,3.987.429,12.3,12.3,0,0,1-3.186.79l-.8-1.219Zm4.286,3.909-1.337.568-.186-.284Z" transform="translate(-681.591 -674.576)" fill="#d96e53" fill-rule="evenodd"/>
      <path id="Path_39" data-name="Path 39" d="M740,914.619a45.321,45.321,0,0,1-6.971,1.193c-1.745-.1-8.572-2.9-10.772-10.266-2.236-7.374-1.591-10.416-1.591-10.416s-2.06.888-2.912,5c-.837,4.131-.367,14.975,3.615,19.612,4,4.658,7.7,3.94,9.724,3.042a21.147,21.147,0,0,0,6.7-5.154C739.194,915.77,740,914.619,740,914.619Z" transform="translate(-677.322 -691.26)" fill="#a41e23" stroke="#22160f" stroke-miterlimit="10" stroke-width="0.03" fill-rule="evenodd"/>
      <path id="Path_40" data-name="Path 40" d="M730.307,920.793l.971,1.477c-.816.94-1.492,1.663-1.492,1.663s.831-.3,2.05-.816l.088.129c-.274.15-.563.279-.831.392a7.249,7.249,0,0,1-3.4.651,8.219,8.219,0,0,0,1.265-1.394c.217-.325.744-1.136,1.353-2.1ZM717.65,901.552l2.329,3.542c1.255,4.56,3.992,6.966,5.8,8.825l1.714,2.608a2.108,2.108,0,0,1-.294,1.255c-1.136,1.962-2.618,4.4-2.649,5.541a11.813,11.813,0,0,1-3.2-2.727c-.016-.021-.067-.052-.093-.093l-1.229-1.869C717.412,913.641,717.036,905.446,717.65,901.552Zm14.784,16.034c-.005.036,0,0,.052-.067.46-.769,1.214-.33,1.874.2.016.021.016.021.036.005l.031.041c.191.527-1.714,2.84-3.145,4.5l-.971-1.477c.677-1,1.467-2.21,2.122-3.2Zm-.511,5.665-.088-.129c.346-.134.7-.3,1.095-.47-.346.227-.687.418-1.007.6Zm-14.273-21.7c.021-.2.062-.382.1-.563a9.214,9.214,0,0,1,1.782-4.069,22.027,22.027,0,0,0,.454,8.174l-2.334-3.542Zm9.858,14.98-1.714-2.608A4.839,4.839,0,0,1,727.508,916.532Z" transform="translate(-677.317 -692.126)" fill="#f2653d" fill-rule="evenodd"/>
      <path id="Path_41" data-name="Path 41" d="M735.458,938.441c.088-.15.181-.336.3-.537,1.219-2.267,3.713-5.246,4.9-7.085,1.508-2.4-4.777,4.482-6.909,7.162-.351-.109-.718-.243-1.059-.331,2.324-2.525,14.562-15.559,9.8-8.123-1.172,1.864-4.544,6.636-5.763,8.9l-.145.253C736.263,938.627,735.866,938.544,735.458,938.441Z" transform="translate(-684.715 -706.8)" fill="#30111f"/>
      <path id="Path_42" data-name="Path 42" d="M776.178,865.824l-15.962-24.265a24.05,24.05,0,0,0,.387,4.947,25.387,25.387,0,0,0,3.449,9.037s-5.412-3.914-5.479-12.874c-.005-1.337-.021-2.541-.021-3.63l-.47-.718a37.648,37.648,0,0,0-1.337,8.763c-.372,9.806,2.83,12.59,2.918,10.973.114-1.632,2.086.186,2.086.186s-.785,3.258.475,5.169,2.417,3.677,6.62,5.613c3.486,1.6,7.761.005,9.063-.573l-.129-.2a15.479,15.479,0,0,1-4.317-1.115,14.671,14.671,0,0,1-5.634-4.11,16.085,16.085,0,0,0,8.35,2.794Zm-20.614-23.568a25.271,25.271,0,0,0,.553,9.7,27.493,27.493,0,0,1-.573-16.6l.186-.62,1.245,1.89A22.916,22.916,0,0,0,755.564,842.256Zm35.848,18.936,5.355-.191s-11.923-5.055-18.223-10.472c-6.315-5.438-14.6-18.931-16.184-19.256-.289-.062-.666.124-1.11.542a24.643,24.643,0,0,1-.181,3.233,28.713,28.713,0,0,0-.857,6.512l15.961,24.265a15.79,15.79,0,0,0,2.644-.057c6.594-.63,12.595-4.575,12.595-4.575Zm-13.633,7.069a3.658,3.658,0,0,0,.527-.005,2.522,2.522,0,0,1-.4.2l-.129-.2Zm-19.7-29.94c.139-.5.294-.971.444-1.41-.005.656.021,1.358.031,2.128l-.475-.718Zm2.174-12.7c1.978-.119-.816,5.861-.816,5.861a30.262,30.262,0,0,0-2.474,5.143l-1.244-1.89C758.2,826.754,758.316,825.742,760.258,825.618Z" transform="translate(-695.262 -657.643)" fill="#d96e53" fill-rule="evenodd"/>
      <path id="Path_43" data-name="Path 43" d="M735.841,836.718a28.511,28.511,0,0,0-5.6,8.727,19.8,19.8,0,0,0-.589,11.944s-2.272-2.742-2.246-7.963c.046-5.231,1.105-7.173,1.105-7.173s-3.114,5.257-2.251,10.545a73.778,73.778,0,0,0,3.067,11.252,23.9,23.9,0,0,1-5.293-12.4c-.914-7.591,1.678-10.663,4.787-15.172a30.924,30.924,0,0,1,6.439-6.976l.367,2.22.016-.258c.547-9.486,2.4-12.171,2.4-12.171l3.171,7.044a26.207,26.207,0,0,0-2.835,11.737,68.857,68.857,0,0,0,1.8,13.581A55.384,55.384,0,0,1,735.841,836.718Z" transform="translate(-680.44 -654.583)" fill="#f1b289" fill-rule="evenodd"/>
      <path id="Path_44" data-name="Path 44" d="M750.12,822.057A23.938,23.938,0,0,0,747.4,834.5c.315,7.488-4.4,1.5-2.179-7.818,2.236-9.29,2.928-10.369,2.928-10.369Z" transform="translate(-690.484 -653.142)" fill="#fbf49c" fill-rule="evenodd"/>
      <path id="Path_45" data-name="Path 45" d="M735.063,845.936A45.524,45.524,0,0,0,730,853.253l-1.606,3.238a12.683,12.683,0,0,1,2.066-7l2.675-3.94a17.98,17.98,0,0,0-5.742,7.235,26.6,26.6,0,0,0-1.952,8.727s-2.3-5.432,2.3-13.07c4.58-7.622,7.72-8.536,7.72-8.536Z" transform="translate(-680.932 -664.555)" fill="#fbf49c" fill-rule="evenodd"/>
      <path id="Path_46" data-name="Path 46" d="M718.807,898.26a26.468,26.468,0,0,0,1.611,10.312c1.978,4.9,2.236,5.288,2.236,5.288a35.284,35.284,0,0,1-3.227-4.761c-.5-1.229.005,1.239,1.193,5.412a63.046,63.046,0,0,0,2.355,6.987s-4.957-4.931-6.031-11.206A21.408,21.408,0,0,1,718.807,898.26Z" transform="translate(-676.981 -692.774)" fill="#feca7f" fill-rule="evenodd"/>
      <path id="Path_47" data-name="Path 47" d="M729.949,792.946c-9.259,6.992-13.741,15.146-11.841,26.511-.005.036-.052.067-.057.1-5.061,8.221-4.007,18.771.831,26.831,2.122,3.558,5.133,5.815,9.563,4.642,4.911-1.3,8.784-5.4,11.1-8.417,2.2-2.907,4.937-2.53,8.5-3.222,15.285-2.949,35.946-18.657,41.466-30.105-.661-.341-1.332-.651-1.978-.971-4.725,9.77-21.58,23.258-35.636,27.8-4.808,1.544-15.109,2.835-20.144,2.19-.119.2,5.969,2.024,5.856,2.226a15.175,15.175,0,0,1-9.739,8.4c-3.217.837-5.463-.919-7.08-3.661-4.028-6.692-5.314-15.037-2.055-22.256.418,1.343,6.3,10.9,8.143,10.25-9.305-13.813-10.519-26.129,2.974-37.433-.7,1.022,1.312,24.962,12.884,32.331-18.378-23.919-12.543-56.1,20.3-84.063C743.969,755.347,730.8,772.543,729.949,792.946Z" transform="translate(-676.025 -618.215)" fill="#30111f"/>
      <path id="Path_48" data-name="Path 48" d="M785.913,901.949c-8.639,4.72-19.607,3.243-21.781-7.539-.382,10.405,12.316,15.6,22.716,7.544C786.538,901.944,786.234,901.96,785.913,901.949Z" transform="translate(-699.916 -690.912)" fill="#30111f"/>
      <path id="Path_49" data-name="Path 49" d="M885.341,916.575c-5.99,2.634-7.477,2.458-11.061-3.935C876.48,921.9,884.566,918.857,885.341,916.575Z" transform="translate(-753.189 -699.728)" fill="#30111f"/>
      <path id="Path_50" data-name="Path 50" d="M889.86,692.48l-85.653,8.056s-25.84,18.962-30.8,36.426c-8.768,30.808,13.658,55.243,41.187,60.154,22.814,4.09,47.389-7.746,59.71-24.911,10.111-14.128,9.842-25.907,9.842-25.907C894.631,734.163,900.885,714.411,889.86,692.48Z" transform="translate(-703.472 -593.256)" fill="#e99868" fill-rule="evenodd"/>
      <path id="Path_51" data-name="Path 51" d="M825.89,723.879a9.535,9.535,0,0,1,4.333-3.971l3.4,5.174c-4.281-.826-7.736-1.2-7.736-1.2Zm23.124,24.6.372.563a8.911,8.911,0,0,1-2.572,1.534,20.075,20.075,0,0,0,2.2-2.1Zm6.625,10.07,2.9,4.415a50.063,50.063,0,0,1-9.068-.764s1.905-.134,6.166-3.651Zm-1.379-1.151c-3.548,2.706-8.954,2.68-8.954,2.68s-.7-1.255,1.544-2.67a15.264,15.264,0,0,1,3.542-1.766s1.084-.341,2.856-.728l1.43,2.174C854.529,757.186,854.39,757.31,854.26,757.393Zm-20.63-32.31-3.4-5.174c2.2-1.012,5.3-1.461,9.6-.083,10.338,3.357,26.14,7.725,35.362,5.742s25.256-6.832,33.555-11.355a18.516,18.516,0,0,0,9.419-12.672l1.5,5.117s-5.763,4.167-6.625,7.875a10.2,10.2,0,0,0,.646,6.615A23.484,23.484,0,0,1,915.1,714.3c1.384-4.054,2.876-3.2,2.876-3.2a9.6,9.6,0,0,0-2.778,5.907c-.145,3.429,2.727,12.719.165,19.762-2.587,7.059-9.78,11.7-9.78,11.7a50.2,50.2,0,0,0,4.482-4.973c3.971-4.668,3.687-14.139,3.687-14.139s-1.5,8.65-7.493,14.986a25.286,25.286,0,0,1-12.858,7.493s.057-.2,6.6-9.326c6.558-9.109,2.912-14.655,2.912-14.655s-7.612,10.922-10.545,13.757c-2.9,2.84-4.472,6.088-2.231,4.988,2.215-1.084,4.746-4.245,4.746-4.245a42.464,42.464,0,0,1-9.021,10.39c-6.372,5.469-11.309,7-19.07,9.176a31.026,31.026,0,0,1-8.257,1.038l-2.9-4.415c.248-.191.5-.387.749-.615,4.8-4.121,9.032-7.622,11.015-13.942,1.973-6.279-1.931-12.218-1.8-7.57.15,4.637-4.374,10.255-4.374,10.255a24.426,24.426,0,0,0,1.141-9.254,21.815,21.815,0,0,0-3.145-8.335s-.924-.981.816,4.415-2.334,7.581-2.334,7.581a11.068,11.068,0,0,0-.971-7.395c-1.957-4.162-5.556-4.136-4.611-2.7.96,1.456,5.148,3.9,2.262,10.973a17.153,17.153,0,0,1-4.993,7.085l-.372-.563a24.8,24.8,0,0,0,1.864-2.375c1.828-2.763,2.83-10.71-2.716-15.595-3.052-2.7-9.388-4.415-14.531-5.422Zm21.048,32.006a16.139,16.139,0,0,0,4.493-6.192s-3.326,3.465-5.407,3.9c-.181.057-.356.077-.511.119Z" transform="translate(-729.787 -597.638)" fill="#d96e53" fill-rule="evenodd"/>
      <path id="Path_52" data-name="Path 52" d="M807.394,851.689l-.031.708a52.865,52.865,0,0,0,6.708,5.463c3.739,2.556-1.988-3.021-5.138-7.524S807.394,851.689,807.394,851.689Z" transform="translate(-720.643 -668.774)" fill="#f1b289" fill-rule="evenodd"/>
      <path id="Path_53" data-name="Path 53" d="M826.172,842.541l-1.874-2.85c-.238-.031-.491-.083-.744-.134-4.993-1.012-11.1-6.558-11.1-6.558s.547,2.257,6.269,6.031c2.7,1.782,4.849,3.011,7.451,3.511Zm-3.733-5.675a15.305,15.305,0,0,1-2.515-.935,30.144,30.144,0,0,1-4.162-2.4,31,31,0,0,0,5.319,1.265l1.358,2.071Zm-9.93,4.694c-10.3-6-12.342-8.3-12.755-8.928-.088-.129-.114-.176-.114-.176,1.172-.3,2.308-.615,3.455-.9,0,0,10.219,10.379,18.094,11.929,2.257.449,4.467.924,6.5,1.363l1.358,2.066A40.225,40.225,0,0,1,812.508,841.56Zm37.975-5.1L836.629,815.39l-2.339-.764a6.55,6.55,0,0,1,.909,2.8c.134,1.627-.563,5.014-5.933,8.076a21.035,21.035,0,0,1-3.418,1.529,24.913,24.913,0,0,1,5.381,1.41c8.613,3.336,6.863,6.078-2.83,6.687a34.549,34.549,0,0,1-7.317-.325l1.358,2.066c6,1.689,13.591.78,12.125,1.621A17.158,17.158,0,0,1,824.3,839.7l1.875,2.85c2.964.573,6.506.238,12.006-1.353,5.009-1.436,8.846-3.46,12.305-4.735Zm-22.8,8.386c5.05,1.1,8.882,2.04,8.882,2.04a30.978,30.978,0,0,1-7.519.026l-1.363-2.066Zm26.6-2.6c-3.042.537-4.57.294-7.787.95-3.233.63-1.88.362-1.88.362a18.7,18.7,0,0,0,3.589-1.363c1.41-.744,3.754-2.06,4.431-2.448l1.658,2.52Zm-13.555-25.535-4.105-1.317,13.855,21.069a21.514,21.514,0,0,1,3.181-.94c3.413-.687,6.558.64,11.34-.418a19.625,19.625,0,0,0,9.848-5.386c-9.765,5.892-15.523,2.732-17.573,2.308,12.171-.439,19.452-6.13,24.41-10.669a24.538,24.538,0,0,0,4.859-6.341l-2.974-4.524a14.357,14.357,0,0,1-3.992.847,37.827,37.827,0,0,0,3.563-1.5l-1.632-2.479c-2.9.568-7.2,1.368-16.586,6.083-10.891,5.453-24.193,3.269-24.193,3.269Zm11.913,23.031.212-.108a.841.841,0,0,0,.124.232,9.451,9.451,0,0,1,4.219-.594,10.716,10.716,0,0,0,5.169-.568c2.174-.62-5.019,3.021-8.061,3.558l-1.663-2.52Zm28.825-16.313s.217-.145,3.2-3.413a25.305,25.305,0,0,0,2.721-3.723l.387.589C884.121,822.583,881.467,823.424,881.467,823.424Zm.052-16.07,1.632,2.479c1.064-.511,2.417-1.157,4.11-1.988,5.892-2.974,6.506-6.305,6.506-6.305a19.59,19.59,0,0,0-2.789,1.4c-1.09.713-5.262,3.46-8.205,4.152-.372.088-.821.165-1.255.263Zm2.06,3.129a24.96,24.96,0,0,0,2.727-1.11c2.577-1.2,2.22,1.906.248,5.634l-2.974-4.523Zm4.2,6.393c.217-.331.465-.713.677-1.1,4.012-6.687,4.709-7.8,3.6-8.164-1.131-.346-1.472,2.587-1.472,2.587a61.372,61.372,0,0,1-3.191,6.088Z" transform="translate(-717.093 -645.999)" fill="#d96e53" fill-rule="evenodd"/>
      <path id="Path_54" data-name="Path 54" d="M936.993,835.513a92.089,92.089,0,0,1-14.836,9.977c-7.978,4.157-9.2,4.678-9.2,4.678a63.889,63.889,0,0,0,15.884-6.868c8.04-4.916,14.051-9.8,15.115-11.4a53.972,53.972,0,0,0,3.5-6.042,64.5,64.5,0,0,0,3.088-9.037C946.721,824.442,940.845,832.229,936.993,835.513Z" transform="translate(-771.895 -653.388)" fill="#d96e53" fill-rule="evenodd"/>
      <path id="Path_55" data-name="Path 55" d="M943.4,760.1l.186.284c-1.27.434-2.1.635-2.1.635s.785-.367,1.916-.919Zm-14.464,3.062c-7.937,5.221-13.984,5.3-13.984,5.3s10.446-4.286,17.232-10.648c3.078-2.9,4.859-4.689,5.9-5.809l.387.589A28.779,28.779,0,0,1,928.934,763.163Zm34.082-49.857a71.029,71.029,0,0,1,1.074,18.915,36.328,36.328,0,0,1-9.62,21.838c-3.119,3.357-8.066,5.4-10.885,6.321l-.186-.284a47.049,47.049,0,0,0,4.26-2.427c2.608-1.714,8.928-8.489,10.73-12.2,1.787-3.728,3.346-9.646,2.985-14.268-.367-4.586-1.5-8.918-1-10.71.521-1.807,1.632-4.72,1.074-5.19s-1.353.17-1.353.17l2.463-2.365.459.2ZM938.461,752.6a16.741,16.741,0,0,0,1.033-2.267,11.084,11.084,0,0,1-1.42,1.678Z" transform="translate(-772.858 -603.233)" fill="#f7cc82" fill-rule="evenodd"/>
      <path id="Path_56" data-name="Path 56" d="M973.723,800.92a4.174,4.174,0,0,0-2.561,2.494c-.573,1.874.47,3.274-3.036,9.78a106.179,106.179,0,0,1-9.156,13.5s8.489-8.169,11.851-14.991C974.219,804.891,973.723,800.92,973.723,800.92Z" transform="translate(-794.146 -645.699)" fill="#f7cc82" fill-rule="evenodd"/>
      <path id="Path_57" data-name="Path 57" d="M771.436,730.777c-9.62,33.865,20.31,62.612,51.928,62.374,27.492-.207,60.2-22.556,60.975-52.346,15.414-18.146,13.679-41.141,2.138-60.495,8.877,17.614,11.035,44.668-4.7,59.343.372,28.6-32.553,51.1-58.429,51.293-31.407.222-58.9-27.57-49.78-59.581,4.864-17.092,36.684-41.445,36.772-41.5C794.622,697.836,776.332,713.6,771.436,730.777Z" transform="translate(-702.568 -587.37)" fill="#30111f"/>
      <path id="Path_58" data-name="Path 58" d="M866.658,520.691l11.128-2.117c-10.421-8.314-11.7-18.032-26.387-15.631-10.209,1.668-23.212,5.675-28.959.392C830.537,526.82,849.225,515.831,866.658,520.691Z" transform="translate(-728.119 -501.414)" fill="#e99868" fill-rule="evenodd"/>
      <path id="Path_59" data-name="Path 59" d="M833.219,514.3c1.761.93,5.221,3.016,12.621.671s9.217-3.79,12.615-3.5a16.88,16.88,0,0,1,6.481,2.184,9.166,9.166,0,0,0-5.422-.573c-2.768.666-3.961.986-3.961.986s3.785-.873,6.176.3a78.507,78.507,0,0,1,8,5.541A110.736,110.736,0,0,1,858.5,522c-3.083.191-4.9-1.141-7.271-1.632s-10.9-.181-15.517-2.659c-4.606-2.453-8.448-7.963-8.448-7.963A57.89,57.89,0,0,0,833.219,514.3Z" transform="translate(-730.45 -504.886)" fill="#d96e53" fill-rule="evenodd"/>
      <path id="Path_60" data-name="Path 60" d="M875.416,517.823a14.864,14.864,0,0,0-4.637-4.921,26.4,26.4,0,0,0-4.064-2.53l3.981.558s-6.512-5.308-11.422-5.479S842.853,511.455,838.1,510a24.415,24.415,0,0,1-8.407-4.875,54.05,54.05,0,0,0,17.16-1.286c8.515-2.205,15.445-3.558,19.984.031,4.575,3.594,11.779,11.846,11.779,11.846Z" transform="translate(-731.625 -500.973)" fill="#f7cc82" fill-rule="evenodd"/>
      <path id="Path_61" data-name="Path 61" d="M880.307,520.33c-3.067-2.437-8.453-8.737-10.529-11.082-5.112-5.83-9.021-10.261-19.876-8.479h0c-8.773,1.441-23.155,6.945-30.162-.439,1.952,8.65,6.641,13.6,11.872,16.3,11.97,6.171,26.7-.8,39.545,5.665-12.982-8.748-27.875-.945-40.072-8.123-3.016-1.787-5.639-4.642-7.71-9.259,8.035,3.217,18.574-.6,26.862-1.967h0l.016.021c9.667-1.59,13.194,2.443,17.852,7.725C872,515.14,874.983,518.006,880.307,520.33Z" transform="translate(-726.813 -500.33)" fill="#30111f"/>
      <g id="Group_12" data-name="Group 12" transform="translate(161.617 117.225)">
        <path id="Path_62" data-name="Path 62" d="M963.065,729.559c2.448-2.293,3.362-1.993,4.059-1.363,10.266,13.9-5.252,24.978-12.254,29.486C954.922,748.247,955.748,736.334,963.065,729.559Z" transform="translate(-953.78 -727.535)" fill="#ec3724" fill-rule="evenodd"/>
        <path id="Path_63" data-name="Path 63" d="M957.6,742.7s-.96,7.921-1.2,10.013c-.227,2.112-.258,3.537-.258,3.537s3.961-9.987,5.169-13.116c1.2-3.155,3.6-6.512,3.894-5.117s-1.668,9.538-1.668,9.538,2.308-1.7,3.821-6.5c1.508-4.761,2.215-4.916,2.654-3.491a18.492,18.492,0,0,1,.5,3.408s.635-3.625.15-5.458c-.5-1.792-1.379-4.42-2.8-4.167-1.4.238-7.209,4.147-7.209,4.147Z" transform="translate(-954.395 -729.268)" fill="#a41e23" fill-rule="evenodd"/>
        <path id="Path_64" data-name="Path 64" d="M964.318,747.5a77.665,77.665,0,0,1-6.145,16.659c-2.8,5.3,3.315-1.307,9.28-8.1,4.6-5.231,3.914-10.483,3.914-10.483s-1.683,2.881-4.477,6.93a60.688,60.688,0,0,1-3.95,5.03A28.484,28.484,0,0,0,964.318,747.5Z" transform="translate(-955.039 -736.161)" fill="#f2653d" fill-rule="evenodd"/>
        <path id="Path_65" data-name="Path 65" d="M970.267,733.55s1.177,8.944-1.446,13.473-8.851,10.741-8.851,10.741,9.4-5.84,11.133-10.777c1.751-4.921,1.973-7,1.673-8.918S970.267,733.55,970.267,733.55Z" transform="translate(-956.247 -730.343)" fill="#feca7f" fill-rule="evenodd"/>
        <path id="Path_66" data-name="Path 66" d="M965.231,728.667c4.777,6.455,3.542,12.249.315,16.958-2.835,4.167-7.209,7.513-10.57,9.786a64.4,64.4,0,0,1,1.337-12.744c1.069-4.813,3.026-9.279,6.486-12.491l-1.508-1.627c-3.857,3.563-5.969,8.443-7.136,13.633a70.45,70.45,0,0,0-1.394,15.306l.016,2.014,1.673-1.1c3.573-2.288,9.321-6.284,12.92-11.521,3.713-5.432,5.128-12.094-.361-19.54Z" transform="translate(-952.76 -727.34)" fill="#30111f"/>
      </g>
      <path id="Path_67" data-name="Path 67" d="M807.21,688.5l-44.6-3.5s31.458-28.789,51.4-32c19.907-3.217,37.908,4.312,37.908,4.312s-6.326,12.259-16.065,17.294C826.157,679.652,807.21,688.5,807.21,688.5Z" transform="translate(-699.184 -573.777)" fill="#a41e23" fill-rule="evenodd"/>
      <path id="Path_68" data-name="Path 68" d="M910.5,605.53l.01-.129c-2.541-3.155,3.48-8.4,7.679-14.893,7.069-10.942,5.154-25.6-7.756-29.878-4.415-1.456-9.46-.506-11.009-3.289-1.844-3.367,5.071-16.54-2.184-18.094-23.852-19.974-67.533-11.9-88.1,14.335-9.465,12.083-6.186,27.152-3.021,35.755.744,2.035,3.357,8.04,5.871,13.7,2.685,6.021,4.544,11.216,6.656,17.268,1.064,3.036,2.82,6.558,5.577,8.479a36.447,36.447,0,0,0,8.913,3.981c14.567,4.715,30.446,6.982,45.7,4.833,13.8-1.978,24.9-8.18,30.023-22.551.862-.346,1.7-.589,2.468-.842,2.654-.842,5.685-2.773,6.45-5.019.573-1.782-.057-4.012-4.441-4.245A8.278,8.278,0,0,0,910.5,605.53Z" transform="translate(-718.665 -513.752)" fill="#e99868" fill-rule="evenodd"/>
      <path id="Path_69" data-name="Path 69" d="M976.539,671.182c-3.036-.31-3.733-5.112-3.238-7.431,1.141-3.336,1.141-4.611.919-5.092-7.942,3.7-18.585,4.095-22.773,8.469-5.68,5.949.217,14.154,8.293,13.984,8-.191,10.529-5.494,16.251-9.533A5.76,5.76,0,0,1,976.539,671.182Z" transform="translate(-789.418 -576.9)" fill="#891845" fill-rule="evenodd"/>
      <path id="Path_70" data-name="Path 70" d="M935.383,577.383s1.942,4.42,3.1,4.343c1.146-.1.413-1.642-2.37-5.076-2.825-3.439-12.027-6.729-12.027-6.729a67.224,67.224,0,0,1,6.7,3.6,17.288,17.288,0,0,1,4.6,3.863Zm.506-6c-4.374-3.759-5.747-4.193-5.747-4.193a30.688,30.688,0,0,1,6.76,3.651l2.592,2.1a8.387,8.387,0,0,0-1.2-2.448c-.568-.439.465-.713,2.195,1.921,1.745,2.654,4.26,9.13,3.207,10.224-1.033,1.084-4.136-6.093-4.136-6.093S940.263,575.137,935.89,571.383Z" transform="translate(-777.278 -532.664)" fill="#d96e53" fill-rule="evenodd"/>
      <path id="Path_71" data-name="Path 71" d="M923.819,540.192c-3.594-5.515-9.212-2.881-13.209-4.926-13.571-6.992-27.89-10.25-50.56.176,8.51-6.191,26.661-10,41.1-7.973,10.679,1.508,18.29,4.229,25.411,12.254C924.888,540.641,925.5,539.3,923.819,540.192Z" transform="translate(-746.307 -513.19)" fill="#f7cc82" fill-rule="evenodd"/>
      <path id="Path_72" data-name="Path 72" d="M951.6,553.314s2.866-4.5.955-6.455-5.82-1.838-7.333-2.53c-1.534-.671-1.151-.8-1.854-1.4-.682-.609-6.424-3.279-6.424-3.279s7.3,1.337,9.1,2.892c1.818,1.58,2.628,1.2,5.329,1.57s6.042-.145,7.57,1.467c1.492,1.606,3.449,3.868-1.472,9.223-4.906,5.376-7.73,9.228-7.73,9.228Z" transform="translate(-783.492 -519.346)" fill="#d96e53" fill-rule="evenodd"/>
      <path id="Path_73" data-name="Path 73" d="M938.581,652.7s-.826-3.909-2.38-3.852a15.921,15.921,0,0,1-3.641-.47s7.369-3.568,8.773-6.739c1.425-3.181,2.288-7.7,6.481-8.092a1.827,1.827,0,0,1,.377,0,34.923,34.923,0,0,1,4.957-10.271c4.074-5.169,6.186-4.942,6.186-4.942s-4.771,2.546-5.494,5.763a46.4,46.4,0,0,0-.754,5.479c-.217,1.234-2.122,4.446-3.728,6.687-.527,1.472-1.477,3.057-1.286,3.491.408.852,6.62,1.064,12.44-2.918s3.873-7.653,3.873-7.653,5.711,3.563,1.678,7.147c-4.012,3.6-15.574,5.164-18.714,6.45-3.155,1.265-6.682,5.329-7.467,7.307A11.2,11.2,0,0,1,938.581,652.7Z" transform="translate(-781.374 -557.4)" fill="#d96e53" fill-rule="evenodd"/>
      <path id="Path_74" data-name="Path 74" d="M839.609,661.237s2.148-.666,1.467-2.272c-.7-1.627-3.326.1-3.326.1q2.665-2.409,5.293-4.787a6.308,6.308,0,0,0,.413,5.179c1.456,2.778,1.394-1.291,2.184-2.933.775-1.663,2.721,1.012,1.849,2.525s.9,1.09,2.535-.733a24.918,24.918,0,0,1,5.179-3.78s-.914.6-2.148,3.842a11.2,11.2,0,0,0-.3,6.4s-.516-.785,3.511-6.641c4.043-5.835,6.326-4.348,6.326-4.348s-1.776.423-3.124,3.207c-1.219,2.453-2.721,6.708,2.128,10.343-2.117-3.124-3-8.118.521-10.436-3.558,3.491-1.756,7.229,2.133,9.78,5,3.248,13.5,4.575,18.554.785a24.515,24.515,0,0,0,5.148-3.449l4.436,6.739c-1.394,1.57-2.52,2.84-1.529,3.217a6.6,6.6,0,0,0,3.444-.3l4.291,6.522c-4.441,1.58-8.928,2.572-12.4,1.647-5.432-1.441-24.606.331-32.574-4.957-8-5.334-14-15.647-14-15.647Zm21.75-37.634a17.051,17.051,0,0,0,1.859,16.653c4.88,7.131,11.035,7.069,11.035,7.069s-2.272-.563-7.978-5.592c-5.691-5.009-4.854-14.154-4.854-14.154s.511-.837,1.239-2Zm37.226,56.591-4.291-6.522a68.939,68.939,0,0,0,9.564-3.548c4.493-2.024,7.276-3.475,5.4-1.5a61.367,61.367,0,0,1-6.77,5.386,29.346,29.346,0,0,0,7.839-3.475,35.3,35.3,0,0,0,4.467-3.718c1.7-2.148,3.573-4.751,3.005-4.281-.842.707-3.036,2.339-3.036,2.339l2.1-2.536a28.226,28.226,0,0,1,10.5-7.245c3.749-1.312,5.474-1.952,5.474-1.952.32-.553.676-1.1,1.022-1.668a3.651,3.651,0,0,1-1.126,3.542c-1.668,1.441-6.367,2.535-8.541,3.966a23.8,23.8,0,0,0-4.41,3.713,49.623,49.623,0,0,1-3.341,5.716,24.837,24.837,0,0,1-10.405,8.711c-2.339,1.043-4.88,2.153-7.452,3.067Zm-6.207-9.434-4.436-6.739a40.629,40.629,0,0,0,6.264-6.863,12.288,12.288,0,0,1,.32,3.9c-.129,2.36-4.6,6.982-2.251,5.438a14.792,14.792,0,0,0,4.064-4.947,13.505,13.505,0,0,1-1.059,5.21,14.991,14.991,0,0,1-2.9,4Zm-30.524-48.107c1.947-3.336,3.976-5.324,4.766-4.88.532.336-2.262,5.04-3.961,7.808l-1.3-1.978C861.519,623.277,861.679,622.952,861.855,622.652Z" transform="translate(-735.523 -557.097)" fill="#d96e53" fill-rule="evenodd"/>
      <path id="Path_75" data-name="Path 75" d="M934.25,584.218c1.291-.692-2.3-2.6-5.887-3.79-3.573-1.172-3.548-.47-1.033,1.554C929.835,584.043,932.939,584.926,934.25,584.218Z" transform="translate(-777.983 -538.792)" fill="#f7cc82" fill-rule="evenodd"/>
      <path id="Path_76" data-name="Path 76" d="M937.811,550.612c2.127.625,2.179,3.925,1.973,6.269-.15,2.091-.6,4.348-.966,6.584-.8,4.761-.093,7.193,5.83,6.878,4.012,7.235-5.3,12.641-10.539,15.373-4.89,2.561-3.713,8.8-8.438,16.3-4.121,6.476-12.507,13.989-21.885,13.178-12.373-1.053-26.031-17.795-16.989-29.568,7.865-10.25,26.264-11.355,32.083-16.617,4.425-3.971,6.635-10.844,11.36-14.882C932.069,552.585,935.115,549.833,937.811,550.612Z" transform="translate(-757.826 -524.581)" fill="#ec3724" fill-rule="evenodd"/>
      <path id="Path_77" data-name="Path 77" d="M945.6,561.09c-.031.331-.057.63-.078.924-.15,2.091-.6,4.348-.966,6.584s-.423,3.95.243,5.107c-.718.568-1.224,1.022-1.224,1.022s-.594.516.465,2.122.862,7.374-.351,8.794c-1.2,1.441-.919,1.725.511,1.348.558-.15,1.518-.155,2.582-.48a32.9,32.9,0,0,1-4.384,2.949l-.547-.263a13.536,13.536,0,0,1-4.6.966c-1.74-.134-4.555,4.771-4.126,5.706.269.6,1.338.707,2.763.361a73.919,73.919,0,0,1-2.856,7.921,5.25,5.25,0,0,0-3.331-.33s-3.9,6-8.376,7.157a24.029,24.029,0,0,1-12.078.248c-3.227-.929-6.574,4.446-6.5,6.455.016.212.026.418.052.651a26.008,26.008,0,0,1-7.069-5.35c1.5-1.172,2.53-2.6,2.427-3.558-.336-3.207-1.219-9.383.227-12.393,1.456-3.042,9.693-9.553,19.566-11.5s8.3-4.09,8.835-4.565c.5-.48,1.338-.475,2.8-2,1.5-1.513,6.305-10.064,8.422-12.956,2.081-2.9,6.9-4.136,6.9-4.136A8.514,8.514,0,0,0,945.6,561.09Z" transform="translate(-763.563 -529.714)" fill="#a41e23" fill-rule="evenodd"/>
      <path id="Path_78" data-name="Path 78" d="M972.3,611.5s-2.665,2.437-6.336-.067a7.489,7.489,0,0,1-3.594-5.985,12.773,12.773,0,0,0,4.585,4.647A13.508,13.508,0,0,0,972.3,611.5Z" transform="translate(-795.79 -551.167)" fill="#f2653d" fill-rule="evenodd"/>
      <path id="Path_79" data-name="Path 79" d="M972.422,553.864a3.158,3.158,0,0,0-3.945-.552c-2.37,1.275-6.76,5.443-9.362,9.207-.769,1.1-1.544,2.107-2.246,2.974-1.678,2.04-3.057,3.073-3.708,3.124a25.2,25.2,0,0,0,1.869-2.319c2.515-3.8,7.462-11.293,11.128-13.86,5.024-3.491,5.422-1.043,5.82-.62A5.075,5.075,0,0,1,972.422,553.864Z" transform="translate(-791.332 -524.637)" fill="#feca7f" fill-rule="evenodd"/>
      <path id="Path_80" data-name="Path 80" d="M891.731,608.78s-5.66,3.47-7.761,9.372a13.8,13.8,0,0,0,1.126,11.469c4.162,7.044,13.106,18.507,28.329,12.146C900.546,644.912,876.606,629.632,891.731,608.78Z" transform="translate(-757.509 -552.778)" fill="#f89a61" fill-rule="evenodd"/>
      <path id="Path_81" data-name="Path 81" d="M926.571,598.974a29.73,29.73,0,0,1-5.68,8.221c-4.606,4.648-10.963,9.14-17.888,8.557-6.274-.542-12.641-5.107-16.628-10.932l-.589-.893a20.256,20.256,0,0,1-3.47-12.14c.935-10.891,16.6-16.339,24.208-18.884.847-.279,1.637-.547,2.381-.785l.63.955c-.847.274-1.714.568-2.659.878-8.515,2.825-22.241,7.245-23.176,18.327-.873,10.137,9.434,20.831,19.354,21.657,6.574.568,12.641-3.083,17.036-7.529a30.016,30.016,0,0,0,5.845-8.4Zm2.417-43.919c-2.943,2.964-4.916,6.785-7.343,10.1-3.4,4.632-6.868,6.135-12.1,7.932l-.63-.955c5.329-1.792,8.639-3.16,12.006-7.834,2.437-3.346,4.369-7.235,7.41-10.23,3.537-3.48,7.8-6.47,9.956-4.276l.671,1.022a8.67,8.67,0,0,1,.63,3.042,15.21,15.21,0,0,1-.021,2.38h0c-.139,1.776-.454,3.666-.785,5.531h0l-.186,1.09c-.816,4.771.785,6.5,5.6,6.248,2.133,3.863,1.188,7.255-1.714,10.317a29.717,29.717,0,0,1-6.155,4.611c-4.1,2.386-5.711,3.537-7.24,8.407a48.2,48.2,0,0,1-2.515,6.548l-.63-.955a44.109,44.109,0,0,0,2.231-5.7c1.725-5.525,3.573-6.837,8.123-9.579a25.513,25.513,0,0,0,5.376-4.095c2.272-2.37,3.5-5.195,1.9-8.438-5.489.181-6.9-2.5-6.052-7.544l.186-1.09h0c.32-1.833.63-3.682.785-5.438h0a18.768,18.768,0,0,0,.062-2.128C938.231,547.325,933.1,550.888,928.988,555.055Z" transform="translate(-757.054 -523.886)" fill="#30111f"/>
      <path id="Path_82" data-name="Path 82" d="M967.856,580.06a9.705,9.705,0,0,1,3.243,1.668,12.126,12.126,0,0,1,3.935,5.417c3.109,9.6-5.334,16.184-10.281,6.2a14.507,14.507,0,0,1-1.4-5.061C963.079,584.883,965.9,582.683,967.856,580.06Z" transform="translate(-796.257 -538.888)" fill="#cbd9d3" fill-rule="evenodd"/>
      <path id="Path_83" data-name="Path 83" d="M974.775,583.15l.077.072a12.126,12.126,0,0,1,3.935,5.417c2.06,6.305-.909,11.314-4.56,11.159h0c-2.747-2.52-3.594-6.264-2.9-10.71A10.123,10.123,0,0,1,974.775,583.15Z" transform="translate(-800.011 -540.383)" fill="#f5f6ce" fill-rule="evenodd"/>
      <path id="Path_84" data-name="Path 84" d="M961.74,603.39c.016,2.107,1.947,4.234,3.537,5.52a8.416,8.416,0,0,0,5.092,2.195,9.158,9.158,0,0,0,3.5-1.022,8.4,8.4,0,0,1-8.056-2.489A50.594,50.594,0,0,0,961.74,603.39Z" transform="translate(-795.486 -550.171)" fill="#feca7f" fill-rule="evenodd"/>
      <path id="Path_85" data-name="Path 85" d="M967.18,580.1a9.381,9.381,0,0,1,3.057,1.57l.036.005h0c.207.176.418.351.64.547s.423.408.625.62a11.165,11.165,0,0,1,2.453,3.961c1.146,3.542.661,6.636-.651,8.526a4.483,4.483,0,0,1-1.756,1.591,3.437,3.437,0,0,1-2.122.274c-1.6-.289-3.295-1.694-4.72-4.622a12.938,12.938,0,0,1-1.337-6.909l-1.095-.15a14.171,14.171,0,0,0,1.425,7.565c1.606,3.243,3.62,4.844,5.5,5.195a4.587,4.587,0,0,0,2.82-.356,5.9,5.9,0,0,0,2.226-1.962c1.441-2.164,2.019-5.6.754-9.465a12.24,12.24,0,0,0-2.68-4.4c-.217-.232-.465-.47-.7-.692s-.48-.4-.7-.594h0l-.036-.005a10.439,10.439,0,0,0-3.455-1.745Z" transform="translate(-795.731 -538.4)" fill="#30111f"/>
      <path id="Path_86" data-name="Path 86" d="M922.042,614.39a15.026,15.026,0,0,1,8.288-2.365,14.083,14.083,0,0,1,9.156,9.8c2.215,9.006-8.789,15.719-15.729,9.662C919.729,627.966,916.6,618.9,922.042,614.39Z" transform="translate(-774.879 -554.345)" fill="#cbd9d3" fill-rule="evenodd"/>
      <path id="Path_87" data-name="Path 87" d="M936.505,617.841a14.206,14.206,0,0,1,3.987,6.723c2.215,9.006-8.789,15.719-15.729,9.662a14.4,14.4,0,0,1-3.553-5.262,18.318,18.318,0,0,1,5.6-8.484A11.9,11.9,0,0,1,936.505,617.841Z" transform="translate(-775.885 -557.083)" fill="#f5f6ce" fill-rule="evenodd"/>
      <path id="Path_88" data-name="Path 88" d="M929.677,612.073h0a11.54,11.54,0,0,1,1.683.666,13.394,13.394,0,0,1,7.085,8.737,8.784,8.784,0,0,1-.635,6.088,9.681,9.681,0,0,1-8.536,5.21,8.669,8.669,0,0,1-5.654-2.2,12.479,12.479,0,0,1-1.146-1.177,15.042,15.042,0,0,1-3.145-7.059,8.721,8.721,0,0,1,1.7-7.162,7.731,7.731,0,0,1,.852-.842l-.687-.857a7.268,7.268,0,0,0-.986.96,9.829,9.829,0,0,0-1.973,8.087,16.308,16.308,0,0,0,3.4,7.575,11.5,11.5,0,0,0,1.255,1.291,9.69,9.69,0,0,0,6.367,2.479,10.719,10.719,0,0,0,5.567-1.575,10.524,10.524,0,0,0,3.961-4.255,9.653,9.653,0,0,0,.733-6.837,14.87,14.87,0,0,0-5.907-8.417,12.894,12.894,0,0,0-1.74-1.038,9.3,9.3,0,0,0-1.88-.728h0Z" transform="translate(-774.376 -553.861)" fill="#30111f"/>
      <path id="Path_89" data-name="Path 89" d="M983.279,618.218l.4.139a22.073,22.073,0,0,0-3.63,3.573c-1.229,1.683-.754,1.647-.754,1.647a8.193,8.193,0,0,1,.594-3.692c.738-1.389-.738-.7-2.288.692l-1.534,1.41a11.187,11.187,0,0,1,3.449-4.322,11.769,11.769,0,0,1,3.837-1.745Z" transform="translate(-802.416 -556.231)" fill="#f7cc82" fill-rule="evenodd"/>
      <path id="Path_90" data-name="Path 90" d="M992.106,611.686c-8.9.868-10.416,8.5-10.483,11.722C980.415,620.341,982.4,610.715,992.106,611.686Z" transform="translate(-804.948 -554.15)" fill="#30111f"/>
      <path id="Path_91" data-name="Path 91" d="M1014.19,608.22s3.589,5.458,3.274,9.9c-.3,4.467-3.165,8.872-3.165,8.872s5.913-6.259,5.112-11.836A8.233,8.233,0,0,0,1014.19,608.22Z" transform="translate(-820.852 -552.507)" fill="#f7cc82" fill-rule="evenodd"/>
      <path id="Path_92" data-name="Path 92" d="M1005.33,612.356c-2.375,3.682-6.739,10.354-10.25,10.416-.847-.005-1.5-.723-2.546-1.5a26.667,26.667,0,0,1-1.973-5.37c-1.09-4.735-.8-10.875,3.289-14.371,4.24-3.6,8.262-1.885,10.7,2.117a14.622,14.622,0,0,1,1.415,3.522A5.782,5.782,0,0,1,1005.33,612.356Z" transform="translate(-809.161 -548.319)" fill="#ee6c64" fill-rule="evenodd"/>
      <path id="Path_93" data-name="Path 93" d="M1003.711,603.634s-2.711-2.794-5.438-1.591a9.17,9.17,0,0,0-5.308,6.512c-.677,3-2.35,3.01-1.813-.955A10.533,10.533,0,0,1,997,599.958a5.494,5.494,0,0,1,6.723,1.745,11.073,11.073,0,0,1,2.319,4.425Z" transform="translate(-809.659 -548.262)" fill="#f5a3c7" fill-rule="evenodd"/>
      <path id="Path_94" data-name="Path 94" d="M993,622.173c-2.649-3.553-3.511-8.655-3.109-13.25.294-3.341,1.622-6.393,4.658-8.262a5.7,5.7,0,0,1,5.205-.558,8.015,8.015,0,0,1,4.4,4.7,19.182,19.182,0,0,1,1.151,5.536,6.979,6.979,0,0,0,.078-5.469,9.722,9.722,0,0,0-5.241-5.649,6.66,6.66,0,0,0-6.176.511c-3.15,1.606-5.247,5.381-5.639,9.656a21.365,21.365,0,0,0,1.1,7.782A8.58,8.58,0,0,0,993,622.173Z" transform="translate(-808.323 -547.901)" fill="#30111f"/>
      <path id="Path_95" data-name="Path 95" d="M854.686,536.573a90.528,90.528,0,0,0-19.091,9.285c-9.744,6.253-13.225,11.531-13.225,11.531s4.415-4.647,6.367-5c1.967-.325-.341,2.561-.341,2.561s2.69-.837,3.243-1.885c.532-1.038.258-2.071,4.735-5.014,4.456-2.933,5.1-4.038,7.7-4.384,2.628-.362,2.334-1.658,8.856-3.114,6.532-1.43,4.782-2.055,11.056-2.226s13.478-.016,8.7-1.079C867.884,536.175,854.686,536.573,854.686,536.573Z" transform="translate(-728.085 -517.823)" fill="#d96e53" fill-rule="evenodd"/>
      <path id="Path_96" data-name="Path 96" d="M816.047,619.759s-.909.036-2.277-2.613c-1.384-2.67-1.162-3.191-.036-3.181s-.511-1.348-1.936-4.363c-1.41-3-1.585-8.706-1.88-12.28-.274-3.589,1.9-8.572,1.9-8.572s-.527,12.368,1.239,16.473c1.75,4.079,3.568,6.842,5.6,6.811,2.071-.026,2.246-2.6,2.246-2.6a2.455,2.455,0,0,1,.17,3.1c-1.244,1.565-.341,2.654,1.157,2.045a12.622,12.622,0,0,1,4.952-.423c1.363.036,1.926.041,1.926.041a15.875,15.875,0,0,0-4.844,2.628c-2.2,1.818-1.905,3.119-1.905,3.119Z" transform="translate(-722.051 -543.091)" fill="#d96e53" fill-rule="evenodd"/>
      <path id="Path_97" data-name="Path 97" d="M986.835,677.629s4.2-.052,3.052,1.043-6.424,2.355-11.056,5.4-8.7,6.9-11.025,7.25c-2.685.986-6.119.785-7.87-1.115l-2.236-1.084s7.653,1.6,11.562.057c3.93-1.554,9.409-7.9,12.259-9.775A9.88,9.88,0,0,1,986.835,677.629Z" transform="translate(-793.532 -586.074)" fill="#f7cc82" fill-rule="evenodd"/>
      <path id="Path_98" data-name="Path 98" d="M989.946,699.329a28.384,28.384,0,0,1-5.236,8.334,39.643,39.643,0,0,1-7.08,6.522s7.328-2.639,10.953-7.736c3.646-5.107,4.327-8.67,4.327-8.67Z" transform="translate(-803.171 -595.819)" fill="#f7cc82" fill-rule="evenodd"/>
      <path id="Path_99" data-name="Path 99" d="M997,680.18c2.236-1.72,8.045-4.575,10.844-2.644,2.587,1.756.17,4.281-1.606,5.324a16.1,16.1,0,0,1-3.176,1.374c-4.42,1.379-8.18,4.663-9.119,8.866,2.35-3.723,6.119-5.613,10.121-6.873,2.313-.744,6-2.107,7.317-4.782,1.214-2.51.315-6.341-5.6-6.625A11.155,11.155,0,0,0,997,680.18Z" transform="translate(-811.058 -584.715)" fill="#30111f"/>
      <path id="Path_100" data-name="Path 100" d="M1007.054,639.531a40.736,40.736,0,0,0-3.924,7.441c-1.25,3.408,1.544.449,3.718-2.071a18.826,18.826,0,0,0,3.191-5.711,16.007,16.007,0,0,1-3.155,7.276c-2.6,3.2-4.859,5.066-5.634,7.818-.8,2.768-.067,3.873,1,4.544.165,1.012-.263.547-1.275,1.09s-1.993-1.9-2.417-3.486.656-3.548.465-4.792c-.181-1.219-2.21,2.324-2.019,4.694a10.782,10.782,0,0,0,1.8,4.637s-.3,1.2-1.307.238a9.372,9.372,0,0,1-2.468-8.061c.816-3.873,1.833-4.415,1.833-4.415A25.4,25.4,0,0,0,1007.054,639.531Z" transform="translate(-811.505 -567.484)" fill="#d96e53" fill-rule="evenodd"/>
      <path id="Path_101" data-name="Path 101" d="M991.81,588.14a6.619,6.619,0,0,1,1.182,4.921c-.3,3.284.635,3.475,1.89.408s1.369-4.172.093-4.544C993.684,588.527,991.81,588.14,991.81,588.14Z" transform="translate(-810.028 -542.796)" fill="#f2653d" fill-rule="evenodd"/>
      <path id="Path_102" data-name="Path 102" d="M1005.79,591.835s.088,2.406,2.029,3.181c1.931.754,5.654,1.73,7.668,5.076,2.009,3.382,3.016,7.333,2.876,9.631s3.067-7.746-2.752-13.514C1009.776,590.462,1005.79,591.835,1005.79,591.835Z" transform="translate(-816.789 -544.514)" fill="#f7cc82" fill-rule="evenodd"/>
      <path id="Path_103" data-name="Path 103" d="M813.668,568.99s-9.032,11.985-8.711,18.533c.325,6.512,2.386,13.1,2.468,14.263s-.8.868-.005,3.119c.775,2.262,2.83,6.956,2.83,6.956s5.562,10.018,6.512,15.962c.96,5.913,4.942,5.907,4.41,8.5-.558,2.608-1.27,1.523-.114,3s3.8,7.343,3.8,7.343a18.185,18.185,0,0,1-6.713-8.882c-2.453-6.331-11.681-26.708-13.323-30.482-1.606-3.77-3.6-17.314-1.477-24.6S813.668,568.99,813.668,568.99Z" transform="translate(-718.438 -533.535)" fill="#f7cc82" fill-rule="evenodd"/>
      <path id="Path_104" data-name="Path 104" d="M986.775,573.283s-1.291,3.527-.222,5.252c1.048,1.74,3.026,1.807,3.739,3.269s3.382-.728,2.282-1.5c-1.115-.8-5.277-.733-5.272-3.945a40.511,40.511,0,0,1,.677-6.646Z" transform="translate(-807.281 -533.883)" fill="#feca7f" fill-rule="evenodd"/>
      <path id="Path_105" data-name="Path 105" d="M800.593,573.875l3.274,4.978a95.421,95.421,0,0,0,7.844,22.437c-6.388-7.911-10.71-17.278-11.118-27.415Zm14.387,39.813,2.19-.32c1.942,12.615,11.815,17.4,22.742,20.273l.8,1.219c-8.789-1.193-16.845-3.873-21.59-10.472l-1-1.523A25.216,25.216,0,0,1,814.98,613.688Zm10.1-77.6,1.214,1.849c-11.082,6.259-20.573,15.461-22.845,27.208a36.857,36.857,0,0,0,.418,13.71l-3.274-4.978a38.252,38.252,0,0,1,.723-9.321c2.422-12.285,12.264-21.9,23.764-28.469Zm14.826,97.551c2.83.754,5.706,1.384,8.536,1.988-2.6-.16-5.195-.413-7.73-.769l-.806-1.219Zm19.044,3.424c9.357-.17,20.253-1.079,29.455-4.7l1.27,1.936C880.509,638.026,869.526,638.423,858.95,637.065Zm51.277-33.508-1.714,1.374c-3.491-4.307,5.128-12.378,7.606-16.184,3.258-5.04,4.864-11.453,3.284-17.361-.062-.238-.129-.475-.2-.682-2.164-6.987-8.087-10.255-15.037-11.071-2.985-.372-5.6-.707-6.852-2.938h0l-.016-.021h0c-.837-1.6-.315-4.312.263-7.276.852-4.389,1.828-9.486-1.7-10.25-11.051-11.546-29.62-12.693-44.688-10.168a78.614,78.614,0,0,0-24.885,8.954l-1.214-1.849a81.064,81.064,0,0,1,25.726-9.29c14.536-2.427,35.6-1.611,45.814,10.266,5.654,1.451,3.909,8.644,3.119,12.744-.516,2.582-.961,4.932-.47,5.82h0c.7,1.255,2.768,1.513,5.169,1.8,8.087.976,14.872,5.045,17.1,13.4,1.72,6.5.036,13.555-3.553,19.127-1.678,2.572-9.708,11.154-7.756,13.607Zm-3.413,10.813,2.04-.408A32.557,32.557,0,0,1,889.68,634.3l-1.27-1.936C896.688,629.1,903.618,623.572,906.814,614.37Z" transform="translate(-717.534 -512.595)" fill="#30111f"/>
      <path id="Path_106" data-name="Path 106" d="M864.49,898.86c7.7,9.011,17.149,10.87,27.214,3.439C884.206,911.4,873.331,910.551,864.49,898.86Z" transform="translate(-748.455 -693.064)" fill="#30111f"/>
      <path id="Path_107" data-name="Path 107" d="M845.262,939.18c.775,2.98-4.906,8.118-6.982,4.684C842.365,944.385,844.275,941.509,845.262,939.18Z" transform="translate(-735.779 -712.563)" fill="#30111f"/>
      <path id="Path_108" data-name="Path 108" d="M720.864,797.858c.253,2.138,1.983,5.05,4.09,4.224a2.213,2.213,0,0,0,1.084-2.99A4.9,4.9,0,0,0,719.5,797.1a8.664,8.664,0,0,0-4.446,5.51c-.568,2.928,1.368,5.489,4.921,5.639-3.491,2.174-6.749-1.074-7.271-4.374-.945-5.887,7.271-12.1,12.874-10.023,2.721,1.012,5.092,4.188,3.7,7.658-1.069,2.634-4.5,4.611-7.142,2.923A4.408,4.408,0,0,1,720.864,797.858Z" transform="translate(-675.011 -642.084)" fill="#e99868" fill-rule="evenodd"/>
      <path id="Path_109" data-name="Path 109" d="M714.3,807.752c-.661-2.9,1.043-6.042,2.835-7.72a5.262,5.262,0,0,1,3.217-1.647,2.749,2.749,0,0,1-1.074,1.3c-.769.444-4.462,3.682-3.625,6.465s1.673,3.351,3.026,4.085a5.543,5.543,0,0,0,1.823.733,4.392,4.392,0,0,1-3.357.057C715.393,810.3,714.3,807.752,714.3,807.752Z" transform="translate(-675.753 -644.465)" fill="#d96e53" fill-rule="evenodd"/>
      <path id="Path_110" data-name="Path 110" d="M723.769,795.713c-4.162-2.964-9.538,1.322-10.364,5.51a5.161,5.161,0,0,0,3.362,5.918c-3.7.253-5.494-5.138-4.482-7.859,1.219-3.264,5.262-5.923,8.7-6.47a5.994,5.994,0,0,1,6.4,2.954,4.959,4.959,0,0,1-.17,5.1c-3.258,4.854-8.458,1.017-8.732-3.475a6.305,6.305,0,0,0,3.031,7.069c5.5,2.546,10.55-5.5,7.188-10.147a9.106,9.106,0,0,0-7.968-3.449c-3.832.62-8.474,3.925-9.827,7.555a7.737,7.737,0,0,0,4.09,9.863,6.423,6.423,0,0,0,7.1-2.8c-3.3,1.988-8.169-.294-7.348-4.446a6.937,6.937,0,0,1,3.883-4.7,4.473,4.473,0,0,1,4.508.274,2.587,2.587,0,0,1,1.2,2.484c-.475,2.4-3.052.573-3.852-1.265-.041,1.121.516,2.871,1.415,3.336a2.414,2.414,0,0,0,1.477.4C726.594,801.052,725.984,797.277,723.769,795.713Z" transform="translate(-673.909 -640.802)" fill="#30111f"/>
      <path id="Path_111" data-name="Path 111" d="M741.071,798.175c.315-2.267.6-4.534.914-6.8,0,0-3.723-5.185-9.45-3.005-5.706,2.164-7.627,8.2-5.618,11.015,1.937,3.181,5.288,2.69,5.339,2.437-4.611-2.417-4.038-5.1-3.2-7.333a5.481,5.481,0,0,1,5.887-3.408C737.916,791.344,740.4,794.354,741.071,798.175Z" transform="translate(-681.549 -639.371)" fill="#d96e53" fill-rule="evenodd"/>
      <path id="Path_112" data-name="Path 112" d="M733.289,799.811a5.128,5.128,0,0,1-7.26.852,7.015,7.015,0,0,1-2.592-5.272c-.108-3.2,1.885-6.13,4.524-8.087l.857,1.307a9.847,9.847,0,0,0-2.411,2.489c-1.88,2.918-1.766,6.925,1.823,8.737a5.885,5.885,0,0,0,5.061-.026Zm-3.584-9.853a5.325,5.325,0,0,0-2.618,2.938c-.873,2.319-.145,6.976,3.837,4.983-3.155-.2-3.367-2.8-2.706-4.353a4.253,4.253,0,0,1,2.3-2.324Zm-.883-1.348-.857-1.306a12.625,12.625,0,0,1,4.952-2.231,8.432,8.432,0,0,1,7.147,1.869,2.888,2.888,0,0,1,.522.558l.372.563c.929,1.6,1.627,4.131,1.208,5.716a12.293,12.293,0,0,0-3.759-5.19,7.8,7.8,0,0,0-9.584.021Zm1.7,2.587a5.286,5.286,0,0,1,5.107.754,7.547,7.547,0,0,1,3.506,6.321c1.332-3.088-.31-6.243-2.7-7.942a6.6,6.6,0,0,0-6.723-.372Z" transform="translate(-680.237 -637.964)" fill="#30111f"/>
      <path id="Path_113" data-name="Path 113" d="M878.481,823a18.085,18.085,0,0,1-1.492,4.782c-1.6,3.449-4.508,7.823-7.529,9.811-16.416,10.8-41.234,21.606-61.388,16.3-21.461-5.634-34.252-29.3-34.242-53.012,13.483,55.016,58.858,53.921,96.188,29.274C872.837,828.3,875.75,825.1,878.481,823Z" transform="translate(-704.61 -645.68)" fill="#a41e23" fill-rule="evenodd"/>
      <path id="Path_114" data-name="Path 114" d="M869.45,837.6c-16.416,10.8-41.234,21.606-61.388,16.3-21.461-5.634-34.252-29.3-34.242-53.012a83.24,83.24,0,0,0,7.555,20.1c-1.854.878-2.69,1.642-2.783,2.112a4.533,4.533,0,0,0,.263,2.721s12.006,14.748,22.953,19.318c10.963,4.6-2.69,1.208-5.231-.609-1.456-1.033,1.167,3.532,11,6.124,18.528,4.823,47.126-1.565,61.006-15.177-1.725.79-9.987,5.51-10.885,5.758,11.082-7.069,18.063-13.782,19.452-15.414C878.368,826.436,874.624,834.192,869.45,837.6Z" transform="translate(-704.606 -645.68)" fill="#f2653d" fill-rule="evenodd"/>
      <path id="Path_115" data-name="Path 115" d="M955.9,844.81a32.23,32.23,0,0,1-5.117,6.233,46.139,46.139,0,0,1-5.494,4.482s2.721-1.167,3.79-1.621.341.522-3.486,3.79c-3.847,3.248-11.67,8.4-11.67,8.4s11.345-4.348,15.621-9.775A43.759,43.759,0,0,0,955.9,844.81Z" transform="translate(-782.032 -666.925)" fill="#feca7f" fill-rule="evenodd"/>
      <path id="Path_116" data-name="Path 116" d="M790.969,859.45s3.646,5.825,8,8.944,5.376,3.909,5.376,3.909a25.152,25.152,0,0,1-5.531-2.964c-1.735-1.5-2.3-2.071-2.3-2.071a53.8,53.8,0,0,0,5.933,6.563,75.834,75.834,0,0,0,7.679,5.851s-8.882-4.839-14.309-10.772c-5.412-5.907-6.718-9.316-6.718-9.316Z" transform="translate(-711.995 -674.005)" fill="#feca7f" fill-rule="evenodd"/>
      <path id="Path_117" data-name="Path 117" d="M843.229,844.9c-12.579,4.038-25.948,6.1-34.629,4.555-6.109-1.09-11.676-4.968-17.686-10.266-15.388-13.55-19.034-31.21-19.5-50.585,5.019,41.3,35.12,57.515,67.218,49.294l.759,1.151c-28.525,8.014-55.543-1.905-65.075-35.626,1.782,13.746,7.88,26.713,17.423,35.109a35.074,35.074,0,0,0,15.616,8.355c9.254,2.045,22.69.589,35.125-3.14Zm-3.847-5.846-.759-1.152c13.808-3.537,27.962-11.567,40.671-24.069a28.3,28.3,0,0,1-12.7,20.377c-6.155,4.141-14.557,7.89-23.367,10.694l-.759-1.152a96.548,96.548,0,0,0,9.4-3.377c11.066-4.632,21.983-11.469,23.785-21C864.112,828.92,851.605,835.617,839.382,839.051Z" transform="translate(-703.44 -639.741)" fill="#30111f"/>
      <path id="Path_118" data-name="Path 118" d="M895.912,798.291c-5.541,3.987-14.438,9.5-23.052,11.082a29.8,29.8,0,0,1-27.6-9.006c-.243-.274-.521-.558-.769-.837l.826-.733c.243.274.485.552.754.811,7.229,7.581,17.511,8.82,27.3,7.028,8.629-1.565,21.187-7.142,28.179-13.8a28.522,28.522,0,0,1-3.863,4.069c9.44.052,18.513-3.016,25.644-11.727C919.222,797.878,902.708,798.962,895.912,798.291Z" transform="translate(-738.782 -638.087)" fill="#30111f"/>
      <path id="Path_119" data-name="Path 119" d="M880.844,776.64c-2.277,9.13-9.806,15.92-18.884,15.662C872.092,796.48,880.715,785.109,880.844,776.64Z" transform="translate(-747.231 -633.957)" fill="#30111f"/>
      <path id="Path_120" data-name="Path 120" d="M796.066,729.55l16.53,3.584s11.867,9.14,10.348,21.508c-1.275,10.467-14.128,18.2-23.165,21.843,4.446.222,11.138,1.828,11.1,6.687-.785,6.713-10.7,10.777-20.18,10.658-9.032,5.071-29.434,5.593-32.662-7.173-6.4-5.474-8.872-13.013-7.555-18.828,2.463-11.03,12.305-18.182,20.279-20.6C775.766,735.953,783.729,730.438,796.066,729.55Z" transform="translate(-693.152 -611.184)" fill="#e99868" fill-rule="evenodd"/>
      <path id="Path_121" data-name="Path 121" d="M772.107,831.644l-.64.016a8.451,8.451,0,0,1-3.15,1.322,7.906,7.906,0,0,1-2.577.108s4.746,3.326,6.945,2.845c2.21-.522,5.742-1.874,5.37-1.632a13.034,13.034,0,0,1-3.145,1.942c-1.229.4,3.413,2.3,8.593-.764,5.164-3.088,6.961-5.329,8.9-6.073s1.575-.63,1.575-.63-4.24,2.7-5.928,4.771c-1.725,2.066.387.589,3.346-.831,2.985-1.43,5.35-2.148,7.374-2.949,2-.79,6.243-5.474,5.432-5.381-.775.1-7.4.444-9.45,1.358s-7.751,4.787-14.671,5.541C773.181,832,772.107,831.644,772.107,831.644Z" transform="translate(-700.698 -657.048)" fill="#d96e53" fill-rule="evenodd"/>
      <path id="Path_122" data-name="Path 122" d="M826.177,837.832c8.3.021,28.267-8.593,13.5-15.8a15.2,15.2,0,0,0-5.484-1.472c-2.2-.17-4.565,3.005-7.591,2.907C821.168,828.888,817.409,835.534,826.177,837.832Z" transform="translate(-727.399 -655.196)" fill="#ec3724" fill-rule="evenodd"/>
      <path id="Path_123" data-name="Path 123" d="M796.015,753.409c-.728,1.353-.31,10.235-.31,10.235s-.088-.129-.909-3.326c-.862-3.2-.325-7.885,1.967-13.163,2.277-5.3,5.438-10.054,15.239-12.92a11.2,11.2,0,0,1,1.461-.336l3.548,5.391c-5.345.589-11.076,2.241-14.108,4.358-4.446,3.1-6.176,8.386-6.889,9.76Zm37.794,11.428c-.351.418-.676.821-1.028,1.234-4.993,5.809-15.326,11.169-21.724,11.577-6.383.429-10.359-4.524-10.359-4.524s4.162,2.494,7.369,2.721,3.919,1.033,10.23-1.683,11.082-11.619,11.082-11.619-1.188,3.119-8.934,7.493-10.627.511-10.627.511,1.936,1.621,6.661-.243c4.11-1.611,9.713-6.92,11.722-14l5.608,8.531Zm-6.909-10.5a6.2,6.2,0,0,1-1.312,2.267,9.331,9.331,0,0,0,.656-3.264l.656,1Zm-9.595-14.588a7.365,7.365,0,0,0-3.651.842,12.33,12.33,0,0,1,5.024,1.244Zm-.3-.454-3.548-5.391c9.161-1.7,16.39,5.975,10.447,5.277a30.919,30.919,0,0,0-6.9.114Zm.3.454,1.374,2.086a11.914,11.914,0,0,1,3.393,2.5c3.584,3.842,4.162,6.14,4.172,8.469a4.465,4.465,0,0,1,.005.527l.656,1a9.014,9.014,0,0,0-.408-6.491c-2.282-5.6-6.822-7.72-8.8-8.04a1.67,1.67,0,0,0-.387-.057Zm16.5,25.091c4.333-5.345,6.682-10.25,5.629-11.051-1.115-.888-5.066,2.959-7.121-.738-2.066-3.656-.114-7.276,2.592-7.281a3.094,3.094,0,0,1,3.031,2.711s2.05-1.007.47-3.924l-.031-.041-.284-.434c-2.024-2.654-8.376-4.3-14.061-4.425-6.057-.16-1.172,1.487.475,2.9,1.658,1.43,5.277,1.73,4.343,10.441a18.676,18.676,0,0,1-.651,3.326Z" transform="translate(-714.562 -613.168)" fill="#d96e53" fill-rule="evenodd"/>
      <path id="Path_124" data-name="Path 124" d="M785.021,808.226c5.9,2.479,6.62,2.437,6.62,2.437s-5.314,3.713-10.7,3.992c-4.678.367-11-1.518-13.436-7.266,1.916,2.2,9.042,5.98,11.82,5.463-1.89-.935-6.78-3.2-8.779-6.718,3.6,2.866,13.385,5.432,11.459,3.646-4.193-3.909-7.266-7.4-8.035-13.87A22.535,22.535,0,0,0,785.021,808.226Z" transform="translate(-701.549 -643.276)" fill="#d96e53" fill-rule="evenodd"/>
      <path id="Path_125" data-name="Path 125" d="M772.635,768.391s-3.46-1.09-8.572,1.652c-5.1,2.763-8.913,9.94-8.913,9.94s3.3-4.73,7.1-6.821c3.816-2.107,4.172,2.458,4.384,4.343l.212,1.885a50.734,50.734,0,0,0,.594-5.159c.165-2.974,1.105-4.808,2.561-3.021,1.477,1.771,1.224,3.992,1.993,6.723a13.283,13.283,0,0,0,1.642,3.873s-1.4-6.15-.733-9.455c.677-3.279,1.312-6.341,1.312-6.341Z" transform="translate(-695.577 -628.816)" fill="#d96e53" fill-rule="evenodd"/>
      <path id="Path_126" data-name="Path 126" d="M762.584,793.347l-9.393-14.283c.439,4.074,2.344,8.112,6.326,12.223a9,9,0,0,0,3.067,2.06Zm-10.648-5.959a16.7,16.7,0,0,1-.083-10.348l.857,1.307a28.19,28.19,0,0,0,6.935,17.025,11.621,11.621,0,0,1-5.623-4.147l-1.028-1.565A14.9,14.9,0,0,1,751.936,787.388Zm14.929-5.768a19.454,19.454,0,0,1-3.708-8.34c-.94-5.923-.687-6.868-.687-6.868a2.357,2.357,0,0,0-2.36,1.43c-.857,1.683-1.611,3.708-.222,8.278.021.078.057.181.093.284a10.988,10.988,0,0,1-1.828-4.059c-.532-1.9-.449-4-1.4-3.935-.991.057-3.243,1.322-3.62,7.426a18.227,18.227,0,0,0,.067,3.227l9.393,14.283c5.055,2.1,11.412.062,11.412.062s-.888.026-3.48-.078a16.239,16.239,0,0,1-9.8-4.524,12.2,12.2,0,0,1-3.594-7.353,18.865,18.865,0,0,0,2.949,3.109,24.98,24.98,0,0,0,5.913,3.5,32.59,32.59,0,0,1-4.167-4.11,11.9,11.9,0,0,1-1.709-4.823s.2,1.146,3.775,3.279a22.911,22.911,0,0,0,6.491,2.768,19.022,19.022,0,0,1-3.517-3.553Zm-15.006-4.58a14.174,14.174,0,0,1,.857-2.246,27.1,27.1,0,0,0,0,3.553l-.857-1.307Zm24.952,4.549a25.6,25.6,0,0,1-4.317-6.568l4.317,6.568Zm-8.624-13.111a7.888,7.888,0,0,0,.041,2.618,19.652,19.652,0,0,0,4.358,8.1,23.264,23.264,0,0,0,5.3,4.647s-5.36-5.355-7.193-9.471a54.311,54.311,0,0,1-2.117-5.3Zm0,0a2.465,2.465,0,0,1,.083-.4s.083.32.3.981l-.387-.583Zm4.307,6.548,4.317,6.568a15.444,15.444,0,0,0,10.214,5.4,35.869,35.869,0,0,0,4.735-.093l-.961-1.456c-3.367-.341-6.894-1.291-9.512-3.522-6.837-5.846-8.489-14.944-8.138-20.563.046-.78.155-1.565.274-2.329l-.986-1.5a14.587,14.587,0,0,0-.8,1.957c-.465,1.8-2.5,6.006-.181,12.982a23.319,23.319,0,0,0,1.038,2.561ZM789.2,783a15.615,15.615,0,0,1-6.6-2.788c-8.205-5.66-6.522-12.187-6.522-12.187s2.422,9.651,9.553,12.249c.821.3,1.565.527,2.267.749L789.2,783Zm-9.9-10.932a13.9,13.9,0,0,1-2.37-7.725L778,765.978c.093.47.191,1,.279,1.56.909,4.885,6.4,9.5,7.643,10.483l.1.15C785.321,777.86,782.429,776.492,779.3,772.072Zm-6.858-14.552c1.441-3.067,4.157-8.03,4.157-8.03a40.14,40.14,0,0,0-3.171,9.527l-.986-1.5Zm4.487,6.827a15.587,15.587,0,0,1,.325-3.672,47.162,47.162,0,0,0,.749,5.3l-1.074-1.632Zm9,13.674a2.842,2.842,0,0,1,.258.2.53.53,0,0,0-.16-.052l-.1-.15Zm1.978,3c5.665,1.6,8.541.578,8.541.578a10.054,10.054,0,0,1-7.24,1.4l-1.3-1.978Zm3.857,5.871a41.091,41.091,0,0,0,9.46-2.05,37.709,37.709,0,0,1-10.421.594Z" transform="translate(-693.602 -620.827)" fill="#f1b289" fill-rule="evenodd"/>
      <path id="Path_127" data-name="Path 127" d="M767.28,844.827s2.525,2.515,4.792,2.267c2.3-.238,2.267-.057,1.523.279-.723.32,3.6,1.647,7.028.738a17.693,17.693,0,0,0,5.742-2.778,10.6,10.6,0,0,1-1.678,2.133c-.677.537,5.3-.558,6.982-1.508a20.992,20.992,0,0,1,2.613-1.188,4.92,4.92,0,0,0,.914,2.67c-5.722,2.05-12.915,4.663-18.652,3.419A15.748,15.748,0,0,1,767.28,844.827Z" transform="translate(-701.443 -666.905)" fill="#f1b289" fill-rule="evenodd"/>
      <path id="Path_128" data-name="Path 128" d="M835.57,823.688s-3.222,1.4-4.611,3.408c-1.4,1.983,1.787.258,6.868.873s5.582.816,6.692,1.7c1.136.873.083,2.685-.635,3.155-.738.485-12.337,5.061-12.337,5.061s6.589.5,11.882-2.582c5.257-3.088,7.436-6.976,6.4-8.789s-3.429-3.036-5.639-3.455a23.124,23.124,0,0,0-6.63-.186C836.835,823.1,835.57,823.688,835.57,823.688Z" transform="translate(-732.078 -656.239)" fill="#a41e23" fill-rule="evenodd"/>
      <path id="Path_129" data-name="Path 129" d="M766.1,839.295s2.5,5.835,11.175,6.481,15.8-1.983,15.636-1.472-15.61,5.438-21.337,2.789c-5.691-2.639-6.5-5.722-6.982-6.966s-.191-1.616-.191-1.616Z" transform="translate(-700.01 -663.878)" fill="#fbf49c" fill-rule="evenodd"/>
      <path id="Path_130" data-name="Path 130" d="M762.32,772.971s-9.249,9.946-9.811,16.669c-.552,6.687,1.725,12.476,4.234,15.156a13.454,13.454,0,0,0,5.086,3.475s-5.143.423-8.82-6.594c-3.666-7-4.26-11.4-2.489-15.058,1.807-3.646,4.193-8.02,7.694-11.412S762.32,772.971,762.32,772.971Z" transform="translate(-692.873 -632.09)" fill="#fbf49c" fill-rule="evenodd"/>
      <path id="Path_131" data-name="Path 131" d="M793.381,757.26s-3.542,9.057-2.133,15.7a37.768,37.768,0,0,0,5.055,11.9s-7.359-6.217-6.811-14.335A29.484,29.484,0,0,1,793.381,757.26Z" transform="translate(-712.171 -624.584)" fill="#fbf49c" fill-rule="evenodd"/>
      <path id="Path_132" data-name="Path 132" d="M774.329,776.244c2.055,1.7,5.546,3.083,10.369,3.553-4.327,4.219-23.738,10.6-29.284-.578-.516.212,5.742,18.869,31.231,1.451,4.049.232,8.056-.966,11.81-2.412,3.336.052,10.23.687,10.276,5.3-.935,7.529-12.605,9.724-19.07,9.646h0l-.036-.005a30.9,30.9,0,0,1-20.232,2.814c-5.092-1.012-10.261-3-11.6-8.314.63.057,1.255.108,1.905.15a19.675,19.675,0,0,1-9.088-11.779,16.24,16.24,0,0,1-.119-7.524l.021-.016h0c1.663-7.415,10.168-18.306,18.44-19.323.031,2.845.046,5.7.093,8.567,2.685-15.471,9.749-25.473,26.078-26.651-12.166-2.871-21.389,5.221-26.2,15.672-9.662,3.114-18.3,11.159-20.588,21.265l.016.021h0c-1.611,7.162,1.88,14.929,7.255,19.649,1.658,5.98,7.534,9.279,13.369,10.426,6.713,1.348,14.841.547,20.955-2.758,7.6.047,19.969-2.794,21-11.634.005-.036-.005-.057,0-.093.036-4.539-4.4-6.543-8.278-7.235,9.682-3.94,16.969-11.376,19.359-20.149C810.482,771.777,795.253,782.818,774.329,776.244Z" transform="translate(-692.097 -611.661)" fill="#30111f"/>
      <path id="Path_133" data-name="Path 133" d="M827.187,840.159c-10.033-2.184-7.39-10.338,1.146-14.929C818.816,827.192,815.051,841.166,827.187,840.159Z" transform="translate(-726.715 -657.456)" fill="#30111f"/>
      <path id="Path_134" data-name="Path 134" d="M795.634,724.319c-6.94,5.592-14.1,5.6-23.036,5-12.228-.831-24.513-4.214-36.839-4.394-22.768-.382-83,21.079-90.5,45.2,0,0-4.539-6.331-3.646-11.836s7.369-8.118,7.787-14.965c.207-3.284-1.332-5.1-1.208-7.519.1-2.592,2.845-6.326,7.08-8.892,9.083-5.51,25.788-11.794,42.163-16.116,15.579-4.11,30.88-6.512,39.426-1.291a93.192,93.192,0,0,0,36.271,13.519A119.645,119.645,0,0,0,795.634,724.319Z" transform="translate(-640.611 -600.045)" fill="#ec3724" fill-rule="evenodd"/>
      <path id="Path_135" data-name="Path 135" d="M729.868,730.855c-21.4-2.711-55.553,7.694-75.935,22.69-8.216,6.026-12.016,12.7-11.2,14.278l.072.108c.315.382,1.033.289,2.153-.418,2.391-1.477,5.014-6.352,9.775-9.858,9.76-7.229,18.848-10.932,30.885-16.266,17.877-7.958,44.244-10.534,44.244-10.534Zm-68.52,2.613c17.862-9.971,41.11-12.367,41.11-12.367s-7.7,1.358-25.5,8.768c-17.779,7.395-27.761,15.708-27.761,15.708S643.5,743.46,661.348,733.467Z" transform="translate(-641.16 -607.097)" fill="#f2653d" fill-rule="evenodd"/>
      <path id="Path_136" data-name="Path 136" d="M765,723.963s-19.013-6.837-31.448-4.859-42.53,9.78-56.338,20.237c-13.844,10.447-14.361,10.224-13.312,6.233s7.477-9.187,23.367-16.519c15.874-7.359,50.56-16.994,56.142-15.843s18.167,7.018,24.911,9.935c6.729,2.892,17.2,4.7,22,5.215a51.423,51.423,0,0,0,5.164.465s-15.068,1.813-20.934-.341A53.1,53.1,0,0,1,765,723.963Z" transform="translate(-651.281 -603.237)" fill="#a41e23" fill-rule="evenodd"/>
      <path id="Path_137" data-name="Path 137" d="M645.989,786.021c9.951-22.091,54.117-40.237,86.645-45.432-16.493-1.828-71.189,12-89.913,38.61C642.828,782.123,645.989,786.021,645.989,786.021Z" transform="translate(-641.204 -616.445)" fill="#f89a61" fill-rule="evenodd"/>
      <path id="Path_138" data-name="Path 138" d="M657.084,748.405c.609-.589,6.455-9.507,22.442-16.695,15.972-7.2,27.942-11.557,34.712-12.863l6.754-1.327s-21.249,1.27-39.953,10.86c-18.719,9.569-22.721,12.388-23.764,14.635C656.212,745.271,657.084,748.405,657.084,748.405Z" transform="translate(-647.988 -605.366)" fill="#f89a61" fill-rule="evenodd"/>
      <path id="Path_139" data-name="Path 139" d="M780.659,742.991c-12.517-1.079-21.249-3.186-28.706-4.2-21.916-3.057-40.454-2.83-64.729,8.185-13.132,5.99-37.221,16.008-43.315,28.427-2.406,4.916,2.019,8.329,2.019,8.329s23.119-30.534,60.98-38.987c37.846-8.479,52.687-2.293,62.653-1.869S780.659,742.991,780.659,742.991Z" transform="translate(-641.432 -614.839)" fill="#f89a61" fill-rule="evenodd"/>
      <path id="Path_140" data-name="Path 140" d="M797.079,724.052c-11.216,5.82-29.594,4.544-41.43,2.081-16.7-2.659-30.782-2.427-47,2.133-25.582,7.235-57.066,22.489-64.461,39.375-3.274-5.882-3.114-9.946,1.038-15.042,4.012-4.885,5.381-9.052,3.558-15.141-4.384-14.717,73.689-35.481,86.949-27.348,18.471,11.557,41.332,20.222,65.08,12.951-22.943,2.912-44.693-2.5-64.218-14.48-13.762-8.422-95.5,10.8-89.913,29.517,1.6,5.365.367,8.794-3.155,13.1-6.13,7.488-4.033,13.8,1.291,21.425,8.174-23.134,44.28-36.194,64.45-42.235,15.9-4.477,29.646-4.7,46.046-2.066C770.847,730.151,785.259,732.79,797.079,724.052Z" transform="translate(-639.784 -600.057)" fill="#30111f"/>
      <path id="Path_141" data-name="Path 141" d="M876.328,640.053c2.644,6.672,5.061,6.419,3.7,3.826-2.339-4.41-4.033-16.6-.764-23.139C874.567,626.291,873.529,632.953,876.328,640.053Z" transform="translate(-753.435 -558.562)" fill="#f1b289" fill-rule="evenodd"/>
      <path id="Path_142" data-name="Path 142" d="M861.578,641.7s4.358,7.57,4.333,4.5c-.01-3.047,1.58-9.011,1.58-9.011s-.423,7.973,1.833,12.781c2.22,4.8,3.563,7.312,1.286,4.513-2.3-2.788-4.3-4.4-3.976-3.677s-3.129-.873-4.183-4.322C861.386,643.067,861.578,641.7,861.578,641.7Z" transform="translate(-747.04 -566.517)" fill="#d96e53" fill-rule="evenodd"/>
      <path id="Path_143" data-name="Path 143" d="M833.73,649.031a19.02,19.02,0,0,1,13.054,5.024C843.33,648.045,834.009,645.329,833.73,649.031Z" transform="translate(-733.579 -571.428)" fill="#d96e53" fill-rule="evenodd"/>
      <path id="Path_144" data-name="Path 144" d="M841.641,638.828c-3.548.527-9.156,4.028-8.872,7.921C828.272,643.414,837.495,637.445,841.641,638.828Z" transform="translate(-732.531 -567.211)" fill="#1a121e"/>
      <path id="Path_145" data-name="Path 145" d="M784.82,667.276c3.95-3.47,7.033-2.474,7.312-4.937.367-3.14-5.334-9.1-9.135-11.092a54.957,54.957,0,0,0-14.645-2.143c-21.167-.408-32.791,21.755-53.4,20.3-.434,3.558,3.971,9.445,12.91,11.009,10.1,7.343,25.148,7.973,44.657-2.8A47.544,47.544,0,0,0,784.82,667.276Z" transform="translate(-676.123 -572.277)" fill="#e99868" fill-rule="evenodd"/>
      <path id="Path_146" data-name="Path 146" d="M725.672,680.695c-2.231-.31-4.255-1.4-4.2-1.131l.114.176.016.021c.687.764,3.388,3.16,6.594,3.109,3.2-.016,9.873-2.226,15.2-5.732,5.35-3.517,19.669-9.166,24.513-9.424a17.387,17.387,0,0,1,5.4.718l-3.062-4.653c-8.784.047-18.4,6.837-28.9,12.089-11.422,5.706-13.183,5.154-15.672,4.828Zm53.575-3.217a1.554,1.554,0,0,1-.32.181c-2.437,1.167-5.179,2.164-5.9,1.544-.723-.583,1.053-2.091,1.053-2.091s-.191.47.16.671c.336.181.682.238,2.282-.32a19.755,19.755,0,0,0,2.107-.919l.615.935Zm-11.918-2.969c-1.585-.8-.909-1.239-.444-1.482a9.61,9.61,0,0,0,1.384-.971,10.053,10.053,0,0,0,6.744,1.544c.522-.062,1.028-.145,1.534-.227l.573.868C772.715,674.979,768.775,675.237,767.329,674.509Zm2.907-10.731,3.062,4.653a42.125,42.125,0,0,1,6.749,2.634c1.5.723,8.056-1.529,5.954-1.8s-7.379-.94-5.262-1.084,7.772-.971,5.866-1.12c-1.869-.139-4.663-1.885-14.061-3.15a13.821,13.821,0,0,0-2.308-.134Zm6.31,9.589c3.331-.573,6.424-1.456,7.978-1.792a27.3,27.3,0,0,1,3.186-.506,47.941,47.941,0,0,1-9.264,2.918c-.449.078-.883.176-1.327.253l-.573-.873Zm2.7,4.11a20.044,20.044,0,0,0,4.694-4.085s-.041.031-1.74,1.146a32.26,32.26,0,0,1-3.568,2Z" transform="translate(-679.288 -579.374)" fill="#d96e53" fill-rule="evenodd"/>
      <path id="Path_147" data-name="Path 147" d="M791.213,663.336l-1.059-1.611c-.687-.047-1.472-.155-2.365-.284-3.718-.542-.434.475,3.424,1.9Zm2.82,4.281c-.439.134-.924.3-1.482.444-3.739,1-4.57,1.291-1.9-.465a12.552,12.552,0,0,1,2.535-1.26l.842,1.281ZM733.8,666.156c7.152-2.241,23.237-14.536,32.765-15.724,9.533-1.224,18.094,3.269,14.676,2.9-3.439-.351-12.156-.821-9.594-.047a57,57,0,0,1,6.352,2.551,62.3,62.3,0,0,0-12.027-.9c-7.255.1-22.484,11.985-32.274,15.621-9.8,3.615-14.263.005-14.263.005S726.654,668.417,733.8,666.156Zm52.579-11.691c5.954,3.558,12.7,8.092,3.78,7.26l1.059,1.611c.64.263,1.327.5,1.967.764,4.513,1.8,6.16,1.647,5.37.919-3.682-3.372,4.209-1.276,4.229-2l-.129-.2a1.992,1.992,0,0,0-.361-.263,54,54,0,0,0-7.369-5c-4.725-2.587-11.056-4.591-8.546-3.093Zm10.137,11.428c.6.2,0,.9-2.479,1.725l-.842-1.281A6.822,6.822,0,0,1,796.511,665.892Z" transform="translate(-678.302 -572.818)" fill="#f1b289" fill-rule="evenodd"/>
      <path id="Path_148" data-name="Path 148" d="M799.2,655.555s-8.98-4.374-17.185-3.682-15.29,2.8-25.546,8.422a114.894,114.894,0,0,1-18.079,8.123s10.529-5.866,18.44-10.6c7.89-4.72,19.055-8.391,26.238-8.6a28.754,28.754,0,0,1,17.6,5.737,20.774,20.774,0,0,1,4.813,4.715Z" transform="translate(-687.471 -572.329)" fill="#f7cc82" fill-rule="evenodd"/>
      <path id="Path_149" data-name="Path 149" d="M711.36,667.746c.826,5.283,1.637,8.737,10.514,12.052,4.6,1.74,8.851,4.456,13.658,5.654,11.737,2.933,24.379-.3,34.825-6.77a63.6,63.6,0,0,0,10.436-8.329,66.539,66.539,0,0,1,6.527-5.851c-2.974,1.208-5.665,2.324-7.756,4.26a77.033,77.033,0,0,1-9.357,7.462c-9.4,6.305-20.9,10.416-34.154,7.08-4.663-1.167-8.773-3.821-13.281-5.469-3.708-1.327-7.513-3.842-8.355-7.586a1.081,1.081,0,0,0-.052-.217c16.865.5,28.6-14.671,44.353-18.709a43.931,43.931,0,0,1,12.1-1.353,74.047,74.047,0,0,1,12.528,1.477,30.011,30.011,0,0,0-10.736-3.155,38.593,38.593,0,0,0-13.565.826C742.194,653.014,729.893,669.073,711.36,667.746Z" transform="translate(-674.399 -571.755)" fill="#30111f"/>
      <path id="Path_150" data-name="Path 150" d="M1091.926,613.95c-3.641,1.8-7.9,8.835-.583,10.663-5.474-4.529-.274-9.507,1.854-10.534l3.119.1c-15.006-5.484-1.451-20.444,5.768-23.387C1093.9,590.945,1081.273,607.221,1091.926,613.95Z" transform="translate(-856.228 -544.078)" fill="#30111f"/>
      <path id="Path_151" data-name="Path 151" d="M951.04,668.073c2.995-4.493,10.25-5.773,16.622-7.26a46.772,46.772,0,0,0,7.921-3.062c-.6,1.172.263,3.9-2.453,6.692-2.2,2.288-8.438,5.453-11.588,5.536-2.153.047-2.535-.542-2.535-.542a7.433,7.433,0,0,1-5.525,1.921C952.372,671.186,951.205,669.555,951.04,668.073Z" transform="translate(-790.311 -576.46)" fill="#cbd9d3" fill-rule="evenodd"/>
      <path id="Path_152" data-name="Path 152" d="M997.593,675.2l1.121-.707c-2.763-1.265-3.635-5.954-3.093-8.588l-.95,1.591C994.128,670.129,995.192,673.728,997.593,675.2Z" transform="translate(-811.344 -580.406)" fill="#30111f"/>
      <path id="Path_153" data-name="Path 153" d="M954.23,676.231a2.191,2.191,0,0,0,1.776.857c1.255.016,3.047-1.57,3.047-1.57s-.532-2.7-2.153-2.665c-1.585.052-2.67,3.377-2.67,3.377Zm13.55-2.37s-2.375,2.592-3.847,2.53a6.868,6.868,0,0,1-3.165-1.4s-.785-2.752.176-3.759a3.825,3.825,0,0,1,5.019-.465,4.905,4.905,0,0,1,1.141,1.121l.17.263A3.3,3.3,0,0,1,967.78,673.861Z" transform="translate(-791.854 -582.398)" fill="#f5f6ce" fill-rule="evenodd"/>
      <path id="Path_154" data-name="Path 154" d="M978.084,667.217s4.787-1.714,6.295-3.641a7.751,7.751,0,0,0,1.219-4.823l1.735-.583s.331,4.58-2.561,6.858a36.863,36.863,0,0,1-7.927,4.529c-.434.1-1.09-1.182-.738-1.694C976.437,667.367,978.084,667.217,978.084,667.217Z" transform="translate(-802.386 -576.663)" fill="#f5f6ce" fill-rule="evenodd"/>
      <path id="Path_155" data-name="Path 155" d="M972.222,663.713h0c-1.007,1.689-11.071,7.126-13.276,5.055l-.537-3.135-.315,3.073h0c-2.1,2.066-6.543,3.026-7.033-1.074l-1.1.129c.573,4.947,5.747,4.379,8.582,2.019,4.023,1.9,11.474-2.251,14.454-5.3h0l.021-.016c2.453-2.52,1.487-4.839,2.84-7.472C973.13,657.289,974.447,661.467,972.222,663.713Z" transform="translate(-789.789 -576.093)" fill="#686c85"/>
      <path id="Path_156" data-name="Path 156" d="M957.45,692.464a14.566,14.566,0,0,0,9.476,1.245c4.534-1.017,8.283-4.451,11.815-8.458-5.277.976-9.171.454-12.987,1.849C961.669,688.6,958.529,690.7,957.45,692.464Z" transform="translate(-793.411 -589.76)" fill="#c1245e" fill-rule="evenodd"/>
      <path id="Path_157" data-name="Path 157" d="M978.719,683.93a57.69,57.69,0,0,1-6.5.816c-5,.392-12.8,2.091-15.7,6.775l.775.707c2.732-4.415,10.338-6.021,15-6.372a29.682,29.682,0,0,0,4.932-.408Z" transform="translate(-792.962 -589.121)" fill="#30111f"/>
      <path id="Path_158" data-name="Path 158" d="M982.17,647.577a22.574,22.574,0,0,0-5.324,2.845,45.406,45.406,0,0,0-5.4,4.333c-3.341,3.067-6.331,5.815-12.207,5.975h0a11.749,11.749,0,0,1-8.293-3.14,8.683,8.683,0,0,1-2.835-6.016h0a8.118,8.118,0,0,1,2.411-5.758c2.566-2.685,7.307-3.9,12.44-5.19,6.295-1.652,12.011-3.666,16.488-7.42,4.549-3.832,9.729-11.634,7.121-17.826,4.591,6.79-1.585,15.063-6.279,18.678-5.035,3.9-11.676,6.212-17.072,7.617-4.947,1.291-9.563,2.458-11.9,4.926a6.927,6.927,0,0,0-2.107,4.937h0a7.727,7.727,0,0,0,2.5,5.272,10.568,10.568,0,0,0,7.519,2.809h0c5.438-.119,8.288-2.742,11.469-5.675a43.612,43.612,0,0,1,5.82-4.978A8.779,8.779,0,0,1,982.17,647.577Z" transform="translate(-788.894 -555.97)" fill="#30111f"/>
      <path id="Path_159" data-name="Path 159" d="M1006.431,616.977c-2.319,1.776-3.816-3.718-4.291-5.246,0,0,.021.077.6,1.193.563,1.095,2.293,2.918,3.093,1.766.723-1.033.558-2.7.816-2.406l.072.108a.647.647,0,0,1,.057.088c.408.914,1.172,3.31-.346,4.5Zm-8.231,1.27s.041.067.775,1.079c.718.991,2.747,2.613,3.486,1.508s.212-2.943.769-2.1c.542.826,1.591,3.036.114,4.193-1.2.914-2.365,0-3.284-1.3l-.5-.759A29.051,29.051,0,0,1,998.2,618.247Z" transform="translate(-813.119 -554.204)" fill="#f5a3c7" fill-rule="evenodd"/>
      <g id="Group_13" data-name="Group 13" transform="translate(189.066 55.131)">
        <path id="Path_160" data-name="Path 160" d="M1010.124,614.016c1.007-.692.785-2.974-.14-4.425-.687-1.229-1.642-2.164-2.639-1.689-1.043.5-.888,2.014-.439,3.31C1007.3,612.322,1008.507,615.111,1010.124,614.016Z" transform="translate(-1006.228 -607.423)" fill="#a61d43" fill-rule="evenodd"/>
        <path id="Path_161" data-name="Path 161" d="M1006.166,610.51a5.068,5.068,0,0,0,1.751,2.9c-.625-1.332-1.7-3.3-1.183-4.828.485-1.348,1.606-.682,2.272.279a7.126,7.126,0,0,1,1.09,2.463c.2,1.337-.351,3.16-1.782,2.355a1.324,1.324,0,0,0,2.148.052c.821-.976.594-2.417.052-3.708C1008.887,606.26,1004.88,605.811,1006.166,610.51Z" transform="translate(-1005.915 -607.092)" fill="#30111f"/>
      </g>
      <path id="Path_162" data-name="Path 162" d="M736.14,686.783c3.439-.362,9.455-2.484,14.35-5.7,3.739-2.458,11.867-5.969,18.079-7.937a30.494,30.494,0,0,1,10.452-1.11,32.482,32.482,0,0,1,5.685,1.869,1.118,1.118,0,0,1,.165.108c-3.073,1.678-13.659,1.725-10.849,4.054,2.825,2.35,12.972-.31,12.972-.31s-10.24,5.081-7.245,5.7,7.684-3.093,7.684-3.093c-5.086,7.519-19.571,13.431-30.947,12.662a14.745,14.745,0,0,1-6.961-1.059C746.318,690.8,742.414,688.884,736.14,686.783Z" transform="translate(-686.383 -583.319)" fill="#ee6c64" fill-rule="evenodd"/>
      <path id="Path_163" data-name="Path 163" d="M736.14,686.783c3.439-.362,9.455-2.484,14.35-5.7,3.739-2.458,11.867-5.969,18.079-7.937a30.494,30.494,0,0,1,10.452-1.11,32.482,32.482,0,0,1,5.685,1.869,1.118,1.118,0,0,1,.165.108c-3.073,1.678-13.659,1.725-10.849,4.054,2.825,2.35,12.972-.31,12.972-.31s-10.24,5.081-7.245,5.7,7.684-3.093,7.684-3.093a21.5,21.5,0,0,1-5.541,5.355,1.979,1.979,0,0,0-1.9-.9c-1.957.48-1.451-.976-3.207-.475-1.745.522-9.884,2.825-6.718,1.053,3.186-1.787,4.947-3.754,2.257-4.384-2.665-.646-6.434.212-16.38,4.172a37.554,37.554,0,0,1-16.137,2.887C738.665,687.64,737.457,687.221,736.14,686.783Z" transform="translate(-686.383 -583.319)" fill="#d86161" fill-rule="evenodd"/>
      <path id="Path_164" data-name="Path 164" d="M750.6,703.328s5.784,1.647,15.729.713a145.7,145.7,0,0,0,18.91-3.031c2.117-.429-2.871,3.444-10.3,5.277-7.431,1.864-15.631,1-19.3-.418A21.908,21.908,0,0,1,750.6,703.328Z" transform="translate(-693.376 -597.365)" fill="#f498c1" fill-rule="evenodd"/>
      <path id="Path_165" data-name="Path 165" d="M783.271,673.109a30.728,30.728,0,0,1-4.761.857c-7.049,1.022-7.792,4.968-.217,4.782a36.546,36.546,0,0,0,4.761-.485c-6.749,3.94-4.56,6.708,1.182,3.739-8.2,7.854-23.1,11.335-33.7,9.424,12.724,4.808,31.1-2.3,38.605-13.431-6,4.663-15.6,6.212-2.272-.563l2.556-1.368a63.083,63.083,0,0,1-11.934,1.56c-5.918-.093-3.367-1.993.955-2.623,2.845-.408,5.556-1.353,8.365-1.2-3.258-1.689-5.9-3.341-9.78-3.5-10.173-.408-22.9,7.09-30.038,11.066-3.759,2.1-7.617,3.95-11.634,4.57,2.6,1.25,7.229-.708,11.887-3.238C756.3,677.767,772.545,667.269,783.271,673.109Z" transform="translate(-686.006 -582.519)" fill="#30111f"/>
      <path id="Path_166" data-name="Path 166" d="M964.632,735.3c-1.6,6-5.9,9.078-8.908,9.563s-7.756-6.486-5.288-10.075c1.157-1.694,3.646-2.272,6.233-3.073C960.552,730.564,966.775,727.193,964.632,735.3Z" transform="translate(-789.687 -611.418)" fill="#30111f" stroke="#22160f" stroke-miterlimit="10" stroke-width="0.03" fill-rule="evenodd"/>
      <path id="Path_167" data-name="Path 167" d="M964.927,736.255c-1.291,4.616-4.684,7.038-7.038,7.436s-5.975-4.916-4.007-7.7c.909-1.317,2.845-1.781,4.859-2.417C961.787,732.62,966.656,729.981,964.927,736.255Z" transform="translate(-791.412 -612.467)" fill="#a41e23" fill-rule="evenodd"/>
      <path id="Path_168" data-name="Path 168" d="M968.294,736.265c-1.291,4.617-4.684,7.038-7.038,7.436a2.111,2.111,0,0,1-.976-.109c1.74-.955,2.783-2.2,4.425-5.061a6.924,6.924,0,0,0,.671-5.985l-.005-.057C967.644,731.871,969.472,732.036,968.294,736.265Z" transform="translate(-794.78 -612.477)" fill="#ec3724" fill-rule="evenodd"/>
      <g id="Group_14" data-name="Group 14" transform="translate(146.609 122.573)">
        <path id="Path_169" data-name="Path 169" d="M942.444,747.566c-6.765,13.483-12.858,27.518-13.509,26.3-3.651-6.971-4.3-25.334,3.129-31.8,3.558-3.119,7.71-4.854,10.2-4.245S945.563,741.375,942.444,747.566Z" transform="translate(-924.953 -737.696)" fill="#ec3724" fill-rule="evenodd"/>
        <path id="Path_170" data-name="Path 170" d="M943.143,738.532a64.971,64.971,0,0,0-4.043,11.474c-2.112,7.777-6.63,21.647-7.188,22.36-.584.723,12.058-17.087,14.144-23.63,2.071-6.563.971-9.982.522-10.529s-2.36-.32-2.763-.176A1.319,1.319,0,0,0,943.143,738.532Z" transform="translate(-927.66 -737.776)" fill="#a41e23" fill-rule="evenodd"/>
        <path id="Path_171" data-name="Path 171" d="M928.712,756.65c2.386-7.55,7.431-10.865,7.679-9.538s-2.943,4.054-4.709,14.433a143.1,143.1,0,0,0-1.988,16.54C929.114,771.558,926.305,764.215,928.712,756.65Z" transform="translate(-925.658 -742.112)" fill="#f2653d" fill-rule="evenodd"/>
        <path id="Path_172" data-name="Path 172" d="M945.725,737.941a37.25,37.25,0,0,1-4.611,13.591c-4.074,7.255-7.6,14.159-8.489,17.64-.909,3.5-.78,4.312-.78,4.312a122.336,122.336,0,0,1,6.827-12.682c3.434-5.339,8.283-12.362,8.164-16.333C946.794,742.067,947.842,737.7,945.725,737.941Z" transform="translate(-927.634 -737.81)" fill="#feca7f" fill-rule="evenodd"/>
        <path id="Path_173" data-name="Path 173" d="M942.805,738.283c1.446,8.923-12.218,24.42-14.645,33.617-2.737-7.049-3.067-16.452-.145-23.423,2.226-5.329,6.548-9.414,13.731-10.71C920.125,736.1,921.3,765.45,927.98,776.32,931.785,764.717,948.413,747.614,942.805,738.283Z" transform="translate(-923.697 -737.697)" fill="#30111f"/>
      </g>
      <g id="Group_15" data-name="Group 15" transform="translate(168.444 47.253)">
        <path id="Path_174" data-name="Path 174" d="M971.013,602.085c-1.658-.062-2.98-1.683-3.744-3.517a7.991,7.991,0,0,1-.707-3.4c.083-1.58.754-2.928,2.458-2.8,1.658.155,2.98,1.683,3.734,3.5a6.785,6.785,0,0,1,.64,4.095A2.539,2.539,0,0,1,971.013,602.085Z" transform="translate(-966.257 -592.091)" fill="#be2d29" fill-rule="evenodd"/>
        <path id="Path_175" data-name="Path 175" d="M970.721,602.094a2.383,2.383,0,0,0,1.854-.785l-.315-.48a1.909,1.909,0,0,1-1.518.718h0a2.46,2.46,0,0,1-.6-.1,1.92,1.92,0,0,1-.583-.268,6.179,6.179,0,0,1-2.319-2.959h0c-.078-.165-.134-.346-.2-.491-.041-.16-.119-.325-.165-.485a6.928,6.928,0,0,1-.331-2.3h0l.016-.165h0a3.249,3.249,0,0,1,.568-1.745l-.315-.48c-.031.052-.072.078-.1.129A3.8,3.8,0,0,0,966,594.73h0l-.016.165h0a7.527,7.527,0,0,0,.367,2.5,2.948,2.948,0,0,0,.176.506,4.262,4.262,0,0,0,.191.527h0a6.776,6.776,0,0,0,2.561,3.233,2.539,2.539,0,0,0,.671.31,3.458,3.458,0,0,0,.769.124Zm-3.594-9.068.021-.016a1.66,1.66,0,0,1,1.5-.609h.093a3.6,3.6,0,0,1,.615.124,2.785,2.785,0,0,1,.584.269,6.249,6.249,0,0,1,2.293,2.918,11.736,11.736,0,0,1,.615,1.931,4.554,4.554,0,0,1,0,1.993h0a3.839,3.839,0,0,1-.124.423h0a1.588,1.588,0,0,1-.191.372h0a3.152,3.152,0,0,1-.269.4l.315.48a3.148,3.148,0,0,0,.423-.589h0a2.377,2.377,0,0,0,.227-.46h0a2.658,2.658,0,0,0,.155-.475l.021-.016h0a4.91,4.91,0,0,0-.031-2.226,10.884,10.884,0,0,0-.63-2.045,6.6,6.6,0,0,0-2.535-3.191,3.053,3.053,0,0,0-.671-.31,2.684,2.684,0,0,0-.759-.155h-.093a2.23,2.23,0,0,0-1.874.7Z" transform="translate(-965.98 -591.836)" fill="#30111f"/>
        <path id="Path_176" data-name="Path 176" d="M972.564,605.271a3.265,3.265,0,0,1-2.473-1.673,1.639,1.639,0,0,1,.4-.95.947.947,0,0,1,.418-.212,2.05,2.05,0,0,0,.589.516.974.974,0,0,0,1.637-.547.569.569,0,0,0,.372-.336c.145-.346.434-.909.733-1.539a5.607,5.607,0,0,1,.351,2.949A2.188,2.188,0,0,1,972.564,605.271Z" transform="translate(-967.968 -596.041)" fill="#eb5633" fill-rule="evenodd"/>
        <path id="Path_177" data-name="Path 177" d="M972.892,607.481a3.1,3.1,0,0,1-2.122-1.188c.2-.6.279-1.09.961-1.193.036.005.052.031.1.057a1.207,1.207,0,0,0,.986.222c1.043,1.492,1.813.862,2.1.3A2.177,2.177,0,0,1,972.892,607.481Z" transform="translate(-968.297 -598.251)" fill="#f5be17" fill-rule="evenodd"/>
        <path id="Path_178" data-name="Path 178" d="M973.206,601.076c-.139.589-.676,1.007-1.456.491a2.21,2.21,0,0,1-.929-1.131c-.356-.826-.434-2.365.7-2.3C972.664,598.221,973.465,600.1,973.206,601.076Z" transform="translate(-968.208 -594.883)" fill="#2f1111" fill-rule="evenodd"/>
        <path id="Path_179" data-name="Path 179" d="M972.737,594.87c-.119.48-.547.826-1.193.413a1.945,1.945,0,0,1-.764-.93c-.294-.682-.351-1.952.563-1.9C972.282,592.52,972.933,594.085,972.737,594.87Z" transform="translate(-968.208 -592.136)" fill="#e1e6c6" fill-rule="evenodd"/>
        <path id="Path_180" data-name="Path 180" d="M973.058,605.651c-.072.269-.3.444-.646.207a.972.972,0,0,1-.423-.5c-.15-.367-.181-1.033.3-1.007C972.815,604.38,973.151,605.217,973.058,605.651Z" transform="translate(-968.839 -597.887)" fill="#e1e6c6" fill-rule="evenodd"/>
      </g>
      <g id="Group_16" data-name="Group 16" transform="translate(151.406 61.936)">
        <path id="Path_181" data-name="Path 181" d="M938.766,631.44c-2.138.067-3.852-1.735-4.854-3.785a8.675,8.675,0,0,1-.919-3.909c.119-1.854.981-3.48,3.2-3.475,2.138.026,3.852,1.735,4.818,3.775a7.17,7.17,0,0,1,.831,4.72A3.422,3.422,0,0,1,938.766,631.44Z" transform="translate(-932.986 -620.27)" fill="#be2d29" fill-rule="evenodd"/>
        <path id="Path_182" data-name="Path 182" d="M940.767,634.894a3.966,3.966,0,0,1-3.207-1.751,2.221,2.221,0,0,1,.532-1.131,1.187,1.187,0,0,1,.542-.263,2.862,2.862,0,0,0,.733.547,1.367,1.367,0,0,0,2.133-.78.94.94,0,0,0,.5-.423c.176-.4.542-1.074.909-1.844a5.491,5.491,0,0,1,.465,3.4A2.924,2.924,0,0,1,940.767,634.894Z" transform="translate(-935.198 -624.613)" fill="#eb5633" fill-rule="evenodd"/>
        <path id="Path_183" data-name="Path 183" d="M941.221,637.67a3.577,3.577,0,0,1-2.721-1.2c.207-.728.362-1.3,1.208-1.477.052.031.088.036.114.083a1.683,1.683,0,0,0,1.3.176c1.348,1.668,2.339.857,2.706.181A2.912,2.912,0,0,1,941.221,637.67Z" transform="translate(-935.653 -627.389)" fill="#f5be17" fill-rule="evenodd"/>
        <path id="Path_184" data-name="Path 184" d="M941.587,630.235a1.17,1.17,0,0,1-1.864.666,2.656,2.656,0,0,1-1.229-1.25c-.449-.919-.511-2.716.919-2.721C940.9,626.914,941.908,629.057,941.587,630.235Z" transform="translate(-935.513 -623.491)" fill="#2f1111" fill-rule="evenodd"/>
        <path id="Path_185" data-name="Path 185" d="M940.985,623.046a.966.966,0,0,1-1.539.547,2.167,2.167,0,0,1-1.012-1.017c-.351-.769-.4-2.226.764-2.246C940.417,620.335,941.258,622.086,940.985,623.046Z" transform="translate(-935.514 -620.299)" fill="#e1e6c6" fill-rule="evenodd"/>
        <path id="Path_186" data-name="Path 186" d="M941.415,635.6c-.083.3-.372.527-.831.3a1.306,1.306,0,0,1-.522-.558c-.2-.4-.222-1.193.4-1.2C941.11,634.145,941.559,635.064,941.415,635.6Z" transform="translate(-936.347 -626.978)" fill="#e1e6c6" fill-rule="evenodd"/>
      </g>
      <path id="Path_187" data-name="Path 187" d="M955.19,572.282c1.136,1.492,2.53,3.754,2.876,2.809,1.751-4.487,5.706-11.355,9.083-14.882,5.851-6.119,6.863-2.3,4.7.615-.072.077-2.51,1.776-2.474,1.874a21.956,21.956,0,0,0-1.9,1.993,39,39,0,0,0-4.761,6.775c-2.148,4.028-2.964,7.71-3.971,8.216C957.891,580.131,955.19,572.282,955.19,572.282Z" transform="translate(-792.318 -527.707)" fill="#f2653d" fill-rule="evenodd"/>
      <path id="Path_188" data-name="Path 188" d="M963.091,574.667l-.031.052a49.975,49.975,0,0,0-2.246,4.968c-.651,1.611-1.1,2.778-1.477,2.964-.356.17-2.406-4.369-2.406-4.369.005,1.337,1.281,6.166,2.918,5.339.733-.356,1.25-1.694,1.983-3.517a49.406,49.406,0,0,1,2.19-4.864l.052-.067a40.448,40.448,0,0,1,8.985-11.113C968.373,565.552,965.388,570.35,963.091,574.667Z" transform="translate(-793.16 -531.151)" fill="#30111f"/>
      <path id="Path_189" data-name="Path 189" d="M923.926,593.71s3.765,4.875,3.052,6.868c-.728,1.973-9.285,1.467-17.092,5.6-6.031,3.191-10.658,7.477-11.774,14.35-1.11,6.93-5.722-1.4-.2-9.021,2.918-4.038,6.491-7.229,9.445-8.515,5.1-2.2,13.1-3.475,15.987-4.255C926.26,597.97,923.926,593.71,923.926,593.71Z" transform="translate(-763.331 -545.49)" fill="#f2653d" fill-rule="evenodd"/>
      <path id="Path_190" data-name="Path 190" d="M948.7,589.9a31.357,31.357,0,0,1,2.1,6.5,3.18,3.18,0,0,1-1.642,3.134s3.506.5,3.826-.429c.31-.95-.4-3.258-1.776-5.685A17.272,17.272,0,0,0,948.7,589.9Z" transform="translate(-789.18 -543.647)" fill="#feca7f" fill-rule="evenodd"/>
      <path id="Path_191" data-name="Path 191" d="M925.7,590.47s3.775,6.641,3.181,8.34c-.181.434-3.465,1.033-7.648,2.195-8.551,2.386-24.069,8.727-20.48,20.387.346-11.877,10.431-16.111,21.172-19,3.919-1.053,7.612-2.2,7.989-3.2C930.823,596.6,927.327,592.515,925.7,590.47Z" transform="translate(-765.736 -543.923)" fill="#30111f"/>
      <g id="Group_17" data-name="Group 17" transform="translate(184.521 60.152)">
        <path id="Path_192" data-name="Path 192" d="M1002.112,624.091c1.038-.837.625-3.31-.532-4.787-.821-1.3-1.926-2.221-2.969-1.627-1.084.62-.785,2.262-.191,3.646C998.91,622.49,1000.469,625.424,1002.112,624.091Z" transform="translate(-997.487 -617.144)" fill="#a61d43" fill-rule="evenodd"/>
        <path id="Path_193" data-name="Path 193" d="M997.526,620.619a5.59,5.59,0,0,0,2.128,2.995c-.764-1.4-2.107-3.439-1.663-5.133.408-1.513,1.7-.867,2.51.124a7.649,7.649,0,0,1,1.368,2.556c.315,1.477-.139,3.486-1.73,2.727a1.438,1.438,0,0,0,2.319-.124c.816-1.126.454-2.67-.243-4.012C1000.139,615.786,995.76,615.615,997.526,620.619Z" transform="translate(-997.115 -616.816)" fill="#30111f"/>
      </g>
      <path id="Path_194" data-name="Path 194" d="M906.51,710.928c5.68,8.164,22.132-3,19.654-7.818C924.372,710.427,912.7,714.274,906.51,710.928Z" transform="translate(-768.776 -598.397)" fill="#1a121e"/>
      <path id="Path_195" data-name="Path 195" d="M902.161,678.3c6.589.4,12.455,2.835,8.314,5.773s-12.233,5.365-17.3,1.725C886.984,681.37,899.042,678.111,902.161,678.3Z" transform="translate(-761.483 -586.396)" fill="#f1b289" fill-rule="evenodd"/>
      <path id="Path_196" data-name="Path 196" d="M875.735,691.4c-5.231-8.427,14.98-17.857,18.409-13.638C886.719,676.516,875.151,684.406,875.735,691.4Z" transform="translate(-753.477 -585.637)" fill="#1a121e"/>
      <path id="Path_197" data-name="Path 197" d="M972.712,693.7c5.112-.656,10.467-4.116.991-1.616C969.237,693.244,968.333,694.24,972.712,693.7Z" transform="translate(-799.41 -592.631)" fill="#feca7f" fill-rule="evenodd"/>
      <path id="Path_198" data-name="Path 198" d="M810.435,896.64c-4.141,4.689-12.373,7.519-20.485,4.751,7.085,4.095,15.084,3.661,19.757-2.5Z" transform="translate(-712.406 -691.99)" fill="#30111f"/>
      <path id="Path_199" data-name="Path 199" d="M894.23,718.309c6.574,3.651,24.637.991,28.494-13.979C914.607,719.982,897.473,718.98,894.23,718.309Z" transform="translate(-762.837 -598.987)" fill="#30111f" fill-rule="evenodd"/>
      <path id="Path_200" data-name="Path 200" d="M881.65,878.672c4.281-3.248,15.9-10.023,19.576-4.529C893.945,871.614,884.082,878.445,881.65,878.672Z" transform="translate(-756.754 -680.106)" fill="#30111f" fill-rule="evenodd"/>
      <path id="Path_201" data-name="Path 201" d="M709.926,911.8c-6.217,9.538.155,17.092,3.284,19.674C709.2,930.251,701.24,920.661,709.926,911.8Z" transform="translate(-671.819 -699.322)" fill="#30111f"/>
      <path id="Path_202" data-name="Path 202" d="M700.812,931.45c-.6,8.934,6.682,11.675,9.811,12.264C707.417,944.422,698.251,940.859,700.812,931.45Z" transform="translate(-669.083 -708.825)" fill="#30111f"/>
      <path id="Path_203" data-name="Path 203" d="M969.456,696.938c4.808-3.16,4.761-3.227,4.761-3.227s-5.081,6.052-10.55,6.785c-5.463.7-8.644-1.539-9.656-2.463-1.048-.93.031-.707,2.184.243A13.4,13.4,0,0,0,969.456,696.938Z" transform="translate(-791.552 -593.851)" fill="#f1b289" fill-rule="evenodd"/>
      <path id="Path_204" data-name="Path 204" d="M832.447,658.485c-1.88-.258,15.579,8.536,13.793,5.913C843.5,660.37,836.966,659.156,832.447,658.485Z" transform="translate(-732.89 -576.813)" fill="#d96e53" fill-rule="evenodd"/>
      <path id="Path_205" data-name="Path 205" d="M940.612,575.565c.284-1.368-1.652-3.181-5.221-4.384-3.573-1.172-3.625-.542-1.115,1.482S940.333,576.933,940.612,575.565Z" transform="translate(-781.361 -534.31)" fill="#f7cc82" fill-rule="evenodd"/>
      <path id="Path_206" data-name="Path 206" d="M952.172,567.536c1.591-2.789-7.069-4.539-4.105-1.6C949.425,567.289,951.521,568.678,952.172,567.536Z" transform="translate(-788.572 -531.322)" fill="#f7cc82" fill-rule="evenodd"/>
      <path id="Path_207" data-name="Path 207" d="M919.446,692.749a12.365,12.365,0,0,1-6.889,2.69c-3.966.274,1.926,3.4,6.713.072C924.068,692.2,920.272,692.206,919.446,692.749Z" transform="translate(-771.069 -593.256)" fill="#f1b289" fill-rule="evenodd"/>
      <path id="Path_208" data-name="Path 208" d="M954.015,709.727c.914.4,6.568-.145,10.276-2.086s-3.258-1.689-6.2-1.095C955.167,707.166,953.1,709.335,954.015,709.727Z" transform="translate(-791.644 -599.851)" fill="#f1b289" fill-rule="evenodd"/>
      <path id="Path_209" data-name="Path 209" d="M850.521,612.972a6.858,6.858,0,0,1,.238-1.962l3.749,5.7a22.247,22.247,0,0,1-.883,3.011c-1.844,4.921-3.1-6.744-3.1-6.744Zm-11.9-1.048c-1.162-3.568.052-10.72,2.814-15.089l6.992,10.632a18.487,18.487,0,0,1-2.029,2.83c-3.1,3.568-5.252,4.327-6.574,3.455l-1.2-1.828Zm10.57-3.3a45.392,45.392,0,0,1-3.067,4.854,20.9,20.9,0,0,0,3.754-3.811Zm5.319,8.087-3.749-5.7a2.906,2.906,0,0,1,2.3-2.381c2.2-.392,2.4,3.842,1.451,8.076Zm-13.07-19.871c1.291-2.066,2.938-3.491,4.839-3.682a3.2,3.2,0,0,1,2.778,1.477l.387.589c1.534,2.664,1.756,7.5-1.007,12.249l-7-10.632Zm8.433,12.827a12.124,12.124,0,0,0,1.508-2.489,10.137,10.137,0,0,0,.878-6.243s-.057,1.813-2.055,5.778c-.33.682-.687,1.322-1.017,1.916Z" transform="translate(-735.731 -545.217)" fill="#f1b289" fill-rule="evenodd"/>
      <path id="Path_210" data-name="Path 210" d="M838.976,837.757c.589,1.322-7.436,3.522-13.917,5.076a4.016,4.016,0,0,1-.666-5.7C825.782,835.692,838.733,837.2,838.976,837.757Z" transform="translate(-728.631 -662.919)" fill="#f2653d" fill-rule="evenodd"/>
      <path id="Path_211" data-name="Path 211" d="M980.96,577.49a6.863,6.863,0,0,0,1.844,3.181,7.465,7.465,0,0,1,2.623,4.224,15.843,15.843,0,0,1,.32,3.372s1.038-4.2-.31-5.778-2.747-2.613-3.155-4.183c-.387-1.585.217-3.883-.33-3.77C981.409,574.67,980.97,577.263,980.96,577.49Z" transform="translate(-804.781 -536.215)" fill="#f2653d" fill-rule="evenodd"/>
      <path id="Path_212" data-name="Path 212" d="M920.72,658.008s-1.8-.465-2.375.413a1.781,1.781,0,0,0-.336,1.529l.315.48c.723.676,2.561,1.152,6.785.707,8.427-.873,9.873-4.5,4.291-3.32-5.551,1.157-8.68.191-8.68.191Zm16.194-2.613c-.553.769-2.541,2.484-3.021,1.611-.7-1.255,2.515-2,2.99-1.751l.057.088C936.956,655.364,936.935,655.379,936.914,655.4Z" transform="translate(-774.306 -575.231)" fill="#f2653d" fill-rule="evenodd"/>
      <path id="Path_213" data-name="Path 213" d="M798.547,764.45s-2.51,6.976-.238,12.894a26.325,26.325,0,0,0,5.474,8.985s-5.288-3.78-6.894-9.109C795.3,771.912,798.547,764.45,798.547,764.45Z" transform="translate(-715.55 -628.062)" fill="#fbf49c" fill-rule="evenodd"/>
      <path id="Path_214" data-name="Path 214" d="M914.512,680.615a11.248,11.248,0,0,0-10.483-.924c-6,2.386,2.835,2.747,6.765,2.468C914.7,681.9,914.512,680.615,914.512,680.615Z" transform="translate(-766.595 -586.647)" fill="#f7cc82" fill-rule="evenodd"/>
      <path id="Path_215" data-name="Path 215" d="M769.326,963.7c-8.949,6.667-47.905,27.276-50.606,28.613C725.609,989.06,758.725,975,769.326,963.7Z" transform="translate(-677.959 -724.421)" fill="#1a121e"/>
      <path id="Path_216" data-name="Path 216" d="M791.018,949.75c-5.84,5.711-33.023,23.341-34.908,24.451C760.99,971.433,784.78,959.489,791.018,949.75Z" transform="translate(-696.041 -717.675)" fill="#1a121e"/>
      <path id="Path_217" data-name="Path 217" d="M732.884,943.52c-.971,3.785-21.518,18.951-29.744,23.924C710.886,961.883,721.591,953.342,732.884,943.52Z" transform="translate(-670.424 -714.662)" fill="#1a121e"/>
      <path id="Path_218" data-name="Path 218" d="M700.065,924.46c-1.492,7.958-12.3,35.719-13.075,37.567C689.087,957.442,700.049,936.652,700.065,924.46Z" transform="translate(-662.614 -705.444)" fill="#1a121e"/>
      <path id="Path_219" data-name="Path 219" d="M881.031,769.51l.9,1.368c-.021.108-.047.217-.062.289-.935,3.883-5.587,8.6-5.587,8.6s.924-.919,3.289-5.84a16.741,16.741,0,0,0,1.461-4.415Zm2.231,8.128a10.674,10.674,0,0,0,1.059-3.124l.429.651A17.356,17.356,0,0,1,883.262,777.638Zm-2.086-12.646a7.866,7.866,0,0,1,.759,5.887l-.9-1.368a13.3,13.3,0,0,0,.139-4.518Zm3.573,10.173a11.215,11.215,0,0,0,1.275-4.172,15.048,15.048,0,0,0-.914-6.222,23.293,23.293,0,0,1-.289,7.322c-.181.96-.341,1.751-.5,2.417Z" transform="translate(-754.156 -628.216)" fill="#f1b289" fill-rule="evenodd"/>
      <path id="Path_220" data-name="Path 220" d="M824.884,921.31c-6.2,9.563.17,17.113,3.3,19.7C824.171,939.781,816.209,930.192,824.884,921.31Z" transform="translate(-727.418 -703.921)" fill="#30111f"/>
      <path id="Path_221" data-name="Path 221" d="M815.585,932.88c-3.522,8.236,2.453,13.245,5.226,14.815C817.532,947.3,810.049,940.946,815.585,932.88Z" transform="translate(-723.846 -709.516)" fill="#30111f"/>
    </g>
  </g>
</svg>
