<svg id="favicon" xmlns="http://www.w3.org/2000/svg" width="49.279" height="50" viewBox="0 0 49.279 50">
  <path id="Path_17" data-name="Path 17" d="M975.31,604.857c-5.478-3.4-4.036-7.472,1.278-11.933,0,0,1.268-.927,2.23-1.647a8.418,8.418,0,0,1,6.713-1.24c1.266.353,3.829,1.8,3.34,2.878-.165.359-.67.679-1.672.9,2.821.894-2.665,2.6-3.83,2.345-2.383,1.724-4.085,4.158-6.562,5.694C975.855,602.442,975.69,603.817,975.31,604.857Z" transform="translate(-939.835 -581.175)" fill="#e99868" fill-rule="evenodd"/>
  <path id="Path_18" data-name="Path 18" d="M983.975,617.23a3.356,3.356,0,0,0,2.079-.286,17.049,17.049,0,0,0,3.13-2.833c1.215-1.37,1.5-1.4,1.5-1.4s-.984,1.164-1.585,1.973.142.215.548-.262a5.96,5.96,0,0,1,1.81-1.394c.913-.5-.19.02.067.73s.858.518,1.379.842.626.564-.039.8-.649.27-1.55,1.17-1.773,1.812-2.126,2.177l-.349.363a6.067,6.067,0,0,1,.562-.852c.375-.491.816-1.049.816-1.049a7.363,7.363,0,0,0-1.18,1.23,8.205,8.205,0,0,1-1.646,1.891,5.833,5.833,0,0,1-1.691.815,3.256,3.256,0,0,0,.717-.094,3.06,3.06,0,0,0,.475-.126,3.943,3.943,0,0,1-1.308.779,6.6,6.6,0,0,1-1.337.292,1.567,1.567,0,0,0,.468.226c.351.118.455.073.455.073s-.605.671-.732.807-.709.919-.709.919-2.2-1.1-2.079-3.161,1.064-4.287,1.756-4.295a7.323,7.323,0,0,0,3.2-.73,8.03,8.03,0,0,0,1.755-1.451,5.672,5.672,0,0,1-1.958,1.876A19.081,19.081,0,0,1,983.975,617.23Z" transform="translate(-948.701 -601.879)" fill="#d96e53" fill-rule="evenodd"/>
  <path id="Path_19" data-name="Path 19" d="M1089.389,598.217c.965-.053,6.635-1.394,3.656-2.334,1-.218,1.506-.538,1.672-.9.594-1.3-2.649-2.693-3.411-2.9-1.507.59-3.1,3-1.378,4.163C1089.407,596.53,1088.405,597.5,1089.389,598.217Z" transform="translate(-1045.68 -583.246)" fill="#ec3724" fill-rule="evenodd"/>
  <path id="Path_20" data-name="Path 20" d="M1089.5,609.8a2.274,2.274,0,0,0,1.838,1.018,8.7,8.7,0,0,0,3.029-.644c.2-.067.568.341.18.742a12.885,12.885,0,0,1-3.266,1.247c-.49.1-1.2.036-1.4.143s-.3.506.366.742,2.341-.418,2.728-.608a2.132,2.132,0,0,0,.59-.412s.587.434-.322.845a18.013,18.013,0,0,1-3.542,1.085.706.706,0,0,1-.743-.7,1.957,1.957,0,0,1,.643-1.074,2.974,2.974,0,0,1,.29-.15,1.533,1.533,0,0,1-.835-.986,2.652,2.652,0,0,1,.441-1.476Z" transform="translate(-1045.661 -599.051)" fill="#a41e23" fill-rule="evenodd"/>
  <path id="Path_21" data-name="Path 21" d="M1013.743,590.984a12.184,12.184,0,0,0-6.585,2.744c-1.024.767-.483-.107.928-1.1a12.6,12.6,0,0,1,3.527-1.674,14.562,14.562,0,0,0-6.685,3.536c-.882.772,1.218-1.383,2.921-2.735,1.74-1.376,4.72-2.255,6.856-1.527C1014.531,590.362,1013.9,590.82,1013.743,590.984Z" transform="translate(-969.547 -581.328)" fill="#f7cc82" fill-rule="evenodd"/>
  <path id="Path_22" data-name="Path 22" d="M1099.64,597.492c.008-.377.07-.459.638-.612a7.582,7.582,0,0,1,3.035,1.521C1102.117,598.049,1100.861,597.741,1099.64,597.492Z" transform="translate(-1055.319 -587.575)" fill="#f2653d" fill-rule="evenodd"/>
  <path id="Path_23" data-name="Path 23" d="M1103.42,592.308a10.248,10.248,0,0,1,2.672,1,4.936,4.936,0,0,1,1.642,1.3,2.115,2.115,0,0,0-.9-1.585,5.827,5.827,0,0,0-2.7-1.3A2.368,2.368,0,0,0,1103.42,592.308Z" transform="translate(-1058.735 -582.915)" fill="#feca7f" fill-rule="evenodd"/>
  <path id="Path_24" data-name="Path 24" d="M1103.813,633.2a15.2,15.2,0,0,0-1.821.361,5.663,5.663,0,0,0,2.376-.145l.747-.235s-.333-.276-.5-.232S1103.813,633.2,1103.813,633.2Z" transform="translate(-1057.428 -620.161)" fill="#f2653d" fill-rule="evenodd"/>
  <path id="Path_25" data-name="Path 25" d="M1089.732,621.33a.826.826,0,0,0,.014.543c.109.272.537.815,1.723.9a2.539,2.539,0,0,0,.57-.026l-.283-.43a.842.842,0,0,1-.108,0,2.284,2.284,0,0,1-1.916-.977Zm2.365,2.95c-1.589.412-2.207.365-2.346.154a1.343,1.343,0,0,1-.1-.659s.3.347,1.485.261a7.372,7.372,0,0,0,1.54-.327l.208.316A6.734,6.734,0,0,1,1092.1,624.28Zm-.341-1.967.283.43a8.163,8.163,0,0,0,2.3-.791,7.612,7.612,0,0,1-2.582.361Zm2.324.89a2.486,2.486,0,0,1-1.2.822l-.208-.316C1093.439,623.474,1094.08,623.2,1094.08,623.2Z" transform="translate(-1046.287 -609.668)" fill="#f89a61" fill-rule="evenodd"/>
  <path id="Path_26" data-name="Path 26" d="M988.54,593.684c2.238-1.6,4.478-4.038,7.132-5.04a8.255,8.255,0,0,1,4.9-.325,7.018,7.018,0,0,1,2.606,1.408c.43.38.925.973.419,1.416a14.406,14.406,0,0,1-3.454,1.272,8.762,8.762,0,0,0,2.09-.323c1.014.322.616.688-.1,1.055a6.846,6.846,0,0,1-3.715.867.65.65,0,0,1-.074.055,26,26,0,0,0-2.983,2.659,21.2,21.2,0,0,1-3.564,3.03,3.8,3.8,0,0,0-1.345,2.349c-.076.265-.154.526-.242.763.128.044.258.092.388.14.091-.251.171-.518.25-.786a3.525,3.525,0,0,1,1.163-2.12,21.146,21.146,0,0,0,3.634-3.082,25.9,25.9,0,0,1,2.869-2.568,9.15,9.15,0,0,0,3.8-.944,2.765,2.765,0,0,0,.752-.518.627.627,0,0,0-.155-1.049,2.708,2.708,0,0,0,.954-.493c.729-.642.148-1.533-.425-2.035a7.349,7.349,0,0,0-2.76-1.492,8.669,8.669,0,0,0-5.151.335C992.845,589.27,990.528,591.811,988.54,593.684Z" transform="translate(-954.927 -579.257)" fill="#30111f"/>
  <path id="Path_27" data-name="Path 27" d="M716.466,739.258c-1.043-2.389-4.266-1.572-8.976,1.433,0,0,1.845-.882,2.574-.17s1.021,1.613,2.774,1A13.529,13.529,0,0,0,716.466,739.258Z" transform="translate(-700.964 -714.971)" fill="#a41e23" fill-rule="evenodd"/>
  <path id="Path_28" data-name="Path 28" d="M738.21,766.871a21.469,21.469,0,0,0,2.848-.071c.916-.137,1.052-.186-.019.35C740.049,767.643,738.626,768.336,738.21,766.871Z" transform="translate(-728.724 -741.035)" fill="#a41e23" fill-rule="evenodd"/>
  <path id="Path_29" data-name="Path 29" d="M684.08,744.128a16.552,16.552,0,0,1,3.021-1.3,1.694,1.694,0,0,1,2.015.447,1.807,1.807,0,0,0,2.494.743,15.122,15.122,0,0,0,5.085-3.688,28.756,28.756,0,0,1-5.158,3.277,1.543,1.543,0,0,1-2.11-.6,1.754,1.754,0,0,0-1.778-.7A10.85,10.85,0,0,0,684.08,744.128Z" transform="translate(-679.811 -717.199)" fill="#30111f"/>
  <path id="Path_30" data-name="Path 30" d="M987.564,695.24c-1.237,1.134-3.891,1.182-4.624-.65C983.833,695.949,986.685,696.114,987.564,695.24Z" transform="translate(-949.867 -675.867)" fill="#1a121e"/>
  <path id="Path_31" data-name="Path 31" d="M835.607,853.162l12.26-4.622c-1.878,4.48-4.663,6.072-6.245,6.618-1.091,1.479-3.164,1.517-4.634,2.722C833.832,860.47,834.818,853.979,835.607,853.162Z" transform="translate(-816.017 -814.98)" fill="#e99868" fill-rule="evenodd"/>
  <path id="Path_32" data-name="Path 32" d="M842.468,878.046a5.448,5.448,0,0,1-.332-1.061,5.971,5.971,0,0,1,.316-2.667,6.105,6.105,0,0,0,.062,1.756c.217.834,1.4,1.232,1.4,1.232s-.43.3-.633.434-.055-.022-.052-.256-.163-.248-.251.008-.138.5-.329.623c-.065.042-.118.025-.163-.044l-.016-.023Zm4.329-2.185a4.8,4.8,0,0,1-1.371.594,1.276,1.276,0,0,1-1.691-.672,4.016,4.016,0,0,1,.86-1.786c.154-.049.294.243.454.487a4.7,4.7,0,0,0,.583,1.133.856.856,0,0,0,1.158.232l.008.012Zm-.211-.321-.294-.446a3.691,3.691,0,0,1-.736-.377,1.031,1.031,0,0,0,.845.8c.066.011.13.02.185.024Zm-1.126-1.712c-.054.059-.077.12-.022.16s.124.092.236.165Zm1.356.374-.454-.69c-.515.217-.535.248-.381.332a4.635,4.635,0,0,0,.835.359Zm-1.356-.374a1.289,1.289,0,0,1,.25-.2,3.3,3.3,0,0,0,.771.615,2.063,2.063,0,0,0,.492.2l.088.134c-.068-.007-.148-.013-.23-.023a2.787,2.787,0,0,1-1.157-.4l-.213-.325Zm.833,1.265a1.377,1.377,0,0,0,.221.053,5.385,5.385,0,0,0,.915-.015l.059.09a1.234,1.234,0,0,1-.9.319l-.294-.447Zm.592.7s-.03.025-.088.069l-.008-.013A.487.487,0,0,0,846.885,875.792Zm5.851-4.982s-2.892,1.251-4.839,2.073c-.737.31-1.222.5-1.532.63l.454.69a3.845,3.845,0,0,0,.725.157c.766.1,2.5-.967,2.345-.758a2.888,2.888,0,0,1-.507.467,5.977,5.977,0,0,0,1.66-1.144,6.069,6.069,0,0,0,1.7-2.116Zm-5.765,3.629a4.2,4.2,0,0,0,.725.139,2.231,2.231,0,0,1-.637,0l-.088-.134Zm.606.682a.7.7,0,0,1-.091.1l-.059-.09C847.524,875.128,847.578,875.121,847.578,875.121Z" transform="translate(-822.584 -835.103)" fill="#d96e53" fill-rule="evenodd"/>
  <path id="Path_33" data-name="Path 33" d="M845.979,889.634c-2.994-.176-2.708-3.224-1.246-5.244C842.728,885.727,842.65,890.01,845.979,889.634Z" transform="translate(-823.713 -847.374)" fill="#30111f"/>
  <path id="Path_34" data-name="Path 34" d="M836.336,913.857s-.657.345-1.117-.655a6.176,6.176,0,0,1-.619-2.151c-.091-.667-.473.492-.529,1.476a2.92,2.92,0,0,0,.491,2.125,1.017,1.017,0,0,0,1.094-.016,5.7,5.7,0,0,0,1.012-.777Z" transform="translate(-815.338 -871.287)" fill="#a41e23" stroke="#22160f" stroke-miterlimit="10" stroke-width="0.03" fill-rule="evenodd"/>
  <path id="Path_35" data-name="Path 35" d="M834.237,907.684c.073-.3.087.565.371,2.464.065.434-.353,1.249-.516,1.072a1.992,1.992,0,0,1-.285-1.1A7.38,7.38,0,0,1,834.237,907.684Z" transform="translate(-815.095 -868.37)" fill="#f2653d" fill-rule="evenodd"/>
  <path id="Path_36" data-name="Path 36" d="M845.385,838.07c-1.77,5.6-5.912,7.336-6.6,7.506a5.236,5.236,0,0,1-2.421,1.534,8.012,8.012,0,0,0-2.173,1.151,2.729,2.729,0,0,1-1.03.573h0a.678.678,0,0,1-.437-.01.456.456,0,0,1-.251-.294c-.612-1.231-.111-4.438,1.676-6.608-1.711.608-2.777,4.82-2.066,6.749a.876.876,0,0,0,.482.538,1.131,1.131,0,0,0,.689.023h0a3.139,3.139,0,0,0,1.2-.654,7.868,7.868,0,0,1,2.069-1.088,5.481,5.481,0,0,0,2.6-1.673C842.169,844.575,845.476,841.144,845.385,838.07Z" transform="translate(-813.344 -805.519)" fill="#30111f"/>
  <path id="Path_37" data-name="Path 37" d="M730.347,751.159c-2.1-3.964-2.943-8.645-5.038-12.609-3.349,3.145-5.284,6.26-5.739,9.792a4.768,4.768,0,0,0-2.2,4.933,4.535,4.535,0,0,0-.028,4.448c.359.776.893,1.348,1.739,1.124a4.727,4.727,0,0,0,2.373-2.119C723.818,757.232,729.74,753.082,730.347,751.159Z" transform="translate(-709.355 -715.59)" fill="#e99868" fill-rule="evenodd"/>
  <path id="Path_38" data-name="Path 38" d="M729.219,865.65l-1.26-1.915a2.482,2.482,0,0,0,1.26,1.915Zm.943,1.433c-.279.125-.707.313-.884.389a5.684,5.684,0,0,1-.758.219l.154-.287s-.128-.195-.484-.118-.835.049-1.333-.71a5.47,5.47,0,0,1-.627-2.04,9.419,9.419,0,0,0,1.37,1.8,3.47,3.47,0,0,0,2.207.758l.318-.064.036.052Zm-.4-.609a2.142,2.142,0,0,1-1.8-.532,3.767,3.767,0,0,1-1.158-2.186,6.564,6.564,0,0,0,1.656,2.138,3.8,3.8,0,0,0,1.151.354l.149.227Zm-1.928-2.011a3.825,3.825,0,0,0,.893,1.226c.236.217.072.11.072.11a3.509,3.509,0,0,1-1.491-2.595c-.009-.163-.012-.318,0-.467l.275.418A3.028,3.028,0,0,0,727.833,864.463Zm3.851,1.426.433-.006a2.2,2.2,0,0,1-1.048-.276,4.732,4.732,0,0,1-.976-.91s-.375-.34-.809-.8a4.681,4.681,0,0,1-.685-1.66,2.643,2.643,0,0,0-.627,1.221,1.165,1.165,0,0,0-.013.281l1.26,1.915c.071.046.144.086.219.129a3,3,0,0,0,2.3.232l-.051-.123Zm-4.381-3.153a2.763,2.763,0,0,1,.78-2.094c.105-.069.33.219.263.542-.078.377-.263.475-.408.751a2.869,2.869,0,0,0-.361,1.219l-.275-.417Zm2.308,3.51a5.668,5.668,0,0,0,.744.08,2.294,2.294,0,0,1-.595.148l-.149-.228Zm.8.73-.25.106-.035-.053Z" transform="translate(-717.898 -825.906)" fill="#d96e53" fill-rule="evenodd"/>
  <path id="Path_39" data-name="Path 39" d="M721.622,898.767a8.461,8.461,0,0,1-1.3.223,2.779,2.779,0,0,1-2.01-1.916,4.509,4.509,0,0,1-.3-1.944s-.385.166-.544.933a5.475,5.475,0,0,0,.675,3.661,1.463,1.463,0,0,0,1.815.568,3.948,3.948,0,0,0,1.251-.962C721.471,898.982,721.622,898.767,721.622,898.767Z" transform="translate(-709.923 -857.079)" fill="#a41e23" stroke="#22160f" stroke-miterlimit="10" stroke-width="0.03" fill-rule="evenodd"/>
  <path id="Path_40" data-name="Path 40" d="M719.8,901.376l.181.276c-.152.175-.279.31-.279.31s.155-.056.383-.152l.016.024c-.051.028-.105.052-.155.073a1.353,1.353,0,0,1-.635.121,1.532,1.532,0,0,0,.236-.26c.04-.061.139-.212.253-.392Zm-2.362-3.591.435.661a3.563,3.563,0,0,0,1.083,1.647l.32.487a.393.393,0,0,1-.055.234,3.593,3.593,0,0,0-.494,1.034,2.207,2.207,0,0,1-.6-.509s-.013-.01-.017-.017l-.229-.349A6.141,6.141,0,0,1,717.441,897.784Zm2.759,2.993c0,.007,0,0,.01-.013.086-.144.227-.062.35.038,0,0,0,0,.007,0l.006.008c.036.1-.32.53-.587.839l-.181-.276c.126-.187.274-.413.4-.6Zm-.1,1.057-.016-.024c.065-.025.131-.057.2-.088-.065.042-.128.078-.188.112Zm-2.664-4.05c0-.038.012-.071.018-.105a1.719,1.719,0,0,1,.333-.759,4.109,4.109,0,0,0,.085,1.526l-.436-.661Zm1.84,2.8-.32-.487A.9.9,0,0,1,719.281,900.58Z" transform="translate(-709.914 -858.697)" fill="#f2653d" fill-rule="evenodd"/>
  <path id="Path_41" data-name="Path 41" d="M733.207,929.349c.016-.028.034-.063.056-.1.227-.423.693-.979.915-1.322.281-.447-.892.837-1.29,1.337-.065-.02-.134-.045-.2-.062.434-.471,2.718-2.9,1.828-1.516-.219.348-.848,1.238-1.076,1.661l-.027.047C733.357,929.384,733.283,929.368,733.207,929.349Z" transform="translate(-723.736 -886.115)" fill="#30111f"/>
  <path id="Path_42" data-name="Path 42" d="M758.546,833.121l-2.979-4.529a4.491,4.491,0,0,0,.072.923,4.738,4.738,0,0,0,.644,1.687,3.015,3.015,0,0,1-1.023-2.4c0-.25,0-.474,0-.678l-.088-.134a7.029,7.029,0,0,0-.25,1.636c-.069,1.83.528,2.35.544,2.048s.389.035.389.035a1.465,1.465,0,0,0,.089.965,2.459,2.459,0,0,0,1.236,1.048,2.24,2.24,0,0,0,1.692-.107l-.024-.037a2.889,2.889,0,0,1-.806-.208,2.739,2.739,0,0,1-1.052-.767,3,3,0,0,0,1.558.521Zm-3.847-4.4a4.717,4.717,0,0,0,.1,1.81,5.131,5.131,0,0,1-.107-3.1l.035-.116.232.353A4.275,4.275,0,0,0,754.7,828.722Zm6.691,3.534,1-.036a16.213,16.213,0,0,1-3.4-1.955c-1.179-1.015-2.725-3.533-3.021-3.594-.054-.012-.124.023-.207.1a4.591,4.591,0,0,1-.034.6,5.362,5.362,0,0,0-.16,1.215l2.979,4.529a2.953,2.953,0,0,0,.493-.011,5.94,5.94,0,0,0,2.351-.854Zm-2.544,1.32a.68.68,0,0,0,.1,0,.469.469,0,0,1-.074.038l-.024-.037Zm-3.676-5.588c.026-.093.055-.181.083-.263,0,.122,0,.253.006.4l-.089-.134Zm.406-2.371c.369-.022-.152,1.094-.152,1.094a5.652,5.652,0,0,0-.462.96l-.232-.353C755.191,825.829,755.213,825.64,755.575,825.617Z" transform="translate(-743.444 -794.266)" fill="#d96e53" fill-rule="evenodd"/>
  <path id="Path_43" data-name="Path 43" d="M726.088,822.543a5.321,5.321,0,0,0-1.045,1.629,3.7,3.7,0,0,0-.11,2.229,2.418,2.418,0,0,1-.419-1.486,3.162,3.162,0,0,1,.206-1.339,3.353,3.353,0,0,0-.42,1.968,13.778,13.778,0,0,0,.573,2.1,4.462,4.462,0,0,1-.988-2.315,3.452,3.452,0,0,1,.893-2.832,5.771,5.771,0,0,1,1.2-1.3l.068.414,0-.048a5.074,5.074,0,0,1,.448-2.272l.592,1.315a4.892,4.892,0,0,0-.529,2.191,12.851,12.851,0,0,0,.335,2.535A10.333,10.333,0,0,1,726.088,822.543Z" transform="translate(-715.748 -788.549)" fill="#f1b289" fill-rule="evenodd"/>
  <path id="Path_44" data-name="Path 44" d="M745.647,817.383a4.468,4.468,0,0,0-.508,2.322c.059,1.4-.822.28-.407-1.459a10.842,10.842,0,0,1,.547-1.935Z" transform="translate(-734.517 -785.856)" fill="#fbf49c" fill-rule="evenodd"/>
  <path id="Path_45" data-name="Path 45" d="M726.771,841.035a8.5,8.5,0,0,0-.945,1.366l-.3.6a2.368,2.368,0,0,1,.385-1.306l.5-.735a3.356,3.356,0,0,0-1.072,1.35,4.966,4.966,0,0,0-.364,1.629,2.835,2.835,0,0,1,.43-2.439c.855-1.423,1.441-1.593,1.441-1.593Z" transform="translate(-716.668 -807.181)" fill="#fbf49c" fill-rule="evenodd"/>
  <path id="Path_46" data-name="Path 46" d="M717.093,898.26a4.941,4.941,0,0,0,.3,1.925c.369.915.417.987.417.987a6.581,6.581,0,0,1-.6-.889c-.093-.229,0,.231.223,1.01a11.768,11.768,0,0,0,.44,1.3,4.432,4.432,0,0,1-1.126-2.091A4,4,0,0,1,717.093,898.26Z" transform="translate(-709.286 -859.908)" fill="#feca7f" fill-rule="evenodd"/>
  <path id="Path_47" data-name="Path 47" d="M717.564,753.209a4.8,4.8,0,0,0-2.21,4.948c0,.007-.01.013-.011.018a4.875,4.875,0,0,0,.155,5.008,1.52,1.52,0,0,0,1.785.866,4.2,4.2,0,0,0,2.071-1.571c.411-.543.921-.472,1.586-.6,2.853-.55,6.709-3.482,7.739-5.619-.123-.064-.249-.121-.369-.181-.882,1.824-4.028,4.341-6.651,5.188a11.682,11.682,0,0,1-3.76.409c-.022.038,1.114.378,1.093.415a2.832,2.832,0,0,1-1.818,1.567,1.146,1.146,0,0,1-1.321-.683,4.511,4.511,0,0,1-.384-4.154c.078.251,1.176,2.035,1.52,1.913-1.737-2.578-1.963-4.877.555-6.987-.13.191.245,4.659,2.4,6.034-3.43-4.464-2.341-10.471,3.79-15.69C720.18,746.191,717.723,749.4,717.564,753.209Z" transform="translate(-707.499 -720.596)" fill="#30111f"/>
  <path id="Path_48" data-name="Path 48" d="M768.191,895.817c-1.612.881-3.66.605-4.065-1.407-.071,1.942,2.3,2.912,4.24,1.408C768.307,895.816,768.25,895.819,768.191,895.817Z" transform="translate(-752.14 -856.429)" fill="#30111f"/>
  <path id="Path_49" data-name="Path 49" d="M876.344,913.374c-1.118.492-1.4.459-2.064-.734C874.691,914.369,876.2,913.8,876.344,913.374Z" transform="translate(-851.679 -872.902)" fill="#30111f"/>
  <path id="Path_50" data-name="Path 50" d="M793.572,692.48l-15.987,1.5s-4.823,3.539-5.749,6.8c-1.637,5.75,2.549,10.311,7.687,11.227a11.833,11.833,0,0,0,11.144-4.649,29.795,29.795,0,0,0,2.9-14.88Z" transform="translate(-758.784 -673.961)" fill="#e99868" fill-rule="evenodd"/>
  <path id="Path_51" data-name="Path 51" d="M825.89,705.709a1.78,1.78,0,0,1,.809-.741l.635.966c-.8-.154-1.444-.225-1.444-.225Zm4.316,4.591.069.105a1.661,1.661,0,0,1-.48.286,3.735,3.735,0,0,0,.411-.391Zm1.237,1.879.542.824a9.346,9.346,0,0,1-1.692-.143s.356-.025,1.151-.681Zm-.257-.215a3.132,3.132,0,0,1-1.671.5s-.131-.234.288-.5a2.847,2.847,0,0,1,.661-.33s.2-.064.533-.136l.267.406C831.235,711.926,831.209,711.949,831.185,711.964Zm-3.85-6.031-.635-.966a2.406,2.406,0,0,1,1.792-.015c1.93.626,4.879,1.442,6.6,1.072a28.981,28.981,0,0,0,6.263-2.119,3.456,3.456,0,0,0,1.758-2.365l.279.955s-1.076.778-1.237,1.47a1.9,1.9,0,0,0,.12,1.235,4.382,4.382,0,0,1,.264-1.278c.258-.757.537-.6.537-.6a1.793,1.793,0,0,0-.519,1.1c-.027.64.509,2.374.031,3.688a5.11,5.11,0,0,1-1.825,2.183,9.378,9.378,0,0,0,.837-.928,4.694,4.694,0,0,0,.688-2.639,6.069,6.069,0,0,1-1.4,2.8,4.719,4.719,0,0,1-2.4,1.4s.011-.037,1.233-1.741.544-2.735.544-2.735a30.065,30.065,0,0,1-1.968,2.568c-.541.53-.835,1.136-.416.931a3.5,3.5,0,0,0,.886-.792,8.065,8.065,0,0,1-5.243,3.652,5.792,5.792,0,0,1-1.541.194l-.542-.824c.046-.036.092-.072.14-.115a5.624,5.624,0,0,0,2.056-2.6c.368-1.172-.36-2.28-.336-1.413a3.716,3.716,0,0,1-.816,1.914,4.558,4.558,0,0,0,.213-1.727,4.071,4.071,0,0,0-.587-1.556s-.173-.183.152.824a1.133,1.133,0,0,1-.436,1.415,2.066,2.066,0,0,0-.181-1.38c-.365-.777-1.037-.772-.861-.5a1.639,1.639,0,0,1,.422,2.048,3.2,3.2,0,0,1-.932,1.322l-.069-.105a4.636,4.636,0,0,0,.348-.443,2.455,2.455,0,0,0-.507-2.911,6.522,6.522,0,0,0-2.712-1.012Zm3.928,5.974a3.013,3.013,0,0,0,.839-1.156,3.075,3.075,0,0,1-1.009.728c-.034.011-.067.015-.1.022Z" transform="translate(-807.953 -682.147)" fill="#d96e53" fill-rule="evenodd"/>
  <path id="Path_52" data-name="Path 52" d="M807.059,849.2l-.006.132a9.868,9.868,0,0,0,1.252,1.02c.7.477-.371-.564-.959-1.4S807.059,849.2,807.059,849.2Z" transform="translate(-790.868 -815.064)" fill="#f1b289" fill-rule="evenodd"/>
  <path id="Path_53" data-name="Path 53" d="M804.592,809.193l-.35-.532c-.044-.006-.092-.015-.139-.025a5.782,5.782,0,0,1-2.072-1.224s.1.421,1.17,1.126a3.8,3.8,0,0,0,1.391.655Zm-.7-1.059a2.859,2.859,0,0,1-.469-.174,5.627,5.627,0,0,1-.777-.448,5.781,5.781,0,0,0,.993.236l.253.386Zm-1.853.876a8.5,8.5,0,0,1-2.381-1.666c-.016-.024-.021-.033-.021-.033.219-.057.431-.115.645-.169,0,0,1.907,1.937,3.377,2.226.421.084.834.172,1.213.254l.253.385A7.509,7.509,0,0,1,802.042,809.009Zm7.088-.952-2.586-3.932-.437-.143a1.223,1.223,0,0,1,.17.522c.025.3-.105.936-1.107,1.507a3.928,3.928,0,0,1-.638.285,4.649,4.649,0,0,1,1,.263c1.608.623,1.281,1.134-.528,1.248a6.449,6.449,0,0,1-1.366-.061l.253.386c1.12.315,2.537.146,2.263.3a3.2,3.2,0,0,1-1.916.226l.35.532a4.793,4.793,0,0,0,2.241-.253c.935-.268,1.651-.646,2.3-.884Zm-4.255,1.565c.943.205,1.658.381,1.658.381a5.782,5.782,0,0,1-1.4,0l-.254-.385Zm4.965-.486c-.568.1-.853.055-1.453.177s-.351.067-.351.067a3.493,3.493,0,0,0,.67-.254c.263-.139.7-.385.827-.457l.309.47Zm-2.53-4.766-.766-.246,2.586,3.932a4.018,4.018,0,0,1,.594-.175c.637-.128,1.224.12,2.117-.078a3.663,3.663,0,0,0,1.838-1.005,3.475,3.475,0,0,1-3.28.431,6.755,6.755,0,0,0,4.556-1.991,4.58,4.58,0,0,0,.907-1.184l-.555-.844a2.682,2.682,0,0,1-.745.158,7.026,7.026,0,0,0,.665-.28l-.3-.463a10.589,10.589,0,0,0-3.1,1.135,8.4,8.4,0,0,1-4.515.61Zm2.224,4.3.039-.02a.158.158,0,0,0,.023.043,1.764,1.764,0,0,1,.787-.111,2,2,0,0,0,.965-.106c.406-.116-.937.564-1.5.664l-.31-.47Zm5.38-3.045s.04-.027.6-.637a4.721,4.721,0,0,0,.508-.695l.072.11C815.408,805.467,814.912,805.625,814.912,805.625Zm.01-3,.3.463c.2-.1.451-.216.767-.371,1.1-.555,1.214-1.177,1.214-1.177a3.656,3.656,0,0,0-.52.261,6.069,6.069,0,0,1-1.531.775c-.069.016-.153.031-.234.049Zm.385.584a4.668,4.668,0,0,0,.509-.207c.481-.224.414.356.046,1.052l-.555-.844Zm.785,1.193c.04-.062.087-.133.126-.205.749-1.248.879-1.456.673-1.524s-.275.483-.275.483a11.459,11.459,0,0,1-.6,1.136Z" transform="translate(-784.233 -772.509)" fill="#d96e53" fill-rule="evenodd"/>
  <path id="Path_54" data-name="Path 54" d="M917.446,820.309a17.191,17.191,0,0,1-2.769,1.862c-1.489.776-1.716.873-1.716.873a11.924,11.924,0,0,0,2.965-1.282,13.118,13.118,0,0,0,2.821-2.128,10.075,10.075,0,0,0,.653-1.128,12.04,12.04,0,0,0,.576-1.687A12.849,12.849,0,0,1,917.446,820.309Z" transform="translate(-886.631 -786.317)" fill="#d96e53" fill-rule="evenodd"/>
  <path id="Path_55" data-name="Path 55" d="M920.26,721.881l.035.053c-.237.081-.392.118-.392.118s.146-.068.358-.172Zm-2.7.571a5.387,5.387,0,0,1-2.61.99,12.338,12.338,0,0,0,3.216-1.987c.574-.541.907-.875,1.1-1.084l.072.11A5.37,5.37,0,0,1,917.56,722.452Zm6.361-9.305a13.257,13.257,0,0,1,.2,3.53,6.78,6.78,0,0,1-1.8,4.076,5.066,5.066,0,0,1-2.032,1.18l-.035-.053a8.779,8.779,0,0,0,.8-.453,8.6,8.6,0,0,0,2-2.276,5.861,5.861,0,0,0,.557-2.663,11.469,11.469,0,0,1-.187-2c.1-.337.3-.881.2-.969s-.253.032-.253.032l.46-.441.086.037Zm-4.583,7.334a3.134,3.134,0,0,0,.193-.423,2.076,2.076,0,0,1-.265.313Z" transform="translate(-888.43 -692.602)" fill="#f7cc82" fill-rule="evenodd"/>
  <path id="Path_56" data-name="Path 56" d="M961.724,800.92a.779.779,0,0,0-.478.465,3.95,3.95,0,0,1-.567,1.825,19.812,19.812,0,0,1-1.709,2.519,13.11,13.11,0,0,0,2.212-2.8A3.933,3.933,0,0,0,961.724,800.92Z" transform="translate(-928.207 -771.949)" fill="#f7cc82" fill-rule="evenodd"/>
  <path id="Path_57" data-name="Path 57" d="M769.948,689.729c-1.8,6.321,3.791,11.686,9.692,11.642,5.131-.039,11.236-4.21,11.38-9.77,2.877-3.387,2.553-7.679.4-11.291,1.657,3.288,2.06,8.337-.877,11.076.069,5.338-6.076,9.537-10.905,9.573-5.862.042-10.994-5.146-9.291-11.12.908-3.19,6.847-7.735,6.863-7.746C774.275,683.581,770.862,686.524,769.948,689.729Z" transform="translate(-757.094 -662.964)" fill="#30111f"/>
  <path id="Path_58" data-name="Path 58" d="M830.693,505.953l2.077-.4c-1.945-1.552-2.184-3.366-4.925-2.917-1.905.311-4.332,1.059-5.4.073C823.951,507.1,827.439,505.046,830.693,505.953Z" transform="translate(-804.836 -502.355)" fill="#e99868" fill-rule="evenodd"/>
  <path id="Path_59" data-name="Path 59" d="M828.372,510.6a2.645,2.645,0,0,0,2.356.125c1.381-.438,1.72-.707,2.355-.653a3.15,3.15,0,0,1,1.21.408,1.711,1.711,0,0,0-1.012-.107c-.517.124-.739.184-.739.184a2.1,2.1,0,0,1,1.153.056,14.655,14.655,0,0,1,1.494,1.034,20.666,20.666,0,0,1-2.1.391,4.229,4.229,0,0,1-1.357-.3,9.667,9.667,0,0,1-2.9-.5,5.515,5.515,0,0,1-1.577-1.486A10.811,10.811,0,0,0,828.372,510.6Z" transform="translate(-809.191 -508.842)" fill="#d96e53" fill-rule="evenodd"/>
  <path id="Path_60" data-name="Path 60" d="M838.224,504.676a2.774,2.774,0,0,0-.866-.918,4.93,4.93,0,0,0-.758-.472l.743.1a4.787,4.787,0,0,0-2.132-1.023c-.916-.031-3.065,1.121-3.953.85a4.556,4.556,0,0,1-1.569-.91,10.088,10.088,0,0,0,3.2-.24c1.589-.412,2.883-.664,3.73.006a22.831,22.831,0,0,1,2.2,2.211Z" transform="translate(-811.387 -501.531)" fill="#f7cc82" fill-rule="evenodd"/>
  <path id="Path_61" data-name="Path 61" d="M831.044,504.063a22.2,22.2,0,0,1-1.965-2.068c-.954-1.088-1.684-1.915-3.71-1.583h0c-1.638.269-4.322,1.3-5.63-.082a4.282,4.282,0,0,0,2.216,3.042c2.234,1.152,4.983-.149,7.381,1.057-2.423-1.633-5.2-.176-7.479-1.516a3.616,3.616,0,0,1-1.439-1.728c1.5.6,3.467-.112,5.014-.367h0l0,0c1.8-.3,2.462.456,3.332,1.442A5.982,5.982,0,0,0,831.044,504.063Z" transform="translate(-802.396 -500.33)" fill="#30111f"/>
  <g id="Group_12" data-name="Group 12" transform="translate(30.165 21.879)">
    <path id="Path_62" data-name="Path 62" d="M956.4,728.082c.457-.428.628-.372.758-.254,1.916,2.595-.98,4.662-2.287,5.5C954.88,731.57,955.034,729.347,956.4,728.082Z" transform="translate(-954.667 -727.705)" fill="#ec3724" fill-rule="evenodd"/>
    <path id="Path_63" data-name="Path 63" d="M956.413,733.449s-.179,1.478-.225,1.869-.048.66-.048.66.739-1.864.965-2.448.672-1.215.727-.955a10.906,10.906,0,0,1-.311,1.78,2.457,2.457,0,0,0,.713-1.213c.281-.889.414-.918.5-.651a3.453,3.453,0,0,1,.094.636,3.27,3.27,0,0,0,.028-1.019c-.093-.334-.257-.825-.523-.778a8.641,8.641,0,0,0-1.345.774Z" transform="translate(-955.814 -730.943)" fill="#a41e23" fill-rule="evenodd"/>
    <path id="Path_64" data-name="Path 64" d="M958.75,745.938a14.5,14.5,0,0,1-1.147,3.109c-.523.99.619-.244,1.732-1.511a2.673,2.673,0,0,0,.731-1.957s-.314.538-.836,1.293a11.341,11.341,0,0,1-.737.939A5.317,5.317,0,0,0,958.75,745.938Z" transform="translate(-957.018 -743.822)" fill="#f2653d" fill-rule="evenodd"/>
    <path id="Path_65" data-name="Path 65" d="M961.892,733.55a5.085,5.085,0,0,1-.27,2.515,13.091,13.091,0,0,1-1.652,2s1.754-1.09,2.078-2.011a3.3,3.3,0,0,0,.312-1.664A2.345,2.345,0,0,0,961.892,733.55Z" transform="translate(-959.275 -732.951)" fill="#feca7f" fill-rule="evenodd"/>
    <path id="Path_66" data-name="Path 66" d="M955.088,727.588a2.512,2.512,0,0,1,.059,3.165,7.429,7.429,0,0,1-1.973,1.826,12.014,12.014,0,0,1,.25-2.379,4.409,4.409,0,0,1,1.211-2.331l-.281-.3a4.8,4.8,0,0,0-1.332,2.544,13.147,13.147,0,0,0-.26,2.857l0,.376.312-.205a8.553,8.553,0,0,0,2.411-2.15,2.9,2.9,0,0,0-.067-3.647Z" transform="translate(-952.76 -727.34)" fill="#30111f"/>
  </g>
  <path id="Path_67" data-name="Path 67" d="M770.934,658.976l-8.324-.652s5.872-5.373,9.594-5.973a14.46,14.46,0,0,1,7.075.8,8.5,8.5,0,0,1-3,3.228C774.471,657.325,770.934,658.976,770.934,658.976Z" transform="translate(-750.772 -637.564)" fill="#a41e23" fill-rule="evenodd"/>
  <path id="Path_68" data-name="Path 68" d="M822.975,542.539l0-.024c-.474-.589.65-1.567,1.433-2.78,1.319-2.042.962-4.778-1.448-5.577-.824-.272-1.766-.094-2.055-.614-.344-.628.946-3.087-.408-3.377-4.452-3.728-12.6-2.221-16.442,2.676-1.767,2.255-1.155,5.068-.564,6.673.139.38.626,1.5,1.1,2.558.5,1.124.848,2.093,1.242,3.223a3.23,3.23,0,0,0,1.041,1.583,6.8,6.8,0,0,0,1.664.743,19.289,19.289,0,0,0,8.529.9c2.576-.369,4.646-1.527,5.6-4.209.161-.065.317-.11.461-.157a1.905,1.905,0,0,0,1.2-.937c.107-.332-.011-.749-.829-.792A1.545,1.545,0,0,0,822.975,542.539Z" transform="translate(-787.171 -525.41)" fill="#e99868" fill-rule="evenodd"/>
  <path id="Path_69" data-name="Path 69" d="M954.3,661c-.567-.058-.7-.954-.6-1.387.213-.623.213-.861.172-.95-1.482.69-3.469.764-4.25,1.581-1.06,1.11.041,2.642,1.548,2.61s1.965-1.026,3.033-1.779A1.084,1.084,0,0,1,954.3,661Z" transform="translate(-919.372 -643.4)" fill="#891845" fill-rule="evenodd"/>
  <path id="Path_70" data-name="Path 70" d="M926.2,569.093s.362.825.579.811.077-.307-.442-.947a6.975,6.975,0,0,0-2.245-1.256,12.556,12.556,0,0,1,1.25.672,3.228,3.228,0,0,1,.858.721Zm.094-1.12a4.373,4.373,0,0,0-1.073-.783,5.726,5.726,0,0,1,1.262.681l.484.391a1.565,1.565,0,0,0-.225-.457c-.106-.082.087-.133.41.359s.8,1.7.6,1.908-.772-1.137-.772-1.137S927.109,568.673,926.292,567.973Z" transform="translate(-896.689 -560.746)" fill="#d96e53" fill-rule="evenodd"/>
  <path id="Path_71" data-name="Path 71" d="M871.952,529.4c-.671-1.029-1.719-.538-2.465-.919-2.533-1.3-5.205-1.913-9.437.033,1.588-1.156,4.976-1.866,7.672-1.488a6.936,6.936,0,0,1,4.743,2.287C872.151,529.482,872.266,529.232,871.952,529.4Z" transform="translate(-838.821 -524.358)" fill="#f7cc82" fill-rule="evenodd"/>
  <path id="Path_72" data-name="Path 72" d="M939.675,542.2s.535-.84.178-1.2-1.086-.343-1.369-.472-.215-.149-.346-.261-1.2-.612-1.2-.612a5.919,5.919,0,0,1,1.7.54c.339.295.491.224.995.293s1.128-.027,1.413.274.644.722-.275,1.721-1.443,1.722-1.443,1.722Z" transform="translate(-908.3 -535.86)" fill="#d96e53" fill-rule="evenodd"/>
  <path id="Path_73" data-name="Path 73" d="M933.684,624.751s-.154-.73-.444-.719a2.971,2.971,0,0,1-.679-.088s1.375-.666,1.638-1.258.427-1.437,1.21-1.51a.345.345,0,0,1,.07,0,6.518,6.518,0,0,1,.925-1.917c.76-.965,1.155-.922,1.155-.922s-.891.475-1.025,1.076a8.689,8.689,0,0,0-.141,1.023,4.955,4.955,0,0,1-.7,1.248c-.1.275-.276.571-.24.651a2.677,2.677,0,0,0,2.322-.545c1.086-.744.723-1.428.723-1.428s1.066.665.313,1.334-2.907.964-3.493,1.2a3.187,3.187,0,0,0-1.394,1.364A2.089,2.089,0,0,1,933.684,624.751Z" transform="translate(-904.342 -606.964)" fill="#d96e53" fill-rule="evenodd"/>
  <path id="Path_74" data-name="Path 74" d="M838.1,625.834s.4-.124.274-.424-.621.019-.621.019l.988-.893a1.178,1.178,0,0,0,.077.967c.272.518.26-.241.408-.547s.508.189.345.471.169.2.473-.137a4.651,4.651,0,0,1,.967-.706s-.171.112-.4.717a2.091,2.091,0,0,0-.057,1.194s-.1-.146.655-1.239,1.181-.812,1.181-.812a1.023,1.023,0,0,0-.583.6,1.391,1.391,0,0,0,.4,1.93c-.4-.583-.56-1.515.1-1.948-.664.652-.328,1.349.4,1.825a3.3,3.3,0,0,0,3.463.146,4.573,4.573,0,0,0,.961-.644l.828,1.258c-.26.293-.47.53-.285.6a1.232,1.232,0,0,0,.643-.057l.8,1.217a4.2,4.2,0,0,1-2.315.307c-1.014-.269-4.592.062-6.08-.925a10.261,10.261,0,0,1-2.614-2.92Zm4.059-7.024a3.183,3.183,0,0,0,.347,3.108,2.688,2.688,0,0,0,2.06,1.319,4.691,4.691,0,0,1-1.489-1.044,3.465,3.465,0,0,1-.906-2.642s.1-.156.231-.373Zm6.948,10.562-.8-1.217a12.859,12.859,0,0,0,1.785-.662c.839-.378,1.358-.649,1.008-.28a11.445,11.445,0,0,1-1.264,1.005,5.477,5.477,0,0,0,1.463-.649,6.587,6.587,0,0,0,.834-.694c.318-.4.667-.887.561-.8-.157.132-.567.437-.567.437l.392-.473a5.267,5.267,0,0,1,1.959-1.352c.7-.245,1.022-.364,1.022-.364.06-.1.126-.205.191-.311a.681.681,0,0,1-.21.661c-.311.269-1.188.473-1.594.74a4.441,4.441,0,0,0-.823.693,9.264,9.264,0,0,1-.624,1.067A4.636,4.636,0,0,1,850.5,628.8c-.437.195-.911.4-1.391.572Zm-1.159-1.761-.828-1.258a7.583,7.583,0,0,0,1.169-1.281,2.294,2.294,0,0,1,.06.728c-.024.44-.858,1.3-.42,1.015a2.76,2.76,0,0,0,.759-.923,2.52,2.52,0,0,1-.2.972,2.8,2.8,0,0,1-.542.747Zm-5.7-8.979c.363-.623.742-.994.89-.911.1.063-.422.941-.739,1.457l-.243-.369C842.186,618.749,842.216,618.689,842.249,618.633Z" transform="translate(-818.67 -606.397)" fill="#d96e53" fill-rule="evenodd"/>
  <path id="Path_75" data-name="Path 75" d="M927.172,580.673c.241-.129-.43-.485-1.1-.707s-.662-.088-.193.29A1.476,1.476,0,0,0,927.172,580.673Z" transform="translate(-898.006 -572.195)" fill="#f7cc82" fill-rule="evenodd"/>
  <path id="Path_76" data-name="Path 76" d="M893.936,550.5c.4.117.407.732.368,1.17-.028.39-.112.811-.18,1.229-.148.889-.017,1.343,1.088,1.284.749,1.35-.989,2.359-1.967,2.869-.913.478-.693,1.642-1.575,3.042-.769,1.209-2.334,2.611-4.085,2.46-2.309-.2-4.858-3.321-3.171-5.519,1.468-1.913,4.9-2.119,5.988-3.1.826-.741,1.238-2.024,2.12-2.778C892.864,550.87,893.433,550.356,893.936,550.5Z" transform="translate(-860.343 -545.643)" fill="#ec3724" fill-rule="evenodd"/>
  <path id="Path_77" data-name="Path 77" d="M905.037,561.09c-.006.062-.011.118-.015.172-.028.39-.112.812-.18,1.229a1.508,1.508,0,0,0,.045.953c-.134.106-.228.191-.228.191s-.111.1.087.4a2.195,2.195,0,0,1-.065,1.641c-.224.269-.172.322.1.252.1-.028.283-.029.482-.09a6.145,6.145,0,0,1-.818.55l-.1-.049a2.526,2.526,0,0,1-.858.18c-.325-.025-.85.891-.77,1.065.05.112.25.132.516.067a13.789,13.789,0,0,1-.533,1.479.98.98,0,0,0-.622-.062,3.519,3.519,0,0,1-1.563,1.336,4.485,4.485,0,0,1-2.254.046c-.6-.173-1.227.83-1.213,1.2,0,.04,0,.078.01.121a4.855,4.855,0,0,1-1.319-1c.28-.219.472-.485.453-.664a5.417,5.417,0,0,1,.042-2.313,6.051,6.051,0,0,1,3.652-2.146c1.843-.363,1.55-.763,1.649-.852a2.333,2.333,0,0,0,.522-.373c.279-.282,1.177-1.878,1.572-2.418a2.642,2.642,0,0,1,1.289-.772A1.593,1.593,0,0,0,905.037,561.09Z" transform="translate(-871.062 -555.234)" fill="#a41e23" fill-rule="evenodd"/>
  <path id="Path_78" data-name="Path 78" d="M964.223,606.58a.942.942,0,0,1-1.182-.013,1.4,1.4,0,0,1-.671-1.117,2.384,2.384,0,0,0,.856.867A2.521,2.521,0,0,0,964.223,606.58Z" transform="translate(-931.278 -595.318)" fill="#f2653d" fill-rule="evenodd"/>
  <path id="Path_79" data-name="Path 79" d="M956.748,551.2a.589.589,0,0,0-.736-.1,6.633,6.633,0,0,0-1.747,1.718c-.144.205-.288.393-.419.555-.313.381-.571.573-.692.583a4.708,4.708,0,0,0,.349-.433,11.825,11.825,0,0,1,2.077-2.587c.938-.652,1.012-.195,1.086-.116A.946.946,0,0,1,956.748,551.2Z" transform="translate(-922.949 -545.747)" fill="#feca7f" fill-rule="evenodd"/>
  <path id="Path_80" data-name="Path 80" d="M884.8,608.78a3.825,3.825,0,0,0-1.449,1.749,2.576,2.576,0,0,0,.21,2.141c.777,1.315,2.446,3.454,5.287,2.267C886.447,615.524,881.979,612.672,884.8,608.78Z" transform="translate(-859.75 -598.328)" fill="#f89a61" fill-rule="evenodd"/>
  <path id="Path_81" data-name="Path 81" d="M890.539,558.359a5.548,5.548,0,0,1-1.06,1.534,4.477,4.477,0,0,1-3.339,1.6,4.537,4.537,0,0,1-3.1-2.04l-.11-.167a3.78,3.78,0,0,1-.648-2.266c.174-2.033,3.1-3.049,4.518-3.525.158-.052.306-.1.444-.146l.118.178c-.158.051-.32.106-.5.164-1.589.527-4.151,1.352-4.326,3.421a4.181,4.181,0,0,0,3.612,4.042,4.139,4.139,0,0,0,3.18-1.405,5.6,5.6,0,0,0,1.091-1.567Zm.451-8.2a15.631,15.631,0,0,0-1.37,1.884,3.974,3.974,0,0,1-2.259,1.48l-.118-.178a3.791,3.791,0,0,0,2.241-1.462,14.29,14.29,0,0,1,1.383-1.909c.66-.65,1.455-1.208,1.858-.8l.125.191a1.619,1.619,0,0,1,.118.568,2.839,2.839,0,0,1,0,.444h0c-.026.332-.085.684-.146,1.032h0l-.035.2c-.152.891.147,1.212,1.046,1.166a1.513,1.513,0,0,1-.32,1.926,5.547,5.547,0,0,1-1.149.861,2.27,2.27,0,0,0-1.351,1.569,9,9,0,0,1-.469,1.222l-.118-.178a8.243,8.243,0,0,0,.416-1.064,2.619,2.619,0,0,1,1.516-1.788,4.761,4.761,0,0,0,1-.764,1.311,1.311,0,0,0,.354-1.575c-1.025.034-1.289-.466-1.13-1.408l.035-.2h0c.06-.342.118-.687.147-1.015h0a3.5,3.5,0,0,0,.012-.4C892.715,548.719,891.757,549.384,890.99,550.162Z" transform="translate(-858.9 -544.344)" fill="#30111f"/>
  <path id="Path_82" data-name="Path 82" d="M964.178,580.06a1.813,1.813,0,0,1,.605.311,2.264,2.264,0,0,1,.734,1.011c.58,1.793-1,3.021-1.919,1.158a2.707,2.707,0,0,1-.261-.945C963.287,580.96,963.814,580.55,964.178,580.06Z" transform="translate(-932.151 -572.376)" fill="#cbd9d3" fill-rule="evenodd"/>
  <path id="Path_83" data-name="Path 83" d="M971.782,583.15l.014.013a2.263,2.263,0,0,1,.734,1.011c.385,1.177-.17,2.112-.851,2.083h0a2.13,2.13,0,0,1-.542-2A1.889,1.889,0,0,1,971.782,583.15Z" transform="translate(-939.164 -575.168)" fill="#f5f6ce" fill-rule="evenodd"/>
  <path id="Path_84" data-name="Path 84" d="M961.74,603.39a1.93,1.93,0,0,0,1.611,1.44,1.709,1.709,0,0,0,.653-.191,1.567,1.567,0,0,1-1.5-.465A9.449,9.449,0,0,0,961.74,603.39Z" transform="translate(-930.71 -593.457)" fill="#feca7f" fill-rule="evenodd"/>
  <path id="Path_85" data-name="Path 85" d="M963.168,579.247a1.75,1.75,0,0,1,.571.293h.007c.039.033.078.066.12.1s.079.076.117.116a2.085,2.085,0,0,1,.458.739,1.83,1.83,0,0,1-.121,1.591.837.837,0,0,1-.328.3.642.642,0,0,1-.4.051c-.3-.054-.615-.316-.881-.863a2.414,2.414,0,0,1-.25-1.29l-.2-.028a2.645,2.645,0,0,0,.266,1.412,1.59,1.59,0,0,0,1.027.97.856.856,0,0,0,.526-.066,1.1,1.1,0,0,0,.415-.366,2.055,2.055,0,0,0,.141-1.767,2.285,2.285,0,0,0-.5-.822c-.041-.043-.087-.088-.131-.129s-.09-.074-.131-.111h-.007a1.949,1.949,0,0,0-.645-.326Z" transform="translate(-931.168 -571.463)" fill="#30111f"/>
  <path id="Path_86" data-name="Path 86" d="M919.673,612.463a2.8,2.8,0,0,1,1.547-.441,2.628,2.628,0,0,1,1.709,1.829,1.819,1.819,0,0,1-2.936,1.8C919.242,615,918.658,613.305,919.673,612.463Z" transform="translate(-892.207 -601.256)" fill="#cbd9d3" fill-rule="evenodd"/>
  <path id="Path_87" data-name="Path 87" d="M924.065,617.711a2.651,2.651,0,0,1,.744,1.255,1.82,1.82,0,0,1-2.936,1.8,2.687,2.687,0,0,1-.663-.982,3.419,3.419,0,0,1,1.046-1.583A2.221,2.221,0,0,1,924.065,617.711Z" transform="translate(-894.086 -606.371)" fill="#f5f6ce" fill-rule="evenodd"/>
  <path id="Path_88" data-name="Path 88" d="M920.252,611.217h0a2.156,2.156,0,0,1,.314.124,2.5,2.5,0,0,1,1.322,1.631,1.639,1.639,0,0,1-.119,1.136,1.807,1.807,0,0,1-1.593.972,1.618,1.618,0,0,1-1.055-.411,2.321,2.321,0,0,1-.214-.22,2.807,2.807,0,0,1-.587-1.317,1.628,1.628,0,0,1,.318-1.337,1.446,1.446,0,0,1,.159-.157l-.128-.16a1.359,1.359,0,0,0-.184.179,1.834,1.834,0,0,0-.368,1.509,3.043,3.043,0,0,0,.634,1.414,2.139,2.139,0,0,0,.234.241,1.809,1.809,0,0,0,1.188.463,2,2,0,0,0,1.039-.294,1.964,1.964,0,0,0,.739-.794,1.8,1.8,0,0,0,.137-1.276,2.775,2.775,0,0,0-1.1-1.571,2.4,2.4,0,0,0-.325-.194,1.74,1.74,0,0,0-.351-.136h0Z" transform="translate(-891.266 -600.352)" fill="#30111f"/>
  <path id="Path_89" data-name="Path 89" d="M977.416,616.349l.075.026a4.119,4.119,0,0,0-.678.667c-.229.314-.141.307-.141.307a1.529,1.529,0,0,1,.111-.689c.138-.259-.138-.13-.427.129l-.286.263a2.088,2.088,0,0,1,.644-.807,2.2,2.2,0,0,1,.716-.326Z" transform="translate(-943.659 -604.779)" fill="#f7cc82" fill-rule="evenodd"/>
  <path id="Path_90" data-name="Path 90" d="M983.322,611.63a2.12,2.12,0,0,0-1.956,2.188A1.767,1.767,0,0,1,983.322,611.63Z" transform="translate(-948.39 -600.892)" fill="#30111f"/>
  <path id="Path_91" data-name="Path 91" d="M1014.19,608.22a3.714,3.714,0,0,1,.611,1.848,4.05,4.05,0,0,1-.591,1.656,3.356,3.356,0,0,0,.954-2.209A1.536,1.536,0,0,0,1014.19,608.22Z" transform="translate(-978.105 -597.822)" fill="#f7cc82" fill-rule="evenodd"/>
  <path id="Path_92" data-name="Path 92" d="M992.875,601.949c-.443.687-1.258,1.932-1.913,1.944-.158,0-.28-.135-.475-.281a4.977,4.977,0,0,1-.368-1,2.726,2.726,0,0,1,.614-2.682,1.222,1.222,0,0,1,2,.4,2.727,2.727,0,0,1,.264.657A1.079,1.079,0,0,1,992.875,601.949Z" transform="translate(-956.262 -589.996)" fill="#ee6c64" fill-rule="evenodd"/>
  <path id="Path_93" data-name="Path 93" d="M993.411,600.225s-.506-.521-1.015-.3a1.712,1.712,0,0,0-.991,1.215c-.126.56-.439.562-.338-.178a1.966,1.966,0,0,1,1.091-1.426,1.025,1.025,0,0,1,1.255.326,2.067,2.067,0,0,1,.433.826Z" transform="translate(-957.193 -589.89)" fill="#f5a3c7" fill-rule="evenodd"/>
  <path id="Path_94" data-name="Path 94" d="M989.165,603.078a3.7,3.7,0,0,1-.58-2.473,1.908,1.908,0,0,1,.869-1.542,1.064,1.064,0,0,1,.971-.1,1.5,1.5,0,0,1,.822.878,3.581,3.581,0,0,1,.215,1.033,1.3,1.3,0,0,0,.014-1.021,1.815,1.815,0,0,0-.978-1.054,1.243,1.243,0,0,0-1.153.1,2.211,2.211,0,0,0-1.052,1.8,3.986,3.986,0,0,0,.205,1.452A1.6,1.6,0,0,0,989.165,603.078Z" transform="translate(-954.696 -589.215)" fill="#30111f"/>
  <path id="Path_95" data-name="Path 95" d="M828.4,536.514a16.9,16.9,0,0,0-3.563,1.733,8.711,8.711,0,0,0-2.468,2.152s.824-.867,1.188-.933-.064.478-.064.478.5-.156.605-.352.048-.386.884-.936.951-.754,1.438-.818.436-.309,1.653-.581a6.713,6.713,0,0,1,2.063-.415c1.171-.032,2.516,0,1.623-.2A21.729,21.729,0,0,0,828.4,536.514Z" transform="translate(-804.772 -533.014)" fill="#d96e53" fill-rule="evenodd"/>
  <path id="Path_96" data-name="Path 96" d="M811.042,594.538s-.17.007-.425-.488-.217-.6-.007-.594-.1-.252-.361-.814a8.1,8.1,0,0,1-.351-2.292,4.241,4.241,0,0,1,.355-1.6,11.307,11.307,0,0,0,.231,3.074c.327.761.666,1.277,1.046,1.271s.419-.485.419-.485a.458.458,0,0,1,.032.578c-.232.292-.064.5.216.382a2.356,2.356,0,0,1,.924-.079c.254.007.359.008.359.008a2.962,2.962,0,0,0-.9.491c-.411.339-.356.582-.356.582Z" transform="translate(-793.499 -580.228)" fill="#d96e53" fill-rule="evenodd"/>
  <path id="Path_97" data-name="Path 97" d="M963.138,677.628s.785-.01.57.195-1.2.44-2.063,1.008a10.56,10.56,0,0,1-2.058,1.353,1.417,1.417,0,0,1-1.469-.208l-.417-.2a5.042,5.042,0,0,0,2.158.011,16.589,16.589,0,0,0,2.288-1.825A1.844,1.844,0,0,1,963.138,677.628Z" transform="translate(-927.059 -660.54)" fill="#f7cc82" fill-rule="evenodd"/>
  <path id="Path_98" data-name="Path 98" d="M979.929,698.069a5.3,5.3,0,0,1-.977,1.556,7.4,7.4,0,0,1-1.321,1.217,4.9,4.9,0,0,0,2.044-1.444,4.639,4.639,0,0,0,.808-1.618Z" transform="translate(-945.068 -678.75)" fill="#f7cc82" fill-rule="evenodd"/>
  <path id="Path_99" data-name="Path 99" d="M994.511,675.82c.417-.321,1.5-.854,2.024-.493.483.328.032.8-.3.994a3,3,0,0,1-.593.256,2.415,2.415,0,0,0-1.7,1.655,3.243,3.243,0,0,1,1.889-1.283,2.276,2.276,0,0,0,1.366-.893c.227-.468.059-1.184-1.046-1.237A2.082,2.082,0,0,0,994.511,675.82Z" transform="translate(-959.807 -658.003)" fill="#30111f"/>
  <path id="Path_100" data-name="Path 100" d="M997.139,639.254a7.6,7.6,0,0,0-.732,1.389c-.233.636.288.084.694-.386a3.513,3.513,0,0,0,.6-1.066,2.988,2.988,0,0,1-.589,1.358,4.733,4.733,0,0,0-1.052,1.459c-.148.517-.013.723.186.848.031.189-.049.1-.238.2s-.372-.354-.451-.651.122-.662.087-.894-.413.434-.377.876a2.013,2.013,0,0,0,.336.866s-.057.224-.244.044a1.749,1.749,0,0,1-.461-1.5c.152-.723.342-.824.342-.824A4.74,4.74,0,0,0,997.139,639.254Z" transform="translate(-960.641 -625.807)" fill="#d96e53" fill-rule="evenodd"/>
  <path id="Path_101" data-name="Path 101" d="M991.81,588.14a1.236,1.236,0,0,1,.221.919c-.056.613.119.649.353.076s.255-.779.017-.848S991.81,588.14,991.81,588.14Z" transform="translate(-957.882 -579.677)" fill="#f2653d" fill-rule="evenodd"/>
  <path id="Path_102" data-name="Path 102" d="M1005.79,591.719a.7.7,0,0,0,.379.594,2.525,2.525,0,0,1,1.431.947,3.6,3.6,0,0,1,.537,1.8,2.489,2.489,0,0,0-.514-2.522C1006.534,591.462,1005.79,591.719,1005.79,591.719Z" transform="translate(-970.514 -582.886)" fill="#f7cc82" fill-rule="evenodd"/>
  <path id="Path_103" data-name="Path 103" d="M804.52,568.99s-1.686,2.237-1.626,3.459a17.923,17.923,0,0,0,.461,2.662c.014.217-.149.162,0,.582s.528,1.3.528,1.3a12.713,12.713,0,0,1,1.215,2.979c.179,1.1.922,1.1.823,1.586s-.237.284-.021.56a11.806,11.806,0,0,1,.709,1.371,3.4,3.4,0,0,1-1.253-1.658c-.458-1.182-2.18-4.985-2.487-5.689a9.641,9.641,0,0,1-.276-4.592A6.277,6.277,0,0,1,804.52,568.99Z" transform="translate(-786.746 -562.372)" fill="#f7cc82" fill-rule="evenodd"/>
  <path id="Path_104" data-name="Path 104" d="M986.25,570.377s-.241.658-.041.98.565.337.7.61.631-.136.426-.28-.985-.137-.984-.736a7.561,7.561,0,0,1,.126-1.24Z" transform="translate(-952.749 -563.023)" fill="#feca7f" fill-rule="evenodd"/>
  <path id="Path_105" data-name="Path 105" d="M800.561,534.684l.611.929a17.811,17.811,0,0,0,1.464,4.188,8.76,8.76,0,0,1-2.075-5.117Zm2.685,7.431.409-.06c.362,2.355,2.205,3.247,4.245,3.784l.149.227a5.628,5.628,0,0,1-4.03-1.955l-.187-.284A4.707,4.707,0,0,1,803.246,542.115Zm1.885-14.483.226.345c-2.068,1.168-3.84,2.886-4.264,5.078a6.881,6.881,0,0,0,.078,2.559l-.611-.929a7.142,7.142,0,0,1,.135-1.74c.452-2.293,2.289-4.088,4.435-5.313Zm2.767,18.207c.528.141,1.065.258,1.593.371-.485-.03-.97-.077-1.443-.144l-.15-.227Zm3.555.639a16.23,16.23,0,0,0,5.5-.878l.237.361A11.58,11.58,0,0,1,811.453,546.478Zm9.571-6.254-.32.256c-.651-.8.957-2.31,1.42-3.021a4.123,4.123,0,0,0,.613-3.24c-.012-.044-.024-.089-.037-.127a3.052,3.052,0,0,0-2.807-2.066c-.557-.069-1.046-.132-1.279-.548h0l0,0h0a2.414,2.414,0,0,1,.049-1.358c.159-.819.341-1.771-.317-1.913-2.063-2.155-5.528-2.369-8.341-1.9a14.674,14.674,0,0,0-4.645,1.671l-.226-.345a15.129,15.129,0,0,1,4.8-1.734c2.713-.453,6.644-.3,8.551,1.916,1.055.271.73,1.613.582,2.379a2.353,2.353,0,0,0-.088,1.086h0c.13.234.517.282.965.336a3.445,3.445,0,0,1,3.191,2.5,4.558,4.558,0,0,1-.663,3.57c-.313.48-1.812,2.082-1.448,2.54Zm-.637,2.018.381-.076a6.076,6.076,0,0,1-3.579,3.8l-.237-.361A5.556,5.556,0,0,0,820.386,542.243Z" transform="translate(-785.059 -523.247)" fill="#30111f"/>
  <path id="Path_106" data-name="Path 106" d="M864.49,898.86c1.438,1.682,3.2,2.029,5.079.642C868.17,901.2,866.14,901.042,864.49,898.86Z" transform="translate(-842.833 -860.45)" fill="#30111f"/>
  <path id="Path_107" data-name="Path 107" d="M839.583,939.18c.145.556-.916,1.515-1.3.874A1.211,1.211,0,0,0,839.583,939.18Z" transform="translate(-819.149 -896.884)" fill="#30111f"/>
  <path id="Path_108" data-name="Path 108" d="M714.163,794.269c.047.4.37.943.763.788a.413.413,0,0,0,.2-.558.914.914,0,0,0-1.221-.371,1.617,1.617,0,0,0-.83,1.028.878.878,0,0,0,.919,1.052c-.652.406-1.26-.2-1.357-.816a1.967,1.967,0,0,1,2.4-1.871,1.108,1.108,0,0,1,.69,1.429.967.967,0,0,1-1.333.545A.823.823,0,0,1,714.163,794.269Z" transform="translate(-705.605 -765.195)" fill="#e99868" fill-rule="evenodd"/>
  <path id="Path_109" data-name="Path 109" d="M714.185,800.119a1.64,1.64,0,0,1,.529-1.441.981.981,0,0,1,.6-.307.513.513,0,0,1-.2.243c-.144.083-.833.687-.677,1.207a1.006,1.006,0,0,0,.565.762,1.036,1.036,0,0,0,.34.137.82.82,0,0,1-.626.011A1.293,1.293,0,0,1,714.185,800.119Z" transform="translate(-706.99 -769.643)" fill="#d96e53" fill-rule="evenodd"/>
  <path id="Path_110" data-name="Path 110" d="M712.852,791.712c-.777-.553-1.78.247-1.934,1.028a.963.963,0,0,0,.627,1.1c-.69.047-1.025-.959-.837-1.467a2.209,2.209,0,0,1,1.624-1.208,1.119,1.119,0,0,1,1.194.551.926.926,0,0,1-.032.951c-.608.906-1.579.19-1.63-.649a1.177,1.177,0,0,0,.566,1.319c1.027.475,1.969-1.027,1.342-1.894a1.7,1.7,0,0,0-1.487-.644,2.589,2.589,0,0,0-1.834,1.41,1.444,1.444,0,0,0,.763,1.841,1.2,1.2,0,0,0,1.325-.522.879.879,0,0,1-1.372-.83,1.3,1.3,0,0,1,.725-.878.835.835,0,0,1,.841.051.483.483,0,0,1,.224.464c-.089.448-.57.107-.719-.236a.766.766,0,0,0,.264.623.45.45,0,0,0,.276.074C713.379,792.708,713.265,792,712.852,791.712Z" transform="translate(-703.545 -762.799)" fill="#30111f"/>
  <path id="Path_111" data-name="Path 111" d="M728.93,789.764c.059-.423.112-.846.171-1.269a1.563,1.563,0,0,0-1.764-.561c-1.065.4-1.424,1.53-1.049,2.056a.878.878,0,0,0,1,.455c-.861-.451-.754-.951-.6-1.369a1.023,1.023,0,0,1,1.1-.636A1.477,1.477,0,0,1,728.93,789.764Z" transform="translate(-717.82 -760.125)" fill="#d96e53" fill-rule="evenodd"/>
  <path id="Path_112" data-name="Path 112" d="M725.272,787.7a.957.957,0,0,1-1.355.159,1.309,1.309,0,0,1-.484-.984,1.884,1.884,0,0,1,.844-1.509l.16.244a1.838,1.838,0,0,0-.45.465,1.084,1.084,0,0,0,.34,1.631,1.1,1.1,0,0,0,.945,0Zm-.669-1.839a.993.993,0,0,0-.489.548c-.163.433-.027,1.3.716.93a.548.548,0,0,1-.505-.812.794.794,0,0,1,.43-.434Zm-.165-.252-.16-.244a2.356,2.356,0,0,1,.924-.416,1.574,1.574,0,0,1,1.334.349.541.541,0,0,1,.1.1l.069.1a1.659,1.659,0,0,1,.225,1.067,2.294,2.294,0,0,0-.7-.969,1.457,1.457,0,0,0-1.789,0Zm.317.483a.986.986,0,0,1,.953.141,1.409,1.409,0,0,1,.654,1.18,1.264,1.264,0,0,0-1.759-1.552Z" transform="translate(-715.37 -757.497)" fill="#30111f"/>
  <path id="Path_113" data-name="Path 113" d="M793.362,805.009a3.376,3.376,0,0,1-.279.892,4.779,4.779,0,0,1-1.405,1.831c-3.064,2.015-7.7,4.033-11.458,3.042-4.006-1.052-6.393-5.469-6.391-9.894,2.516,10.268,10.985,10.064,17.953,5.464C792.309,806,792.852,805.4,793.362,805.009Z" transform="translate(-760.911 -771.913)" fill="#a41e23" fill-rule="evenodd"/>
  <path id="Path_114" data-name="Path 114" d="M791.669,807.733c-3.064,2.015-7.7,4.033-11.458,3.042-4.006-1.052-6.393-5.469-6.391-9.894a15.534,15.534,0,0,0,1.41,3.752c-.346.164-.5.307-.519.394a.846.846,0,0,0,.049.508s2.241,2.753,4.284,3.606-.5.225-.976-.114c-.272-.193.218.659,2.054,1.143,3.458.9,8.8-.292,11.386-2.833-.322.147-1.864,1.028-2.032,1.075a19.478,19.478,0,0,0,3.631-2.877C793.333,805.65,792.634,807.1,791.669,807.733Z" transform="translate(-760.902 -771.913)" fill="#f2653d" fill-rule="evenodd"/>
  <path id="Path_115" data-name="Path 115" d="M938.022,844.81a6.015,6.015,0,0,1-.955,1.163,8.615,8.615,0,0,1-1.026.837l.707-.3c.2-.085.064.1-.651.707s-2.178,1.567-2.178,1.567a8.516,8.516,0,0,0,2.915-1.825A8.167,8.167,0,0,0,938.022,844.81Z" transform="translate(-905.571 -811.609)" fill="#feca7f" fill-rule="evenodd"/>
  <path id="Path_116" data-name="Path 116" d="M789.449,859.45a6.915,6.915,0,0,0,1.493,1.669c.813.581,1,.73,1,.73a4.694,4.694,0,0,1-1.032-.553c-.324-.28-.429-.386-.429-.386a10.043,10.043,0,0,0,1.107,1.225,14.155,14.155,0,0,0,1.433,1.092,12.106,12.106,0,0,1-2.671-2.01,6.475,6.475,0,0,1-1.254-1.739Z" transform="translate(-774.709 -824.838)" fill="#feca7f" fill-rule="evenodd"/>
  <path id="Path_117" data-name="Path 117" d="M784.815,799.107a15.116,15.116,0,0,1-6.463.85,7.144,7.144,0,0,1-3.3-1.916c-2.872-2.529-3.553-5.825-3.64-9.441.937,7.708,6.555,10.735,12.546,9.2l.142.215c-5.324,1.5-10.367-.356-12.146-6.649a10.563,10.563,0,0,0,3.252,6.553,6.546,6.546,0,0,0,2.915,1.559,14.258,14.258,0,0,0,6.556-.586Zm-.718-1.091-.142-.215a17.027,17.027,0,0,0,7.591-4.492,5.281,5.281,0,0,1-2.37,3.8,17.734,17.734,0,0,1-4.361,2l-.142-.215a18.033,18.033,0,0,0,1.754-.63c2.065-.865,4.1-2.141,4.439-3.92A18.758,18.758,0,0,1,784.1,798.016Z" transform="translate(-758.724 -760.816)" fill="#30111f"/>
  <path id="Path_118" data-name="Path 118" d="M854.088,787.627a11.738,11.738,0,0,1-4.3,2.068,5.563,5.563,0,0,1-5.151-1.681c-.045-.051-.1-.1-.144-.156l.154-.137c.045.051.091.1.141.151a5.428,5.428,0,0,0,5.095,1.312,11.754,11.754,0,0,0,5.259-2.575,5.326,5.326,0,0,1-.721.759,5.844,5.844,0,0,0,4.786-2.189C858.438,787.55,855.356,787.752,854.088,787.627Z" transform="translate(-824.76 -757.726)" fill="#30111f"/>
  <path id="Path_119" data-name="Path 119" d="M865.485,776.64a3.641,3.641,0,0,1-3.525,2.923C863.851,780.343,865.461,778.221,865.485,776.64Z" transform="translate(-840.547 -750.009)" fill="#30111f"/>
  <path id="Path_120" data-name="Path 120" d="M758.709,729.55l3.085.669s2.215,1.706,1.932,4.014c-.238,1.954-2.637,3.4-4.324,4.077.83.041,2.079.341,2.071,1.248-.146,1.253-2,2.011-3.767,1.989-1.686.946-5.494,1.044-6.1-1.339a3.739,3.739,0,0,1-1.41-3.514,5.547,5.547,0,0,1,3.785-3.845A5.109,5.109,0,0,1,758.709,729.55Z" transform="translate(-739.501 -707.458)" fill="#e99868" fill-rule="evenodd"/>
  <path id="Path_121" data-name="Path 121" d="M766.928,825.742l-.12,0a1.579,1.579,0,0,1-.588.247,1.474,1.474,0,0,1-.481.02s.886.621,1.3.531,1.072-.35,1-.3a2.434,2.434,0,0,1-.587.362c-.229.075.637.43,1.6-.143s1.3-.995,1.662-1.133.294-.118.294-.118a6.043,6.043,0,0,0-1.106.891c-.322.385.072.11.625-.155s1-.4,1.376-.55,1.165-1.022,1.014-1a9.051,9.051,0,0,0-1.764.254,7.894,7.894,0,0,1-2.738,1.034A5.7,5.7,0,0,1,766.928,825.742Z" transform="translate(-753.6 -793.155)" fill="#d96e53" fill-rule="evenodd"/>
  <path id="Path_122" data-name="Path 122" d="M821.927,823.781c1.549,0,5.276-1.6,2.52-2.948a2.837,2.837,0,0,0-1.024-.275c-.411-.032-.852.561-1.417.543C820.993,822.112,820.291,823.352,821.927,823.781Z" transform="translate(-803.491 -789.694)" fill="#ec3724" fill-rule="evenodd"/>
  <path id="Path_123" data-name="Path 123" d="M794.707,737.34a9.42,9.42,0,0,0-.058,1.91s-.016-.024-.17-.621a3.941,3.941,0,0,1,.367-2.457,3.851,3.851,0,0,1,2.844-2.411,2.089,2.089,0,0,1,.273-.063l.662,1.006a6.355,6.355,0,0,0-2.633.813,4.187,4.187,0,0,0-1.286,1.822Zm7.054,2.133c-.066.078-.126.153-.192.23a7.126,7.126,0,0,1-4.055,2.161,2.45,2.45,0,0,1-1.933-.844,3.942,3.942,0,0,0,1.375.508,2.7,2.7,0,0,0,1.909-.314,5.551,5.551,0,0,0,2.068-2.169s-.222.582-1.667,1.4-1.983.1-1.983.1.361.3,1.243-.045a4.178,4.178,0,0,0,2.188-2.613l1.047,1.592Zm-1.29-1.96a1.157,1.157,0,0,1-.245.423,1.742,1.742,0,0,0,.122-.609l.122.186Zm-1.791-2.723a1.374,1.374,0,0,0-.681.157,2.3,2.3,0,0,1,.938.232Zm-.056-.085-.662-1.006c1.71-.317,3.059,1.115,1.95.985a5.771,5.771,0,0,0-1.288.021Zm.056.085.256.389a2.223,2.223,0,0,1,.633.467,2.165,2.165,0,0,1,.779,1.581.835.835,0,0,1,0,.1l.122.187a1.682,1.682,0,0,0-.076-1.211,2.4,2.4,0,0,0-1.643-1.5.311.311,0,0,0-.072-.011Zm3.08,4.683c.809-1,1.247-1.913,1.051-2.062-.208-.166-.946.552-1.329-.138s-.021-1.358.484-1.359a.578.578,0,0,1,.566.506s.383-.188.088-.732l-.006-.008-.053-.081a3.9,3.9,0,0,0-2.624-.826c-1.131-.03-.219.278.089.541s.985.323.811,1.949a3.5,3.5,0,0,1-.121.621Z" transform="translate(-779.505 -711.165)" fill="#d96e53" fill-rule="evenodd"/>
  <path id="Path_124" data-name="Path 124" d="M770.77,798.209a5.806,5.806,0,0,0,1.236.455,4.505,4.505,0,0,1-2,.745,2.474,2.474,0,0,1-2.508-1.356,3.829,3.829,0,0,0,2.206,1.02,3.854,3.854,0,0,1-1.638-1.254c.672.535,2.5,1.014,2.139.68a3.911,3.911,0,0,1-1.5-2.589A4.206,4.206,0,0,0,770.77,798.209Z" transform="translate(-755.191 -767.422)" fill="#d96e53" fill-rule="evenodd"/>
  <path id="Path_125" data-name="Path 125" d="M758.413,766.454a2.221,2.221,0,0,0-1.6.308,5.233,5.233,0,0,0-1.664,1.855,4.88,4.88,0,0,1,1.325-1.273c.712-.393.779.459.818.811l.039.352a9.467,9.467,0,0,0,.111-.963c.031-.555.206-.9.478-.564s.228.745.372,1.255a2.481,2.481,0,0,0,.306.723,5.722,5.722,0,0,1-.137-1.765c.126-.612.245-1.184.245-1.184Z" transform="translate(-744.031 -740.404)" fill="#d96e53" fill-rule="evenodd"/>
  <path id="Path_126" data-name="Path 126" d="M753.217,757.676l-1.753-2.666a3.846,3.846,0,0,0,1.181,2.281,1.68,1.68,0,0,0,.573.385Zm-1.987-1.112a3.118,3.118,0,0,1-.015-1.931l.16.244a5.261,5.261,0,0,0,1.294,3.178,2.169,2.169,0,0,1-1.05-.774l-.192-.292A2.788,2.788,0,0,1,751.229,756.563Zm2.786-1.077a3.631,3.631,0,0,1-.692-1.557,4.972,4.972,0,0,1-.128-1.282.44.44,0,0,0-.44.267,1.808,1.808,0,0,0-.041,1.545c0,.014.011.034.017.053a2.051,2.051,0,0,1-.341-.758c-.1-.354-.084-.747-.262-.734s-.605.247-.676,1.386a3.4,3.4,0,0,0,.013.6l1.753,2.666a3.572,3.572,0,0,0,2.13.012s-.166,0-.65-.014a3.03,3.03,0,0,1-1.828-.844,2.276,2.276,0,0,1-.671-1.372,3.52,3.52,0,0,0,.55.58,4.663,4.663,0,0,0,1.1.652,6.083,6.083,0,0,1-.778-.767,2.221,2.221,0,0,1-.319-.9s.037.214.7.612a4.276,4.276,0,0,0,1.212.517,3.551,3.551,0,0,1-.656-.663Zm-2.8-.855a2.643,2.643,0,0,1,.16-.419,5.058,5.058,0,0,0,0,.663l-.16-.244Zm4.657.849a4.779,4.779,0,0,1-.806-1.226l.806,1.226Zm-1.61-2.447a1.472,1.472,0,0,0,.008.489,3.669,3.669,0,0,0,.813,1.511,4.341,4.341,0,0,0,.989.867,7.934,7.934,0,0,1-1.343-1.768,10.136,10.136,0,0,1-.4-.99Zm0,0a.454.454,0,0,1,.015-.074s.015.06.057.183l-.072-.109Zm.8,1.222.806,1.226a2.883,2.883,0,0,0,1.906,1.007,6.69,6.69,0,0,0,.884-.017l-.179-.272a3.22,3.22,0,0,1-1.775-.657,4.8,4.8,0,0,1-1.519-3.838c.009-.146.029-.292.051-.435l-.184-.28a2.723,2.723,0,0,0-.149.365,3.468,3.468,0,0,0-.034,2.423,4.344,4.344,0,0,0,.194.478Zm3.119,1.489a2.915,2.915,0,0,1-1.232-.52,2.249,2.249,0,0,1-1.217-2.275,3.539,3.539,0,0,0,1.783,2.286c.153.056.292.1.423.14l.243.369Zm-1.849-2.04a2.594,2.594,0,0,1-.442-1.442l.2.3c.017.088.036.186.052.291a4.06,4.06,0,0,0,1.426,1.956l.018.028A3.176,3.176,0,0,1,756.336,753.7Zm-1.28-2.716c.269-.573.776-1.5.776-1.5a7.492,7.492,0,0,0-.592,1.778l-.184-.279Zm.838,1.274a2.906,2.906,0,0,1,.061-.685,8.8,8.8,0,0,0,.14.99l-.2-.3Zm1.679,2.552a.522.522,0,0,1,.048.038.1.1,0,0,0-.03-.01l-.018-.028Zm.369.56a2.869,2.869,0,0,0,1.594.108,1.877,1.877,0,0,1-1.351.261l-.243-.369Zm.72,1.1a7.67,7.67,0,0,0,1.766-.383,7.035,7.035,0,0,1-1.945.111Z" transform="translate(-740.342 -725.476)" fill="#f1b289" fill-rule="evenodd"/>
  <path id="Path_127" data-name="Path 127" d="M767.28,844.781s.471.469.894.423.423-.011.284.052.673.308,1.312.138a3.3,3.3,0,0,0,1.072-.518,1.978,1.978,0,0,1-.313.4c-.126.1.99-.1,1.3-.281a3.909,3.909,0,0,1,.488-.222.918.918,0,0,0,.171.5,7.007,7.007,0,0,1-3.481.638A2.94,2.94,0,0,1,767.28,844.781Z" transform="translate(-754.992 -811.573)" fill="#f1b289" fill-rule="evenodd"/>
  <path id="Path_128" data-name="Path 128" d="M831.549,822.9a2.387,2.387,0,0,0-.861.636c-.262.37.333.048,1.282.163s1.042.152,1.249.318.015.5-.119.589-2.3.945-2.3.945a4.338,4.338,0,0,0,2.218-.482c.981-.576,1.388-1.3,1.194-1.64a1.572,1.572,0,0,0-1.052-.645,4.314,4.314,0,0,0-1.237-.035C831.785,822.787,831.549,822.9,831.549,822.9Z" transform="translate(-812.233 -791.643)" fill="#a41e23" fill-rule="evenodd"/>
  <path id="Path_129" data-name="Path 129" d="M764.65,838.657a2.368,2.368,0,0,0,2.086,1.21,13.184,13.184,0,0,0,2.918-.275c-.03.1-2.914,1.015-3.982.52a2.083,2.083,0,0,1-1.3-1.3c-.089-.232-.036-.3-.036-.3Z" transform="translate(-752.315 -805.916)" fill="#fbf49c" fill-rule="evenodd"/>
  <path id="Path_130" data-name="Path 130" d="M751.941,772.815s-1.726,1.856-1.831,3.111a3.892,3.892,0,0,0,.79,2.829,2.512,2.512,0,0,0,.949.649s-.96.079-1.646-1.231-.8-2.128-.465-2.81a7.668,7.668,0,0,1,1.436-2.13C751.828,772.6,751.941,772.815,751.941,772.815Z" transform="translate(-738.98 -746.52)" fill="#fbf49c" fill-rule="evenodd"/>
  <path id="Path_131" data-name="Path 131" d="M790.195,757.26a6.288,6.288,0,0,0-.4,2.93,7.049,7.049,0,0,0,.944,2.222,3.669,3.669,0,0,1-1.271-2.676A5.5,5.5,0,0,1,790.195,757.26Z" transform="translate(-775.038 -732.497)" fill="#fbf49c" fill-rule="evenodd"/>
  <path id="Path_132" data-name="Path 132" d="M752.877,739.068a3.612,3.612,0,0,0,1.935.663c-.808.787-4.431,1.979-5.466-.108-.1.04,1.072,3.522,5.829.271a5.366,5.366,0,0,0,2.2-.45c.623.01,1.909.128,1.918.989-.174,1.405-2.353,1.815-3.559,1.8h-.007a5.767,5.767,0,0,1-3.776.525c-.95-.189-1.915-.56-2.166-1.552.117.011.234.02.356.028a3.672,3.672,0,0,1-1.7-2.2,3.031,3.031,0,0,1-.022-1.4l0,0h0c.31-1.384,1.9-3.417,3.442-3.607.006.531.009,1.064.017,1.6.5-2.888,1.82-4.754,4.867-4.974-2.271-.536-3.992.974-4.889,2.925a5.721,5.721,0,0,0-3.843,3.969l0,0h0a3.947,3.947,0,0,0,1.354,3.667,3.025,3.025,0,0,0,2.5,1.946,6.089,6.089,0,0,0,3.911-.515c1.419.009,3.727-.521,3.92-2.171,0-.007,0-.011,0-.017.007-.847-.821-1.221-1.545-1.35a5.936,5.936,0,0,0,3.613-3.761C759.625,738.234,756.783,740.295,752.877,739.068Z" transform="translate(-737.529 -708.35)" fill="#30111f"/>
  <path id="Path_133" data-name="Path 133" d="M820.965,828.016c-1.873-.408-1.379-1.93.214-2.786C819.4,825.6,818.7,828.2,820.965,828.016Z" transform="translate(-802.213 -793.916)" fill="#30111f"/>
  <path id="Path_134" data-name="Path 134" d="M670.264,709.841c-1.3,1.044-2.632,1.045-4.3.933-2.282-.155-4.575-.786-6.876-.82-4.249-.071-15.492,3.934-16.892,8.436a3.607,3.607,0,0,1-.68-2.209c.167-1.028,1.375-1.515,1.453-2.793.039-.613-.249-.952-.226-1.4a2.525,2.525,0,0,1,1.321-1.66,33.887,33.887,0,0,1,7.869-3.008c2.908-.767,5.763-1.215,7.359-.241a17.4,17.4,0,0,0,6.77,2.523A22.333,22.333,0,0,0,670.264,709.841Z" transform="translate(-641.33 -686.646)" fill="#ec3724" fill-rule="evenodd"/>
  <path id="Path_135" data-name="Path 135" d="M658.911,722.921c-3.995-.506-10.369,1.436-14.173,4.235-1.533,1.125-2.243,2.371-2.09,2.665l.013.02c.059.071.193.054.4-.078.446-.276.936-1.185,1.824-1.84a27.769,27.769,0,0,1,5.764-3.036,32.3,32.3,0,0,1,8.258-1.966Zm-12.789.488a23.066,23.066,0,0,1,7.673-2.308,26.544,26.544,0,0,0-4.76,1.637,21.9,21.9,0,0,0-5.181,2.932S642.791,725.273,646.122,723.408Z" transform="translate(-642.354 -699.822)" fill="#f2653d" fill-rule="evenodd"/>
  <path id="Path_136" data-name="Path 136" d="M682.491,715.142s-3.549-1.276-5.87-.907-7.938,1.825-10.515,3.777-2.68,1.908-2.485,1.163,1.4-1.715,4.361-3.083,9.437-3.172,10.478-2.957a36.89,36.89,0,0,1,4.649,1.854,17,17,0,0,0,4.106.973,9.589,9.589,0,0,0,.964.087,12.74,12.74,0,0,1-3.907-.064A9.907,9.907,0,0,1,682.491,715.142Z" transform="translate(-661.266 -692.609)" fill="#a41e23" fill-rule="evenodd"/>
  <path id="Path_137" data-name="Path 137" d="M643.33,748.938c1.857-4.123,10.1-7.51,16.172-8.479-3.078-.341-13.287,2.24-16.782,7.206A2.887,2.887,0,0,0,643.33,748.938Z" transform="translate(-642.437 -717.288)" fill="#f89a61" fill-rule="evenodd"/>
  <path id="Path_138" data-name="Path 138" d="M656.81,723.284A10.345,10.345,0,0,1,661,720.168a34.944,34.944,0,0,1,6.479-2.4l1.261-.248a21.325,21.325,0,0,0-7.457,2.027c-3.494,1.786-4.241,2.312-4.435,2.731A1.7,1.7,0,0,0,656.81,723.284Z" transform="translate(-655.113 -696.587)" fill="#f89a61" fill-rule="evenodd"/>
  <path id="Path_139" data-name="Path 139" d="M668.849,738.206c-2.336-.2-3.966-.595-5.358-.784a19.819,19.819,0,0,0-12.081,1.528c-2.451,1.118-6.947,2.988-8.084,5.306a1.286,1.286,0,0,0,.377,1.555,21.667,21.667,0,0,1,11.382-7.277c7.064-1.583,9.834-.428,11.694-.349A12.842,12.842,0,0,0,668.849,738.206Z" transform="translate(-642.864 -714.287)" fill="#f89a61" fill-rule="evenodd"/>
  <path id="Path_140" data-name="Path 140" d="M669.142,709.811c-2.093,1.086-5.524.848-7.733.388a19.293,19.293,0,0,0-8.773.4c-4.775,1.35-10.651,4.2-12.031,7.349a2.156,2.156,0,0,1,.194-2.808,2.735,2.735,0,0,0,.664-2.826c-.818-2.747,13.753-6.622,16.228-5.1,3.448,2.157,7.714,3.774,12.147,2.417a18.18,18.18,0,0,1-11.986-2.7c-2.568-1.572-17.824,2.015-16.782,5.509a2.346,2.346,0,0,1-.589,2.445c-1.144,1.4-.753,2.576.241,4,1.526-4.318,8.265-6.755,12.029-7.883a18.785,18.785,0,0,1,8.594-.386C664.246,710.95,666.936,711.442,669.142,709.811Z" transform="translate(-639.784 -686.669)" fill="#30111f"/>
  <path id="Path_141" data-name="Path 141" d="M875.075,624.345c.493,1.245.945,1.2.691.714a6.053,6.053,0,0,1-.143-4.319A3.372,3.372,0,0,0,875.075,624.345Z" transform="translate(-852.138 -609.135)" fill="#f1b289" fill-rule="evenodd"/>
  <path id="Path_142" data-name="Path 142" d="M861.567,638.031s.813,1.413.809.84a9.145,9.145,0,0,1,.295-1.682,6.169,6.169,0,0,0,.342,2.385c.414.9.665,1.365.24.842s-.8-.821-.742-.686-.584-.163-.781-.807A2.409,2.409,0,0,1,861.567,638.031Z" transform="translate(-840.189 -623.999)" fill="#d96e53" fill-rule="evenodd"/>
  <path id="Path_143" data-name="Path 143" d="M833.73,647.66a3.55,3.55,0,0,1,2.436.938C835.522,647.476,833.782,646.969,833.73,647.66Z" transform="translate(-815.038 -633.176)" fill="#d96e53" fill-rule="evenodd"/>
  <path id="Path_144" data-name="Path 144" d="M833.444,638.662c-.662.1-1.709.752-1.656,1.478C830.949,639.518,832.67,638.4,833.444,638.662Z" transform="translate(-813.079 -625.295)" fill="#1a121e"/>
  <path id="Path_145" data-name="Path 145" d="M727.969,652.492c.737-.648,1.313-.462,1.365-.921.068-.586-1-1.7-1.7-2.07a10.256,10.256,0,0,0-2.733-.4c-3.951-.076-6.12,4.061-9.967,3.789-.081.664.741,1.763,2.409,2.055,1.884,1.371,4.694,1.488,8.335-.523A8.872,8.872,0,0,0,727.969,652.492Z" transform="translate(-707.682 -634.761)" fill="#e99868" fill-rule="evenodd"/>
  <path id="Path_146" data-name="Path 146" d="M722.253,666.934c-.416-.058-.794-.262-.785-.211l.021.033,0,0a1.82,1.82,0,0,0,1.231.58,6.479,6.479,0,0,0,2.837-1.07,15.072,15.072,0,0,1,4.575-1.759,3.245,3.245,0,0,1,1.007.134l-.572-.868c-1.639.009-3.434,1.276-5.393,2.256-2.132,1.065-2.461.962-2.925.9Zm10-.6a.286.286,0,0,1-.06.034c-.455.218-.967.4-1.1.288s.2-.39.2-.39-.036.088.03.125.127.044.426-.06a3.659,3.659,0,0,0,.393-.172l.115.174Zm-2.224-.554c-.3-.148-.17-.231-.083-.277a1.792,1.792,0,0,0,.258-.181,1.877,1.877,0,0,0,1.259.288c.1-.012.192-.027.286-.042l.107.162A4.136,4.136,0,0,1,730.028,665.779Zm.543-2,.572.868a7.876,7.876,0,0,1,1.26.492c.28.135,1.5-.285,1.111-.335s-1.377-.175-.982-.2,1.451-.181,1.095-.209A19.939,19.939,0,0,0,731,663.8a2.572,2.572,0,0,0-.431-.025Zm1.178,1.79c.622-.107,1.2-.272,1.489-.334a5.1,5.1,0,0,1,.595-.095,8.947,8.947,0,0,1-1.729.545c-.084.014-.165.033-.248.047l-.107-.163Zm.5.767a3.741,3.741,0,0,0,.876-.762l-.325.214a6,6,0,0,1-.666.374Z" transform="translate(-713.595 -648.023)" fill="#d96e53" fill-rule="evenodd"/>
  <path id="Path_147" data-name="Path 147" d="M732.828,652.668l-.2-.3c-.128-.009-.275-.029-.441-.053-.694-.1-.081.089.639.354Zm.526.8c-.082.025-.172.056-.277.083-.7.186-.853.241-.354-.087a2.342,2.342,0,0,1,.473-.235l.157.239Zm-11.243-.273c1.335-.418,4.337-2.713,6.115-2.935s3.377.61,2.739.541-2.269-.153-1.791-.009a10.645,10.645,0,0,1,1.185.476,11.624,11.624,0,0,0-2.245-.169c-1.354.018-4.2,2.237-6.024,2.915s-2.662,0-2.662,0S720.778,653.616,722.111,653.194Zm9.813-2.182c1.111.664,2.371,1.51.706,1.355l.2.3c.12.049.248.094.367.143.842.335,1.15.307,1,.172-.687-.629.786-.238.789-.374l-.024-.037a.377.377,0,0,0-.067-.049,10.085,10.085,0,0,0-1.375-.933c-.882-.483-2.063-.857-1.6-.577Zm1.892,2.133c.112.037,0,.169-.463.322l-.157-.239A1.273,1.273,0,0,1,733.817,653.145Z" transform="translate(-711.754 -635.773)" fill="#f1b289" fill-rule="evenodd"/>
  <path id="Path_148" data-name="Path 148" d="M749.74,650.393a7.221,7.221,0,0,0-3.208-.687,11.176,11.176,0,0,0-4.768,1.572,21.442,21.442,0,0,1-3.374,1.516s1.965-1.095,3.442-1.979a11.764,11.764,0,0,1,4.9-1.6,5.366,5.366,0,0,1,3.286,1.071,3.878,3.878,0,0,1,.9.88Z" transform="translate(-728.886 -634.859)" fill="#f7cc82" fill-rule="evenodd"/>
  <path id="Path_149" data-name="Path 149" d="M711.36,651.7c.154.986.306,1.631,1.962,2.25a23.477,23.477,0,0,0,2.549,1.055,8.6,8.6,0,0,0,6.5-1.264,11.874,11.874,0,0,0,1.948-1.555,12.409,12.409,0,0,1,1.218-1.092,4.612,4.612,0,0,0-1.448.8,14.378,14.378,0,0,1-1.746,1.393,7.752,7.752,0,0,1-6.375,1.321,25.538,25.538,0,0,1-2.479-1.021,2.26,2.26,0,0,1-1.559-1.416.2.2,0,0,0-.01-.04c3.148.093,5.339-2.738,8.278-3.492a8.2,8.2,0,0,1,2.258-.253,13.822,13.822,0,0,1,2.338.276,5.6,5.6,0,0,0-2-.589,7.2,7.2,0,0,0-2.532.154C717.115,648.952,714.819,651.95,711.36,651.7Z" transform="translate(-704.462 -633.786)" fill="#30111f"/>
  <path id="Path_150" data-name="Path 150" d="M1088.2,595.113c-.679.336-1.474,1.649-.109,1.99-1.022-.845-.051-1.774.346-1.966l.582.018c-2.8-1.024-.271-3.816,1.077-4.365C1088.564,590.819,1086.208,593.857,1088.2,595.113Z" transform="translate(-1044.205 -582.071)" fill="#30111f"/>
  <path id="Path_151" data-name="Path 151" d="M951.04,659.677c.559-.839,1.913-1.077,3.1-1.355a8.727,8.727,0,0,0,1.478-.572c-.112.219.049.729-.458,1.249A4.361,4.361,0,0,1,953,660.032c-.4.009-.473-.1-.473-.1a1.387,1.387,0,0,1-1.031.359A.725.725,0,0,1,951.04,659.677Z" transform="translate(-921.041 -642.578)" fill="#cbd9d3" fill-rule="evenodd"/>
  <path id="Path_152" data-name="Path 152" d="M995.1,667.645l.209-.132c-.516-.236-.678-1.111-.577-1.6l-.177.3A1.447,1.447,0,0,0,995.1,667.645Z" transform="translate(-960.341 -649.951)" fill="#30111f"/>
  <path id="Path_153" data-name="Path 153" d="M954.23,671.186a.409.409,0,0,0,.332.16,1.192,1.192,0,0,0,.569-.293s-.1-.5-.4-.5-.5.63-.5.63Zm2.529-.442s-.443.484-.718.472a1.282,1.282,0,0,1-.591-.262s-.146-.514.033-.7a.714.714,0,0,1,.937-.087.915.915,0,0,1,.213.209l.032.049A.617.617,0,0,1,956.759,670.744Z" transform="translate(-923.924 -653.673)" fill="#f5f6ce" fill-rule="evenodd"/>
  <path id="Path_154" data-name="Path 154" d="M976.395,659.859a3.444,3.444,0,0,0,1.175-.679,1.447,1.447,0,0,0,.227-.9l.324-.109a1.644,1.644,0,0,1-.478,1.28,6.876,6.876,0,0,1-1.479.845c-.081.018-.2-.221-.138-.316S976.395,659.859,976.395,659.859Z" transform="translate(-943.602 -642.957)" fill="#f5f6ce" fill-rule="evenodd"/>
  <path id="Path_155" data-name="Path 155" d="M954.115,658.245h0c-.188.315-2.066,1.33-2.478.944l-.1-.585-.059.573h0c-.391.385-1.221.565-1.313-.2l-.205.024c.107.923,1.073.817,1.6.377.751.355,2.142-.42,2.7-.99h0l0,0c.458-.47.278-.9.53-1.395C954.285,657.046,954.53,657.826,954.115,658.245Z" transform="translate(-920.065 -641.891)" fill="#686c85"/>
  <path id="Path_156" data-name="Path 156" d="M957.45,686.6a2.719,2.719,0,0,0,1.769.232,4.453,4.453,0,0,0,2.205-1.579,17.19,17.19,0,0,0-2.424.345A3.245,3.245,0,0,0,957.45,686.6Z" transform="translate(-926.833 -667.427)" fill="#c1245e" fill-rule="evenodd"/>
  <path id="Path_157" data-name="Path 157" d="M960.663,683.93a10.753,10.753,0,0,1-1.214.152c-.934.073-2.388.39-2.93,1.265l.145.132c.51-.824,1.929-1.124,2.8-1.189a5.536,5.536,0,0,0,.92-.076Z" transform="translate(-925.993 -666.235)" fill="#30111f"/>
  <path id="Path_158" data-name="Path 158" d="M954.466,621.389a4.215,4.215,0,0,0-.994.531,8.472,8.472,0,0,0-1.008.809,3.206,3.206,0,0,1-2.278,1.115h0a2.193,2.193,0,0,1-1.548-.586,1.62,1.62,0,0,1-.529-1.123h0a1.515,1.515,0,0,1,.45-1.075,4.988,4.988,0,0,1,2.322-.969,7.725,7.725,0,0,0,3.077-1.385c.849-.715,1.816-2.172,1.329-3.327.857,1.267-.3,2.811-1.172,3.486a9.026,9.026,0,0,1-3.186,1.422,4.953,4.953,0,0,0-2.221.919,1.293,1.293,0,0,0-.393.921h0a1.442,1.442,0,0,0,.466.984,1.973,1.973,0,0,0,1.4.524h0a3.009,3.009,0,0,0,2.141-1.059,8.141,8.141,0,0,1,1.086-.929A1.639,1.639,0,0,1,954.466,621.389Z" transform="translate(-918.392 -604.291)" fill="#30111f"/>
  <path id="Path_159" data-name="Path 159" d="M999.736,612.709c-.433.332-.712-.694-.8-.979,0,0,0,.014.112.223s.428.544.577.33c.135-.193.1-.5.152-.449l.013.02a.124.124,0,0,1,.011.016c.076.171.219.618-.065.839Zm-1.536.237s.008.013.145.2.513.488.651.281.04-.549.144-.391.3.567.021.783c-.225.171-.441,0-.613-.242l-.094-.142A5.425,5.425,0,0,1,998.2,612.946Z" transform="translate(-963.656 -600.993)" fill="#f5a3c7" fill-rule="evenodd"/>
  <g id="Group_13" data-name="Group 13" transform="translate(35.288 10.29)">
    <path id="Path_160" data-name="Path 160" d="M1007.226,608.941c.188-.129.146-.555-.026-.826-.128-.229-.306-.4-.492-.315s-.166.376-.082.618C1006.7,608.624,1006.924,609.145,1007.226,608.941Z" transform="translate(-1006.499 -607.71)" fill="#a61d43" fill-rule="evenodd"/>
    <path id="Path_161" data-name="Path 161" d="M1005.962,607.73a.946.946,0,0,0,.327.541c-.117-.249-.318-.616-.221-.9.091-.252.3-.127.424.052a1.33,1.33,0,0,1,.2.46c.037.25-.065.59-.332.44a.247.247,0,0,0,.4.01.672.672,0,0,0,.01-.692C1006.47,606.937,1005.722,606.853,1005.962,607.73Z" transform="translate(-1005.915 -607.092)" fill="#30111f"/>
  </g>
  <path id="Path_162" data-name="Path 162" d="M736.14,674.7a6.988,6.988,0,0,0,2.678-1.064,16.747,16.747,0,0,1,3.374-1.481,5.693,5.693,0,0,1,1.951-.207,6.066,6.066,0,0,1,1.061.349.211.211,0,0,1,.031.02c-.573.313-2.549.322-2.025.757s2.421-.058,2.421-.058-1.911.948-1.352,1.064,1.434-.577,1.434-.577c-.949,1.4-3.653,2.507-5.776,2.363a2.753,2.753,0,0,1-1.3-.2C738.04,675.454,737.311,675.1,736.14,674.7Z" transform="translate(-726.853 -655.393)" fill="#ee6c64" fill-rule="evenodd"/>
  <path id="Path_163" data-name="Path 163" d="M736.14,674.7a6.988,6.988,0,0,0,2.678-1.064,16.747,16.747,0,0,1,3.374-1.481,5.693,5.693,0,0,1,1.951-.207,6.066,6.066,0,0,1,1.061.349.211.211,0,0,1,.031.02c-.573.313-2.549.322-2.025.757s2.421-.058,2.421-.058-1.911.948-1.352,1.064,1.434-.577,1.434-.577a4.011,4.011,0,0,1-1.034,1,.369.369,0,0,0-.355-.168c-.365.09-.271-.182-.6-.089s-1.845.527-1.254.2.923-.7.421-.818-1.2.04-3.057.779a7.008,7.008,0,0,1-3.012.539C736.611,674.864,736.386,674.786,736.14,674.7Z" transform="translate(-726.853 -655.393)" fill="#d86161" fill-rule="evenodd"/>
  <path id="Path_164" data-name="Path 164" d="M750.6,701.415a8.745,8.745,0,0,0,2.936.133,27.192,27.192,0,0,0,3.529-.566c.4-.08-.536.643-1.922.985a6.874,6.874,0,0,1-3.6-.078A4.085,4.085,0,0,1,750.6,701.415Z" transform="translate(-739.92 -681.638)" fill="#f498c1" fill-rule="evenodd"/>
  <path id="Path_165" data-name="Path 165" d="M744.3,670.807a5.736,5.736,0,0,1-.889.16c-1.316.191-1.454.927-.04.893a6.814,6.814,0,0,0,.889-.091c-1.26.735-.851,1.252.221.7a7.931,7.931,0,0,1-6.29,1.759c2.375.9,5.8-.429,7.205-2.507-1.12.87-2.912,1.159-.424-.105l.477-.255a11.779,11.779,0,0,1-2.227.291c-1.1-.017-.628-.372.178-.49a8.147,8.147,0,0,1,1.561-.225,4.132,4.132,0,0,0-1.825-.653c-1.9-.076-4.274,1.323-5.606,2.065a6.666,6.666,0,0,1-2.171.853c.485.233,1.349-.132,2.219-.6C739.269,671.677,742.3,669.717,744.3,670.807Z" transform="translate(-726.148 -653.899)" fill="#30111f"/>
  <path id="Path_166" data-name="Path 166" d="M952.527,731.018a2.325,2.325,0,0,1-1.663,1.785c-.562.091-1.448-1.211-.987-1.88a2.127,2.127,0,0,1,1.163-.573C951.765,730.134,952.927,729.5,952.527,731.018Z" transform="translate(-919.875 -707.896)" fill="#30111f" stroke="#22160f" stroke-miterlimit="10" stroke-width="0.03" fill-rule="evenodd"/>
  <path id="Path_167" data-name="Path 167" d="M955.483,732.96a1.86,1.86,0,0,1-1.314,1.388c-.44.074-1.115-.918-.748-1.438a1.687,1.687,0,0,1,.907-.451C954.9,732.281,955.806,731.789,955.483,732.96Z" transform="translate(-923.098 -709.856)" fill="#a41e23" fill-rule="evenodd"/>
  <path id="Path_168" data-name="Path 168" d="M961.776,732.978a1.86,1.86,0,0,1-1.314,1.388.394.394,0,0,1-.182-.02,2.121,2.121,0,0,0,.826-.945,1.292,1.292,0,0,0,.125-1.117v-.011C961.654,732.158,962,732.189,961.776,732.978Z" transform="translate(-929.391 -709.874)" fill="#ec3724" fill-rule="evenodd"/>
  <g id="Group_14" data-name="Group 14" transform="translate(27.364 22.877)">
    <path id="Path_169" data-name="Path 169" d="M929.308,739.538c-1.263,2.516-2.4,5.136-2.521,4.909-.681-1.3-.8-4.728.584-5.936a2.548,2.548,0,0,1,1.9-.792C929.738,737.831,929.89,738.382,929.308,739.538Z" transform="translate(-926.043 -737.696)" fill="#ec3724" fill-rule="evenodd"/>
    <path id="Path_170" data-name="Path 170" d="M933.992,737.986a12.115,12.115,0,0,0-.755,2.141c-.394,1.452-1.238,4.04-1.342,4.173a31.4,31.4,0,0,0,2.64-4.41,2.635,2.635,0,0,0,.1-1.965c-.084-.1-.44-.06-.516-.033A.245.245,0,0,0,933.992,737.986Z" transform="translate(-931.102 -737.845)" fill="#a41e23" fill-rule="evenodd"/>
    <path id="Path_171" data-name="Path 171" d="M927.931,748.66c.445-1.409,1.387-2.028,1.433-1.78a12.827,12.827,0,0,0-.879,2.694,26.711,26.711,0,0,0-.371,3.087C928.007,751.443,927.482,750.072,927.931,748.66Z" transform="translate(-927.362 -745.947)" fill="#f2653d" fill-rule="evenodd"/>
    <path id="Path_172" data-name="Path 172" d="M934.43,737.934a6.951,6.951,0,0,1-.861,2.537,18.721,18.721,0,0,0-1.584,3.292,2.741,2.741,0,0,0-.146.8,22.836,22.836,0,0,1,1.274-2.367c.641-1,1.546-2.307,1.524-3.048C934.629,738.7,934.825,737.889,934.43,737.934Z" transform="translate(-931.053 -737.909)" fill="#feca7f" fill-rule="evenodd"/>
    <path id="Path_173" data-name="Path 173" d="M927.264,737.808c.27,1.665-2.28,4.558-2.733,6.274a6.23,6.23,0,0,1-.027-4.372,3.237,3.237,0,0,1,2.563-2c-4.035-.31-3.817,5.167-2.569,7.2C925.207,742.741,928.31,739.549,927.264,737.808Z" transform="translate(-923.697 -737.698)" fill="#30111f"/>
  </g>
  <g id="Group_15" data-name="Group 15" transform="translate(31.439 8.819)">
    <path id="Path_174" data-name="Path 174" d="M967.385,594.178c-.309-.012-.556-.314-.7-.656a1.492,1.492,0,0,1-.132-.634c.015-.295.141-.547.459-.522a.95.95,0,0,1,.7.653,1.266,1.266,0,0,1,.12.764A.474.474,0,0,1,967.385,594.178Z" transform="translate(-966.498 -592.313)" fill="#be2d29" fill-rule="evenodd"/>
    <path id="Path_175" data-name="Path 175" d="M966.865,593.751a.445.445,0,0,0,.346-.146l-.059-.09a.356.356,0,0,1-.283.134h0a.458.458,0,0,1-.112-.019.357.357,0,0,1-.109-.05,1.153,1.153,0,0,1-.433-.552h0c-.014-.031-.025-.065-.038-.092s-.022-.061-.031-.091a1.291,1.291,0,0,1-.062-.43h0l0-.031h0a.608.608,0,0,1,.106-.326l-.059-.09c-.006.01-.014.014-.019.024a.708.708,0,0,0-.132.384h0l0,.031h0a1.4,1.4,0,0,0,.068.466.554.554,0,0,0,.033.094.8.8,0,0,0,.036.1h0a1.266,1.266,0,0,0,.478.6.473.473,0,0,0,.125.058.643.643,0,0,0,.144.023Zm-.671-1.692,0,0a.31.31,0,0,1,.28-.114h.017a.673.673,0,0,1,.115.023.526.526,0,0,1,.109.05,1.167,1.167,0,0,1,.428.545,2.191,2.191,0,0,1,.115.36.852.852,0,0,1,0,.372h0a.729.729,0,0,1-.023.079h0a.3.3,0,0,1-.036.069h0a.6.6,0,0,1-.05.074l.059.09a.588.588,0,0,0,.079-.11h0a.441.441,0,0,0,.042-.086h0a.5.5,0,0,0,.029-.089l0,0h0a.918.918,0,0,0-.006-.415,2.033,2.033,0,0,0-.118-.382,1.233,1.233,0,0,0-.473-.6.571.571,0,0,0-.125-.058.5.5,0,0,0-.142-.029h-.017a.416.416,0,0,0-.35.131Z" transform="translate(-965.98 -591.836)" fill="#30111f"/>
    <path id="Path_176" data-name="Path 176" d="M970.552,601.415a.61.61,0,0,1-.462-.312.307.307,0,0,1,.075-.177.176.176,0,0,1,.078-.039.381.381,0,0,0,.11.1.182.182,0,0,0,.306-.1.106.106,0,0,0,.069-.063c.027-.065.081-.17.137-.287a1.047,1.047,0,0,1,.066.55A.408.408,0,0,1,970.552,601.415Z" transform="translate(-969.694 -599.692)" fill="#eb5633" fill-rule="evenodd"/>
    <path id="Path_177" data-name="Path 177" d="M971.166,605.544a.578.578,0,0,1-.4-.222c.037-.112.052-.2.179-.223.007,0,.01.006.019.011a.225.225,0,0,0,.184.041c.195.279.338.161.391.056A.406.406,0,0,1,971.166,605.544Z" transform="translate(-970.308 -603.822)" fill="#f5be17" fill-rule="evenodd"/>
    <path id="Path_178" data-name="Path 178" d="M971.075,598.685c-.026.11-.126.188-.272.092a.413.413,0,0,1-.173-.211c-.067-.154-.081-.441.131-.429S971.124,598.5,971.075,598.685Z" transform="translate(-970.142 -597.529)" fill="#2f1111" fill-rule="evenodd"/>
    <path id="Path_179" data-name="Path 179" d="M970.988,592.907c-.022.09-.1.154-.223.077a.363.363,0,0,1-.143-.173c-.055-.127-.065-.364.105-.354S971.025,592.76,970.988,592.907Z" transform="translate(-970.143 -592.397)" fill="#e1e6c6" fill-rule="evenodd"/>
    <path id="Path_180" data-name="Path 180" d="M972.109,604.592c-.013.05-.056.083-.12.038a.181.181,0,0,1-.079-.094c-.028-.068-.034-.193.057-.188S972.126,604.511,972.109,604.592Z" transform="translate(-971.322 -603.143)" fill="#e1e6c6" fill-rule="evenodd"/>
  </g>
  <g id="Group_16" data-name="Group 16" transform="translate(28.259 11.56)">
    <path id="Path_181" data-name="Path 181" d="M934.065,622.355a1.076,1.076,0,0,1-.906-.706,1.619,1.619,0,0,1-.172-.73c.022-.346.183-.65.6-.649a1.089,1.089,0,0,1,.9.7,1.338,1.338,0,0,1,.155.881A.639.639,0,0,1,934.065,622.355Z" transform="translate(-932.986 -620.27)" fill="#be2d29" fill-rule="evenodd"/>
    <path id="Path_182" data-name="Path 182" d="M938.159,630.3a.741.741,0,0,1-.6-.327.415.415,0,0,1,.1-.211.222.222,0,0,1,.1-.049.533.533,0,0,0,.137.1.255.255,0,0,0,.4-.146.175.175,0,0,0,.094-.079c.033-.074.1-.2.17-.344a1.025,1.025,0,0,1,.087.635A.546.546,0,0,1,938.159,630.3Z" transform="translate(-937.119 -628.384)" fill="#eb5633" fill-rule="evenodd"/>
    <path id="Path_183" data-name="Path 183" d="M939.008,635.49a.668.668,0,0,1-.508-.225c.039-.136.067-.242.226-.276.01.006.016.007.021.015a.314.314,0,0,0,.242.033c.252.311.437.16.505.034A.544.544,0,0,1,939.008,635.49Z" transform="translate(-937.969 -633.571)" fill="#f5be17" fill-rule="evenodd"/>
    <path id="Path_184" data-name="Path 184" d="M938.841,627.547a.218.218,0,0,1-.348.124.5.5,0,0,1-.229-.233c-.084-.172-.1-.507.172-.508S938.9,627.327,938.841,627.547Z" transform="translate(-937.707 -626.288)" fill="#2f1111" fill-rule="evenodd"/>
    <path id="Path_185" data-name="Path 185" d="M938.731,620.837a.18.18,0,0,1-.287.1.4.4,0,0,1-.189-.19c-.065-.144-.075-.416.143-.419S938.782,620.658,938.731,620.837Z" transform="translate(-937.71 -620.324)" fill="#e1e6c6" fill-rule="evenodd"/>
    <path id="Path_186" data-name="Path 186" d="M940.212,634.412c-.016.057-.069.1-.155.056a.244.244,0,0,1-.1-.1c-.038-.074-.041-.223.074-.224S940.239,634.313,940.212,634.412Z" transform="translate(-939.266 -632.803)" fill="#e1e6c6" fill-rule="evenodd"/>
  </g>
  <path id="Path_187" data-name="Path 187" d="M955.19,559.8c.212.279.472.7.537.524a10.079,10.079,0,0,1,1.7-2.778c1.092-1.142,1.281-.43.878.115-.014.014-.468.331-.462.35a4.1,4.1,0,0,0-.354.372,7.288,7.288,0,0,0-.889,1.264c-.4.752-.553,1.439-.741,1.533C955.694,561.268,955.19,559.8,955.19,559.8Z" transform="translate(-924.791 -551.484)" fill="#f2653d" fill-rule="evenodd"/>
  <path id="Path_188" data-name="Path 188" d="M958.08,566.04l-.006.01a9.337,9.337,0,0,0-.419.927,1.587,1.587,0,0,1-.276.553c-.067.032-.449-.815-.449-.815,0,.25.239,1.151.545,1,.137-.067.233-.316.37-.656a9.229,9.229,0,0,1,.409-.908l.01-.013a7.548,7.548,0,0,1,1.677-2.074A3.715,3.715,0,0,0,958.08,566.04Z" transform="translate(-926.364 -557.918)" fill="#30111f"/>
  <path id="Path_189" data-name="Path 189" d="M900.6,593.71s.7.91.57,1.282-1.733.274-3.19,1.046a3.708,3.708,0,0,0-2.2,2.678c-.207,1.293-1.068-.262-.038-1.684a4.882,4.882,0,0,1,1.763-1.589,20.941,20.941,0,0,1,2.984-.794C901.039,594.505,900.6,593.71,900.6,593.71Z" transform="translate(-870.629 -584.71)" fill="#f2653d" fill-rule="evenodd"/>
  <path id="Path_190" data-name="Path 190" d="M948.7,589.9a5.854,5.854,0,0,1,.391,1.213.594.594,0,0,1-.306.585s.654.092.714-.08a1.821,1.821,0,0,0-.332-1.061A3.225,3.225,0,0,0,948.7,589.9Z" transform="translate(-918.927 -581.267)" fill="#feca7f" fill-rule="evenodd"/>
  <path id="Path_191" data-name="Path 191" d="M904.979,590.47s.7,1.239.594,1.557a8.352,8.352,0,0,1-1.427.41c-1.6.445-4.492,1.629-3.822,3.805.065-2.217,1.947-3.007,3.952-3.547.732-.2,1.421-.412,1.491-.6C905.935,591.615,905.283,590.852,904.979,590.47Z" transform="translate(-875.123 -581.782)" fill="#30111f"/>
  <g id="Group_17" data-name="Group 17" transform="translate(34.44 11.227)">
    <path id="Path_192" data-name="Path 192" d="M998.674,618.725c.194-.156.117-.618-.1-.893-.153-.242-.359-.414-.554-.3s-.146.422-.036.68C998.076,618.426,998.367,618.974,998.674,618.725Z" transform="translate(-997.811 -617.429)" fill="#a61d43" fill-rule="evenodd"/>
    <path id="Path_193" data-name="Path 193" d="M997.192,617.526a1.043,1.043,0,0,0,.4.559c-.143-.261-.393-.642-.31-.958.076-.282.318-.162.468.023a1.427,1.427,0,0,1,.255.477c.059.276-.026.651-.323.509a.268.268,0,0,0,.433-.023.722.722,0,0,0-.045-.749C997.679,616.624,996.862,616.592,997.192,617.526Z" transform="translate(-997.115 -616.816)" fill="#30111f"/>
  </g>
  <path id="Path_194" data-name="Path 194" d="M906.51,704.569c1.06,1.524,4.131-.56,3.668-1.459C909.844,704.476,907.665,705.194,906.51,704.569Z" transform="translate(-880.803 -683.566)" fill="#1a121e"/>
  <path id="Path_195" data-name="Path 195" d="M893.433,678.3c1.23.075,2.325.529,1.552,1.078s-2.283,1-3.23.322C890.6,678.868,892.851,678.26,893.433,678.3Z" transform="translate(-867.177 -661.142)" fill="#f1b289" fill-rule="evenodd"/>
  <path id="Path_196" data-name="Path 196" d="M875.036,679.465c-.976-1.573,2.8-3.333,3.436-2.545C877.086,676.686,874.927,678.159,875.036,679.465Z" transform="translate(-852.217 -659.724)" fill="#1a121e"/>
  <path id="Path_197" data-name="Path 197" d="M970.387,691.655c.954-.122,1.954-.768.185-.3C969.738,691.571,969.569,691.757,970.387,691.655Z" transform="translate(-938.041 -672.792)" fill="#feca7f" fill-rule="evenodd"/>
  <path id="Path_198" data-name="Path 198" d="M793.773,896.64a3.639,3.639,0,0,1-3.823.887,2.719,2.719,0,0,0,3.688-.466Z" transform="translate(-775.477 -858.444)" fill="#30111f"/>
  <path id="Path_199" data-name="Path 199" d="M894.23,706.939a4.08,4.08,0,0,0,5.318-2.609A5.138,5.138,0,0,1,894.23,706.939Z" transform="translate(-869.706 -684.669)" fill="#30111f" fill-rule="evenodd"/>
  <path id="Path_200" data-name="Path 200" d="M881.65,873.3c.8-.606,2.968-1.871,3.654-.845C883.945,871.981,882.1,873.257,881.65,873.3Z" transform="translate(-858.339 -836.238)" fill="#30111f" fill-rule="evenodd"/>
  <path id="Path_201" data-name="Path 201" d="M706.753,911.8a2.681,2.681,0,0,0,.613,3.672A2.236,2.236,0,0,1,706.753,911.8Z" transform="translate(-699.64 -872.143)" fill="#30111f"/>
  <path id="Path_202" data-name="Path 202" d="M700.45,931.45a2.118,2.118,0,0,0,1.831,2.289A1.763,1.763,0,0,1,700.45,931.45Z" transform="translate(-694.527 -889.899)" fill="#30111f"/>
  <path id="Path_203" data-name="Path 203" d="M956.564,694.312c.9-.59.889-.6.889-.6a3.905,3.905,0,0,1-1.969,1.266,2.223,2.223,0,0,1-1.8-.46c-.2-.174.006-.132.408.045A2.5,2.5,0,0,0,956.564,694.312Z" transform="translate(-923.36 -675.072)" fill="#f1b289" fill-rule="evenodd"/>
  <path id="Path_204" data-name="Path 204" d="M832.332,658.48c-.351-.048,2.908,1.593,2.574,1.1A3.833,3.833,0,0,0,832.332,658.48Z" transform="translate(-813.75 -643.237)" fill="#d96e53" fill-rule="evenodd"/>
  <path id="Path_205" data-name="Path 205" d="M934.04,571.522c.053-.255-.308-.594-.974-.818s-.677-.1-.208.277S933.988,571.777,934.04,571.522Z" transform="translate(-904.317 -563.822)" fill="#f7cc82" fill-rule="evenodd"/>
  <path id="Path_206" data-name="Path 206" d="M948.326,565c.3-.52-1.319-.847-.766-.3C947.813,564.951,948.2,565.21,948.326,565Z" transform="translate(-917.791 -558.238)" fill="#f7cc82" fill-rule="evenodd"/>
  <path id="Path_207" data-name="Path 207" d="M912.781,692.53a2.308,2.308,0,0,1-1.286.5c-.74.051.359.635,1.253.013S912.936,692.429,912.781,692.53Z" transform="translate(-885.088 -673.961)" fill="#f1b289" fill-rule="evenodd"/>
  <path id="Path_208" data-name="Path 208" d="M953.837,706.79a3.8,3.8,0,0,0,1.918-.389c.692-.362-.608-.315-1.158-.2S953.667,706.717,953.837,706.79Z" transform="translate(-923.532 -686.282)" fill="#f1b289" fill-rule="evenodd"/>
  <path id="Path_209" data-name="Path 209" d="M840.483,596.846a1.28,1.28,0,0,1,.044-.366l.7,1.063a4.147,4.147,0,0,1-.165.562c-.344.919-.579-1.259-.579-1.259Zm-2.222-.2a4.059,4.059,0,0,1,.525-2.816l1.3,1.984a3.448,3.448,0,0,1-.379.528c-.579.666-.98.808-1.227.645l-.225-.341Zm1.973-.617a8.469,8.469,0,0,1-.573.906,3.9,3.9,0,0,0,.7-.711Zm.993,1.509-.7-1.063a.542.542,0,0,1,.429-.444c.411-.073.448.717.271,1.507Zm-2.439-3.709a1.294,1.294,0,0,1,.9-.687.6.6,0,0,1,.519.276l.072.11a2.385,2.385,0,0,1-.188,2.286l-1.306-1.984Zm1.574,2.394a2.262,2.262,0,0,0,.281-.465,1.892,1.892,0,0,0,.164-1.165,3.034,3.034,0,0,1-.384,1.078c-.062.127-.128.247-.19.358Z" transform="translate(-819.058 -584.2)" fill="#f1b289" fill-rule="evenodd"/>
  <path id="Path_210" data-name="Path 210" d="M826.387,836.756c.11.247-1.388.657-2.6.947a.749.749,0,0,1-.124-1.064A6.532,6.532,0,0,1,826.387,836.756Z" transform="translate(-805.792 -804.124)" fill="#f2653d" fill-rule="evenodd"/>
  <path id="Path_211" data-name="Path 211" d="M980.96,575.084a1.281,1.281,0,0,0,.344.594,1.393,1.393,0,0,1,.49.788,2.954,2.954,0,0,1,.06.629s.194-.785-.058-1.078-.513-.488-.589-.781.041-.725-.062-.7S980.962,575.042,980.96,575.084Z" transform="translate(-948.078 -567.381)" fill="#f2653d" fill-rule="evenodd"/>
  <path id="Path_212" data-name="Path 212" d="M918.463,655.731s-.336-.087-.443.077a.332.332,0,0,0-.063.285l.059.09c.135.126.478.215,1.267.132,1.573-.163,1.843-.84.8-.62a3.54,3.54,0,0,1-1.62.036Zm3.022-.488c-.1.144-.474.464-.564.3-.13-.234.469-.373.558-.327l.011.016S921.489,655.24,921.485,655.243Z" transform="translate(-891.135 -640.281)" fill="#f2653d" fill-rule="evenodd"/>
  <path id="Path_213" data-name="Path 213" d="M796.842,764.45a3.944,3.944,0,0,0-.044,2.407,4.914,4.914,0,0,0,1.022,1.677,3.788,3.788,0,0,1-1.287-1.7A4.261,4.261,0,0,1,796.842,764.45Z" transform="translate(-781.351 -738.994)" fill="#fbf49c" fill-rule="evenodd"/>
  <path id="Path_214" data-name="Path 214" d="M904.335,679.151a2.1,2.1,0,0,0-1.956-.173c-1.12.445.529.513,1.263.461S904.335,679.151,904.335,679.151Z" transform="translate(-876.727 -661.612)" fill="#f7cc82" fill-rule="evenodd"/>
  <path id="Path_215" data-name="Path 215" d="M728.165,963.7c-1.67,1.244-8.941,5.091-9.445,5.34C720.006,968.433,726.187,965.809,728.165,963.7Z" transform="translate(-711.112 -919.04)" fill="#1a121e"/>
  <path id="Path_216" data-name="Path 216" d="M762.625,949.75a74.613,74.613,0,0,1-6.515,4.564C757.021,953.8,761.461,951.568,762.625,949.75Z" transform="translate(-744.899 -906.435)" fill="#1a121e"/>
  <path id="Path_217" data-name="Path 217" d="M708.692,943.52c-.181.706-4.016,3.537-5.552,4.465C704.586,946.947,706.584,945.353,708.692,943.52Z" transform="translate(-697.034 -900.805)" fill="#1a121e"/>
  <path id="Path_218" data-name="Path 218" d="M689.43,924.46a72.861,72.861,0,0,1-2.44,7.012C687.381,930.616,689.427,926.736,689.43,924.46Z" transform="translate(-682.44 -883.582)" fill="#1a121e"/>
  <path id="Path_219" data-name="Path 219" d="M877.167,765.655l.168.255c0,.02-.009.041-.012.054a4.591,4.591,0,0,1-1.043,1.6,4.978,4.978,0,0,0,.614-1.09,3.122,3.122,0,0,0,.273-.824Zm.416,1.517a1.992,1.992,0,0,0,.2-.583l.08.121A3.235,3.235,0,0,1,877.583,767.172Zm-.389-2.36a1.468,1.468,0,0,1,.142,1.1l-.168-.255a2.482,2.482,0,0,0,.026-.843Zm.667,1.9a2.094,2.094,0,0,0,.238-.779,2.809,2.809,0,0,0-.171-1.161,4.349,4.349,0,0,1-.054,1.367c-.034.179-.064.327-.094.451Z" transform="translate(-853.486 -739.283)" fill="#f1b289" fill-rule="evenodd"/>
  <path id="Path_220" data-name="Path 220" d="M821.718,921.31a2.688,2.688,0,0,0,.616,3.676A2.24,2.24,0,0,1,821.718,921.31Z" transform="translate(-803.526 -880.736)" fill="#30111f"/>
  <path id="Path_221" data-name="Path 221" d="M813.974,932.88a2.113,2.113,0,0,0,.975,2.765A1.76,1.76,0,0,1,813.974,932.88Z" transform="translate(-796.851 -891.191)" fill="#30111f"/>
</svg>
