<svg id="gplay" xmlns="http://www.w3.org/2000/svg" width="198.019" height="46.578" viewBox="0 0 198.019 46.578">
  <path id="Path_3960" data-name="Path 3960" d="M51.124,13.766a4.632,4.632,0,0,1-1.282,3.419,4.975,4.975,0,0,1-3.76,1.521,5.282,5.282,0,0,1-5.333-5.35,5.342,5.342,0,0,1,7.436-4.923,4.221,4.221,0,0,1,1.607,1.145l-.906.906a3.419,3.419,0,0,0-2.8-1.214A3.966,3.966,0,0,0,42.1,13.356a4.034,4.034,0,0,0,6.838,2.957,3.231,3.231,0,0,0,.855-2.085H46.082V13h4.974A4.331,4.331,0,0,1,51.124,13.766Z" transform="translate(12.881 -7.802)" fill="#fece2f" stroke="#fff" stroke-width="0.2"/>
  <path id="Path_3961" data-name="Path 3961" d="M53.054,9.385H48.439v3.248h4.205v1.231H48.439v3.248h4.615v1.265H47.071V8.12h5.983Z" transform="translate(18.779 -7.695)" fill="#fece2f" stroke="#fff" stroke-width="0.2"/>
  <path id="Path_3962" data-name="Path 3962" d="M55.089,18.376H53.773V9.385H50.9V8.12h7.128V9.385h-2.94Z" transform="translate(22.351 -7.695)" fill="#fece2f" stroke="#fff" stroke-width="0.2"/>
  <path id="Path_3963" data-name="Path 3963" d="M57.189,18.376V8.12h1.316V18.376Z" transform="translate(28.216 -7.695)" fill="#fece2f" stroke="#fff" stroke-width="0.2"/>
  <path id="Path_3964" data-name="Path 3964" d="M62.916,18.376H61.6V9.385H58.728V8.12h7.043V9.385H62.916Z" transform="translate(29.652 -7.695)" fill="#fece2f" stroke="#fff" stroke-width="0.2"/>
  <path id="Path_3965" data-name="Path 3965" d="M64.611,13.361a5.249,5.249,0,0,0,1.5,3.795,5.333,5.333,0,0,0,7.521,0,5.247,5.247,0,0,0,1.5-3.795,5.266,5.266,0,1,0-10.53,0ZM72.662,16.3a3.949,3.949,0,0,1-5.572,0,4.017,4.017,0,0,1-1.145-2.94,4.016,4.016,0,0,1,1.077-2.94,3.949,3.949,0,0,1,5.572,0,4.017,4.017,0,0,1,1.214,2.94A4.017,4.017,0,0,1,72.662,16.3Z" transform="translate(35.137 -7.807)" fill="#fece2f" fill-rule="evenodd"/>
  <path id="Path_3966" data-name="Path 3966" d="M66.208,17.248l-.138.135,0,0Zm-1.5-3.795.193,0v-.009Zm9.025,3.795.136.137,0,0Zm1.5-3.795-.193,0v.009Zm-1.5-3.795.138-.135h0Zm-7.521,0-.137-.136h0Zm.974,6.735-.138.135,0,0Zm5.572,0,.136.137,0,0Zm-6.718-2.94.194.006v-.016Zm1.077-2.94-.136-.137,0,.005Zm5.572,0-.136.137h0Zm1.214,2.94-.193,0v.009Zm-7.554,3.659A5.055,5.055,0,0,1,64.9,13.458l-.386-.009a5.441,5.441,0,0,0,1.56,3.935Zm7.247,0a5.14,5.14,0,0,1-7.248,0l-.273.274a5.527,5.527,0,0,0,7.794,0Zm1.447-3.653a5.054,5.054,0,0,1-1.449,3.655l.276.271a5.441,5.441,0,0,0,1.56-3.935ZM73.591,9.794a5.054,5.054,0,0,1,1.449,3.655l.386.009a5.441,5.441,0,0,0-1.56-3.935ZM69.969,8.287A5.106,5.106,0,0,1,73.592,9.8l.274-.272a5.492,5.492,0,0,0-3.9-1.623ZM66.345,9.8a5.106,5.106,0,0,1,3.623-1.509V7.9a5.492,5.492,0,0,0-3.9,1.623ZM64.9,13.449a5.054,5.054,0,0,1,1.449-3.655l-.276-.271a5.441,5.441,0,0,0-1.56,3.935Zm2.149,3.082a4.142,4.142,0,0,0,5.845,0l-.273-.274a3.755,3.755,0,0,1-5.3,0Zm-1.2-3.083a4.211,4.211,0,0,0,1.2,3.081l.276-.271a3.824,3.824,0,0,1-1.09-2.8Zm1.129-3.066a4.21,4.21,0,0,0-1.129,3.081l.386-.019a3.824,3.824,0,0,1,1.025-2.8Zm5.85-.005a4.142,4.142,0,0,0-5.845,0l.273.274a3.756,3.756,0,0,1,5.3,0Zm1.271,3.08a4.21,4.21,0,0,0-1.272-3.081l-.27.277a3.824,3.824,0,0,1,1.155,2.8Zm-1.2,3.072a4.21,4.21,0,0,0,1.2-3.081l-.386.012a3.823,3.823,0,0,1-1.09,2.8Z" transform="translate(35.044 -7.9)" fill="#fece2f"/>
  <path id="Path_3967" data-name="Path 3967" d="M71.022,18.376V8.12h1.607L77.62,16.1h0V8.12h1.316V18.376H77.569l-5.231-8.359h0v8.359Z" transform="translate(41.118 -7.695)" fill="#fece2f" stroke="#fff" stroke-width="0.2"/>
  <path id="Path_3968" data-name="Path 3968" d="M52.064,27.327V30.4h7.385a6.444,6.444,0,0,1-1.709,3.88,7.556,7.556,0,0,1-5.692,2.256,8.2,8.2,0,1,1,0-16.41,7.863,7.863,0,0,1,5.59,2.205l2.171-2.171a10.752,10.752,0,0,0-7.743-3.2,11.3,11.3,0,1,0,0,22.58A9.978,9.978,0,0,0,62.611,29.173a10.039,10.039,0,0,0-.171-1.932Zm18.958-2.24A7.265,7.265,0,1,0,78.3,32.352,7.162,7.162,0,0,0,71,25.088ZM79.7,32.375a7.265,7.265,0,0,1,7.23-7.287,7.162,7.162,0,0,1,7.3,7.265,7.265,7.265,0,0,1-14.529.023Zm3.263,1.891a4.41,4.41,0,0,0,4.287,2.5,4.2,4.2,0,0,0,4.1-4.41,4.41,4.41,0,1,0-8.39,1.912ZM67,34.277a4.41,4.41,0,0,0,4.3,2.485h-.017a4.2,4.2,0,0,0,4.1-4.41A4.41,4.41,0,1,0,67,34.277Zm56.293-9.189a6.837,6.837,0,0,1,6.222,4.632l.359.769-9.726,4.017a3.692,3.692,0,0,0,3.521,2.205,4.154,4.154,0,0,0,3.572-2.017l2.479,1.709a7.231,7.231,0,0,1-6.051,3.213,7.111,7.111,0,0,1-7.213-7.265,6.837,6.837,0,0,1,6.837-7.265Zm-3.692,7.06a3.983,3.983,0,0,1,3.795-4.239,2.821,2.821,0,0,1,2.7,1.538Zm-4.7,7.042h-3.2V17.823h3.2Zm-8.427-12.478h-.12A5.129,5.129,0,0,0,102.525,25a7.282,7.282,0,0,0,0,14.546,4.957,4.957,0,0,0,3.829-1.709h.1v1.043c0,2.786-1.487,4.273-3.88,4.273a4.017,4.017,0,0,1-3.658-2.581l-2.786,1.162a6.923,6.923,0,0,0,6.444,4.29c3.743,0,6.837-2.205,6.837-7.572V25.515h-2.94Zm-3.664,10.05h0Zm2.88-1.371a4.068,4.068,0,0,1-2.88,1.371,4.427,4.427,0,0,1,.005-8.82,4.1,4.1,0,0,1,3.88,4.41A4.067,4.067,0,0,1,105.69,35.391Zm38.8-17.568h-7.658V39.19h3.2v-8.1h4.461a6.649,6.649,0,1,0,0-13.264ZM140.028,28.08h4.461l.068.051a3.667,3.667,0,1,0,0-7.333h-4.53ZM164.2,25a5.984,5.984,0,0,0-5.692,3.265l2.837,1.18a3.028,3.028,0,0,1,2.907-1.573,3.077,3.077,0,0,1,3.419,2.752v.222a7.067,7.067,0,0,0-3.334-.82c-3.059,0-6.154,1.709-6.154,4.8a4.939,4.939,0,0,0,5.3,4.7,4.494,4.494,0,0,0,4.1-2.051h.1v1.709h3.077V30.969c0-3.743-2.837-5.914-6.478-5.914Zm-2.887,9.9c0,1.282,1.451,1.812,2.5,1.812l.085.051a3.863,3.863,0,0,0,3.744-3.419,5.676,5.676,0,0,0-2.907-.718C163.121,32.626,161.31,33.19,161.31,34.9Zm20.665-9.385-3.657,9.265h-.1l-3.8-9.265H171l5.692,12.957-3.247,7.2h3.334l8.751-20.153ZM156.438,39.19h-3.2V17.823h3.2Z" transform="translate(12.487 0.55)" fill="#fece2f" fill-rule="evenodd"/>
  <path id="Path_3969" data-name="Path 3969" d="M13.777,8.656a3.42,3.42,0,0,0-.752,2.393v37.81a3.419,3.419,0,0,0,.786,2.393l.12.12L35.076,30.211v-.5L13.9,8.536Z" transform="translate(-12.985 -7.306)" fill="#fece2f"/>
  <path id="Path_3970" data-name="Path 3970" d="M31.438,30.465l-7.008-7.06v-.5l7.008-7.077.154.085,8.393,4.769c2.393,1.35,2.393,3.573,0,4.94l-8.359,4.752Z" transform="translate(-2.339 -0.501)" fill="#fece2f"/>
  <path id="Path_3971" data-name="Path 3971" d="M41.922,26.848l-7.213-7.23-21.3,21.3a2.786,2.786,0,0,0,3.555.1L41.939,26.831" transform="translate(-12.618 3.029)" fill="#fece2f"/>
  <path id="Path_3972" data-name="Path 3972" d="M41.93,23.018,16.957,8.83a2.786,2.786,0,0,0-3.556.1l21.316,21.3Z" transform="translate(-12.626 -7.584)" fill="#fece2f"/>
  <path id="Path_3973" data-name="Path 3973" d="M41.717,23.27l-24.769,14.1a2.855,2.855,0,0,1-3.419,0h0l-.12.12h0l.12.12h0a2.838,2.838,0,0,0,3.419,0L41.922,23.424Z" transform="translate(-12.618 6.436)" fill="#fece2f" opacity="0.2"/>
  <path id="Path_3974" data-name="Path 3974" d="M13.792,31.669a3.417,3.417,0,0,1-.786-2.393v.256a3.417,3.417,0,0,0,.786,2.393l.12-.12Z" transform="translate(-13 12.037)" fill="#fece2f" opacity="0.12"/>
  <path id="Path_3975" data-name="Path 3975" d="M36.6,21.84l-8.547,4.838.154.154L36.6,22.079a2.992,2.992,0,0,0,1.709-2.461h0A3.179,3.179,0,0,1,36.6,21.84Z" transform="translate(1.043 3.029)" fill="#fece2f" opacity="0.12"/>
  <path id="Path_3976" data-name="Path 3976" d="M17.311,9.065,50.627,28a3.179,3.179,0,0,1,1.709,2.222h0a2.991,2.991,0,0,0-1.709-2.461L17.311,8.825c-2.376-1.367-4.29-.239-4.29,2.5v.256C13.021,8.842,14.935,7.714,17.311,9.065Z" transform="translate(-12.981 -7.579)" fill="#fece2f" opacity="0.25"/>
</svg>
