<svg xmlns="http://www.w3.org/2000/svg" width="78.711" height="56.982" viewBox="0 0 78.711 56.982">
  <path id="sign" d="M36.45-41.016q.977,3.857,1.489,7.275a43.549,43.549,0,0,1,.513,6.445,49.963,49.963,0,0,1-.757,8.252,96.855,96.855,0,0,1-2.222,9.766l-13.818.1L20.63-14.307q-3.564.928-5.737,1.318a20.613,20.613,0,0,1-3.442.391,27.727,27.727,0,0,1-4.907-.659,27.727,27.727,0,0,0-4.907-.659,36.055,36.055,0,0,0-6.812.9,35.574,35.574,0,0,1-6.274.9,28.556,28.556,0,0,1-5.542-.659,73.768,73.768,0,0,1-7.544-2.026l-5.42,6.006q-2.881,1.025-5.322,1.807t-4.687,1.367l-.293-.293q1.221-2.832,2.271-5.078t2.124-4.395q.146-.2.83-1.245t1.172-1.782l-1.27-1.172q2.734-7.129,4.59-12.256t3.369-9.668A107.1,107.1,0,0,1-16.04-51.1a37.964,37.964,0,0,1,9.082-5.1l5.811,3.809A94.727,94.727,0,0,1,6.4-60.547Q8.716-62.6,10.034-62.6a3.645,3.645,0,0,1,2.71,1.489,4.689,4.689,0,0,1,1.294,3.1A6.552,6.552,0,0,1,12.5-54.517a81.142,81.142,0,0,1-6.86,7.5,58.362,58.362,0,0,0,8.618,4.932,24.9,24.9,0,0,0,7.056,2.1l1.318-2ZM32.837-12.109a47.159,47.159,0,0,0,1.587-6.812,43.931,43.931,0,0,0,.513-6.665,40.658,40.658,0,0,0-.513-6.4,39.074,39.074,0,0,0-1.587-6.4l-8.008-.1q.684,3.662,1,6.421a43.123,43.123,0,0,1,.317,4.858,38.056,38.056,0,0,1-.684,6.665q-.684,3.784-2.1,8.911ZM22.632-17.187q.732-3.613,1.025-5.957A32.768,32.768,0,0,0,23.95-27.1a30.365,30.365,0,0,0-.415-4.785A46.931,46.931,0,0,0,22.241-37.5q-1.709-.1-3.394-.317a33.527,33.527,0,0,1-3.345-.61q-3.027-1.416-5.981-3.052T3.638-45.02l-5.811,6.3v.83a13.4,13.4,0,0,1-1.27,6.055,13.257,13.257,0,0,1-4.1,4.639,25.734,25.734,0,0,0,4.883-.659,27.753,27.753,0,0,0,4.834-1.636A8.116,8.116,0,0,1,.83-27.075a7.6,7.6,0,0,1-2.124,1.782h-.732q-.586,0-2.734-.049t-3.711-.049A28.918,28.918,0,0,0-19.6-23.56q-4.346,1.831-4.346,4.37a2.488,2.488,0,0,0,1.318,2.222,15.033,15.033,0,0,0,4.883,1.392,4.247,4.247,0,0,0,1.074-1.343,3.384,3.384,0,0,0,.342-1.489,8.408,8.408,0,0,0-.244-1.807q-.244-1.074-.781-2.686a4.413,4.413,0,0,1,2.075,1.611,4.834,4.834,0,0,1,.61,2.588,4.051,4.051,0,0,1-.439,1.782,5.583,5.583,0,0,1-1.221,1.636,22.032,22.032,0,0,0,2.881.732,15.258,15.258,0,0,0,2.686.244A24.629,24.629,0,0,0-4.2-15.552,24.3,24.3,0,0,1,1.831-16.8a25.446,25.446,0,0,1,4.736.757,25.928,25.928,0,0,0,5.371.757,24.9,24.9,0,0,0,4.2-.464Q18.726-16.211,22.632-17.187Zm-27-19.531q-1.9,2.295-3.931,4.59t-4.126,4.639l.488.1h.488A5.989,5.989,0,0,0-6.567-29.98,11.635,11.635,0,0,0-4.37-36.719ZM-3.3-50.439l-.732-.586q-2.979-2.393-3.516-2.393-1.611,0-7.1,4.1a75.377,75.377,0,0,0-10.815,10.01q-1.123,2.49-2.075,4.907t-1.685,4.81a3.956,3.956,0,0,1,1.831,1.318,4.011,4.011,0,0,1,.757,2.148l-.1.537a19.926,19.926,0,0,1-.928,2.783,17.571,17.571,0,0,1-1.465,2.783h.879a3.816,3.816,0,0,0,2.441-1.514,13.894,13.894,0,0,0,2.441-3.76q.2-.391.488-1.172a25.245,25.245,0,0,1,3.125-5.957q1.953-2.539,9.814-10.889Q-5.688-47.754-3.3-50.439ZM-32.153-19.922h.1a3.206,3.206,0,0,0,2.71-1.636,7.246,7.246,0,0,0,1.1-4.126,4.056,4.056,0,0,0-.317-1.709,3.826,3.826,0,0,0-1.1-1.318l-3.809,8.691Zm1.709,9.18a4.587,4.587,0,0,0-.928-2.026,12.039,12.039,0,0,0-2.295-2.222,36.5,36.5,0,0,0-2.344,3.271A11.071,11.071,0,0,0-37.231-9.18l.879,1.172q1.563-.537,3.052-1.221A28.026,28.026,0,0,0-30.444-10.742Z" transform="translate(40.259 62.598)" fill="#414042"/>
</svg>
